<?xml version="1.0" encoding="iso-8859-1"?>
<!-- Uploaded to: SVG Repo, www.svgrepo.com, Generator: SVG Repo Mixer Tools -->
<!DOCTYPE svg PUBLIC "-//W3C//DTD SVG 1.1//EN" "http://www.w3.org/Graphics/SVG/1.1/DTD/svg11.dtd">
<svg fill="#000000" height="800px" width="800px" version="1.1" id="Capa_1" xmlns="http://www.w3.org/2000/svg" xmlns:xlink="http://www.w3.org/1999/xlink" 
	 viewBox="0 0 297 297" xml:space="preserve">
<path d="M295.985,252.328c-0.715-1.432-17.929-35.447-68.425-103.055v-31.57c0-14.851-12.082-26.934-26.935-26.934h-14.454
	c6.668-51.322,6.669-57.656,6.669-59.822c0-14.875-12.104-26.979-26.979-26.979c-14.877,0-26.979,12.104-26.979,26.979
	c0,2.166,0.001,8.5,6.669,59.822h-14.455c-14.852,0-26.935,12.082-26.935,26.934v28.959c-17.322,9.414-72.092,41.592-102.544,87.271
	c-2.631,3.943-1.994,9.217,1.5,12.422c2.077,1.906,51.9,46.676,141.416,46.676c87.969,0,144.627-26.592,146.996-27.723
	c2.328-1.113,4.112-3.115,4.95-5.557C297.317,257.31,297.139,254.635,295.985,252.328z M165.861,23.207
	c4.269,0,7.74,3.473,7.74,7.74c0,2.287-0.683,12.623-6.74,59.121h-2.001c-6.058-46.498-6.74-56.834-6.74-59.121
	C158.119,26.68,161.592,23.207,165.861,23.207z M208.321,117.703v86.941c-5.685-4.598-12.618-8.949-20.799-13.039
	c-12.343-6.172-24.563-10.232-31.326-12.25v-36.551h27.024c4.25,0,7.695-3.447,7.695-7.697s-3.445-7.695-7.695-7.695h-31.559
	l-17.613-17.404h66.577C204.868,110.008,208.321,113.459,208.321,117.703z M123.4,121.123l17.405,17.199v40.959
	c-4.101,1.502-9.785,4.275-17.405,9.311V121.123z M144.532,273.793c-63.946,0-106.224-25.279-121.76-36.434
	c24.137-31.984,61.346-56.654,81.388-68.52v34.219c-8.976,7.445-19.532,17.039-31.902,29.408c-3.757,3.756-3.757,9.848,0,13.604
	c3.757,3.756,9.847,3.756,13.604,0c39.647-39.648,57.939-47.553,62.375-49.004c17.662,4.84,60.083,20.947,60.083,42.203
	c0,5.311,4.308,9.619,9.62,9.619s9.619-4.309,9.619-9.619v-57.469c24.992,34.74,39.355,58.186,46.195,70.047
	C254.678,259.068,207.991,273.793,144.532,273.793z"/>
</svg>