<?xml version="1.0" encoding="UTF-8"?>
<svg xmlns="http://www.w3.org/2000/svg" width="256" height="48" viewBox="0 0 256 48">
  <g fill="rgb(1, 38, 34)">
    <path d="M24.052 0c13.284 0 24.051 10.748 24.051 24.001C48.103 37.253 37.336 48 24.052 48 10.767 48 0 37.253 0 24.001 0 10.748 10.767 0 24.052 0zm2.347 9.376h-.265c-.176-.01-.134.371-.133.398.005.133.035.329.038.435.024.95-.384 1.657-.664 2.307-1.213 2.815-2.55 5.564-3.713 8.335-.793 1.888-1.515 3.812-2.293 5.748a71.75 71.75 0 0 0-1.1 2.911c-.346.983-.89 2.071-1.003 3.045v.397c.037.7.741.45 1.307.379.112-.015.218-.06.322-.077.304-.05.6.017.779-.133.051-.495-.044-.821.074-1.267.03-.045.058.043.057.04.364.557.673 1.047 1.25 1.38.624.359 1.582.356 2.388.189.73-.152 1.378-.458 2.008-.795 1.879-1.003 3.237-2.255 4.376-4.027.734-1.14 1.318-2.642 1.365-4.234v-.87c-.032-.557-.09-1.086-.227-1.57-.366-1.282-1.236-2.57-2.709-2.685-.594-.046-1.078.14-1.555.303-.458.158-.893.363-1.155.68.26-.788.694-1.54 1.023-2.361.161-.403.318-.812.493-1.211.34-.774.799-1.499 1.099-2.306.147-.396.298-.808.474-1.23.32-.769.738-1.78.719-2.608-.004-.232-.066-.489-.15-.624-.222-.353-.58-.32-1.024-.34-.578-.029-1.192-.153-1.78-.19v-.019zm12.045 9.104h-5.646v.649c1.635.134 1.814.223 1.814 2.19v8.876c0 1.855-.179 2.035-1.949 2.169v.648h6.206v-.648c-1.907-.13-2.158-.26-2.172-1.97v-3.62l1.635.425c.246.023.65.023.985-.022 2.197-.268 4.392-1.677 4.392-4.583 0-1.476-.582-2.527-1.479-3.197-.896-.648-2.173-.917-3.786-.917zm-27 0H5.417v.649c1.792.134 1.95.268 1.95 2.168v8.876c0 1.9-.18 2.057-2.085 2.191v.648h10.285c.202-.67.672-2.817.806-3.578l-.672-.133c-.358 1.05-.785 1.765-1.187 2.213-.516.581-1.277.693-2.465.693-.896 0-1.614-.022-2.061-.268-.404-.224-.516-.649-.516-1.833v-8.809c0-1.922.202-2.034 1.972-2.168v-.649zm16.907 4.697c-.107.59-.325 1.192-.454 1.626-.645 2.148-1.564 3.932-2.653 5.672-.253.4-.509.84-.891 1.19-.337.31-.847.715-1.364.718a1.297 1.297 0 0 1-1.08-.605c-.487-.806-.215-2.424.093-3.364.316-.96.81-1.96 1.195-2.78.458-.97.864-1.759 1.383-2.588.506-.814.998-1.728 1.743-2.232.195-.132.377-.225.664-.265 1.286-.18 1.597 1.326 1.364 2.628zm9.734-3.96c1.77 0 3.271 1.007 3.271 3.444 0 2.884-1.77 3.622-3.114 3.622-.672 0-1.277-.134-1.546-.269V20.47c0-.581.067-.85.225-.984.156-.157.581-.268 1.164-.268z" fill="rgb(1, 38, 34)"></path>
    <path d="M60.508 12.88c-.071.394-.319 1.507-.425 1.855h-5.42v-.336c1.003-.07 1.097-.15 1.097-1.137V8.66c0-.986-.082-1.056-1.026-1.126V7.2h3.177v.335c-.934.07-1.04.128-1.04 1.126v4.568c0 .615.06.835.272.95.235.129.614.14 1.086.14.625 0 1.028-.058 1.3-.36.212-.232.436-.602.625-1.147l.354.07zm8.448.012c-.071.406-.307 1.484-.414 1.843h-5.751V14.4c1.064-.08 1.158-.162 1.158-1.125v-4.58c0-1.043-.094-1.079-1.005-1.16v-.336h5.315c.012.267.071 1.068.106 1.682l-.353.058c-.107-.476-.237-.754-.402-.997-.166-.244-.484-.326-1.3-.326h-.85c-.377 0-.4.036-.4.384v2.608h1.062c1.05 0 1.122-.093 1.275-.869h.354v2.237h-.354c-.153-.823-.248-.893-1.275-.893H65.06v2.145c0 .557.07.813.284.952.223.14.637.14 1.192.14.85 0 1.205-.094 1.465-.383.2-.245.425-.638.602-1.102l.354.058zm6.582-3.92c-.2-.73-.543-1.541-1.559-1.541-.862 0-1.275.614-1.275 1.252 0 .811.543 1.206 1.487 1.681.981.487 2.055 1.044 2.055 2.319 0 1.24-1.074 2.226-2.667 2.226-.473 0-.863-.081-1.158-.174-.307-.093-.485-.185-.615-.243-.095-.255-.248-1.24-.319-1.833l.355-.092c.2.719.756 1.913 1.96 1.913.862 0 1.37-.533 1.37-1.357 0-.823-.626-1.24-1.5-1.703-.85-.442-1.972-1.021-1.972-2.297 0-1.148.933-2.098 2.48-2.098.579 0 1.11.15 1.512.267.046.417.117.88.212 1.623l-.366.057zm9.51.058c-.13-.567-.248-.869-.402-1.066-.2-.267-.4-.348-1.264-.348h-.778v5.67c0 .928.094 1.044 1.205 1.113v.336h-3.473v-.336c1.064-.07 1.158-.173 1.158-1.114v-5.67h-.672c-.982 0-1.206.105-1.37.36-.142.197-.261.534-.39 1.055h-.367c.058-.718.118-1.496.141-2.12h.249c.177.266.319.289.65.289h4.687c.32 0 .425-.07.603-.29h.26c0 .521.059 1.403.118 2.087l-.354.034zm8.956 3.862c-.071.406-.307 1.484-.414 1.843H87.84V14.4c1.063-.08 1.157-.162 1.157-1.125v-4.58c0-1.043-.094-1.079-1.004-1.16v-.336h5.315c.012.267.07 1.068.107 1.682l-.355.058c-.106-.476-.236-.754-.4-.997-.167-.244-.486-.326-1.3-.326h-.851c-.378 0-.402.036-.402.384v2.608h1.064c1.05 0 1.122-.093 1.275-.869h.355v2.237h-.355c-.153-.823-.249-.893-1.275-.893h-1.064v2.145c0 .557.072.813.284.952.224.14.638.14 1.193.14.85 0 1.205-.094 1.465-.383.2-.245.424-.638.601-1.102l.355.058zm5.531-5.694c.897 0 1.475.105 1.925.394.472.303.79.825.79 1.52 0 1.009-.636 1.611-1.5 1.982.202.36.687 1.136 1.04 1.659.425.625.661.927.945 1.228.307.326.567.453.826.534l-.047.313c-.13 0-.271 0-.4-.011-1.005-.059-1.49-.325-2.009-1.068-.402-.556-.803-1.263-1.145-1.831-.212-.337-.402-.476-.98-.476h-.343v1.82c0 .987.106 1.067 1.04 1.137v.336H96.5V14.4c.897-.066 1.038-.142 1.05-.995V8.637c0-.975-.094-1.033-1.003-1.102v-.337h2.988zm-.154.383c-.33 0-.531.046-.626.115-.083.07-.118.199-.118.5v2.864h.52c.58 0 .968-.093 1.263-.326.438-.347.626-.81.626-1.437 0-1.252-.815-1.716-1.665-1.716zm13.99-.382c.885 0 1.416.139 1.806.394.414.279.661.777.661 1.321 0 1.09-.944 1.554-1.642 1.728v.023c1.206.175 2.115.697 2.115 1.844 0 .776-.426 1.38-1.121 1.751-.592.336-1.406.475-2.34.475h-2.68v-.336c1.004-.07 1.075-.15 1.075-1.114V8.636c0-.963-.06-1.032-.98-1.102V7.2h3.106zm-.544 3.733h-.484v2.33c0 .835.224 1.068.956 1.056.91 0 1.749-.487 1.749-1.693 0-1.171-.804-1.693-2.22-1.693zm.307-3.351c-.296 0-.543.058-.65.127-.106.07-.141.21-.141.558v2.26h.495c1.276 0 1.808-.498 1.808-1.46 0-.835-.485-1.485-1.512-1.485zm5.957 6.586a.68.68 0 0 1 .696-.696c.402 0 .696.301.696.696 0 .43-.294.707-.708.707-.39 0-.684-.278-.684-.707m11.872-6.968c.85 0 1.523.139 1.995.474.473.349.78.894.78 1.658 0 1.509-1.158 2.24-2.315 2.378-.177.023-.39.023-.52.012l-.862-.22v1.785c0 .975.106 1.044 1.146 1.113v.336h-3.271v-.336c.933-.069 1.028-.162 1.028-1.125V8.671c0-1.02-.095-1.067-.957-1.137V7.2h2.976zm-.188.382c-.309 0-.534.058-.616.139-.083.07-.118.21-.118.51v2.876c.142.07.46.14.815.14.709 0 1.642-.383 1.642-1.88 0-1.263-.792-1.785-1.723-1.785zm11.636 5.31c-.071.407-.308 1.485-.415 1.844h-5.75V14.4c1.063-.08 1.157-.162 1.157-1.125v-4.58c0-1.043-.094-1.079-1.004-1.16v-.336h5.314c.012.267.071 1.068.107 1.682l-.355.058c-.106-.476-.236-.754-.401-.997-.165-.244-.484-.326-1.299-.326h-.85c-.379 0-.403.036-.403.384v2.608h1.064c1.051 0 1.123-.093 1.275-.869h.355v2.237h-.355c-.152-.823-.248-.893-1.275-.893h-1.064v2.145c0 .557.071.813.284.952.225.14.639.14 1.193.14.851 0 1.205-.094 1.465-.383.2-.245.425-.638.602-1.102l.355.058zm6.451-5.866c.733 1.993 1.524 4.174 2.28 6.18.377 1.009.53 1.113 1.3 1.194v.337h-2.989v-.337c.743-.092.837-.196.672-.661a52.381 52.381 0 0 0-.613-1.693h-2.48c-.178.487-.342.962-.508 1.438-.236.708-.142.824.744.916v.337h-2.586v-.337c.755-.104.92-.185 1.323-1.194l2.444-6.064.413-.116zm-.531 1.623h-.036c-.366.962-.732 1.936-1.075 2.876h2.115l-1.004-2.876zm9.617-1.45c.899 0 1.476.105 1.926.394.472.303.79.825.79 1.52 0 1.009-.636 1.611-1.499 1.982.2.36.685 1.136 1.04 1.659.424.625.66.927.944 1.228.308.326.568.453.826.534l-.046.313c-.13 0-.272 0-.401-.011-1.005-.059-1.489-.325-2.009-1.068-.401-.556-.802-1.263-1.145-1.831-.213-.337-.402-.476-.98-.476h-.343v1.82c0 .987.106 1.067 1.04 1.137v.336h-3.178V14.4c.946-.07 1.052-.15 1.052-1.136V8.637c0-.975-.095-1.033-1.004-1.102v-.337h2.987zm-.153.383c-.33 0-.53.046-.625.115-.083.07-.119.199-.119.5v2.864h.52c.579 0 .969-.093 1.264-.326.436-.347.624-.81.624-1.437 0-1.252-.813-1.716-1.664-1.716zm10.433 1.391c-.201-.73-.544-1.541-1.56-1.541-.862 0-1.274.614-1.274 1.252 0 .811.542 1.206 1.487 1.681.98.487 2.054 1.044 2.054 2.319 0 1.24-1.074 2.226-2.667 2.226-.473 0-.862-.081-1.157-.174-.308-.093-.486-.185-.616-.243-.095-.255-.247-1.24-.318-1.833l.354-.092c.2.719.756 1.913 1.96 1.913.862 0 1.37-.533 1.37-1.357 0-.823-.625-1.24-1.5-1.703-.85-.442-1.972-1.021-1.972-2.297 0-1.148.934-2.098 2.48-2.098.579 0 1.11.15 1.513.267.046.417.117.88.212 1.623l-.366.057zm4.774 1.763c0 2.134 1.158 3.745 2.8 3.745 1.275 0 2.397-1.079 2.397-3.293 0-2.423-1.229-3.733-2.765-3.733-1.274 0-2.432 1.125-2.432 3.28m6.519.14c0 2.504-1.795 4.035-3.967 4.035-2.186 0-3.875-1.647-3.875-3.873 0-2.075 1.488-4.011 4.016-4.011 2.019 0 3.826 1.53 3.826 3.85m10.706-3.34c-.663.034-.934.185-.993.695-.035.36-.07.881-.07 1.948v4.673h-.402l-5.008-6.029h-.024v2.852c0 1.056.036 1.612.071 1.948.06.58.32.731 1.146.778v.335h-2.823V14.4c.675-.047.969-.198 1.028-.755.036-.36.082-.915.082-1.97v-2.53c0-.82-.023-.915-.235-1.18-.236-.291-.496-.384-1.04-.43v-.336h1.818l4.854 5.682h.036v-2.703c0-1.067-.047-1.588-.082-1.923-.06-.524-.332-.674-1.157-.72v-.336h2.799v.336z" fill="rgb(1, 38, 34)"></path>
    <text font-family='ApexNew-Book, Apex New' font-size="23.273" font-weight="400" letter-spacing="-.273" fill="rgb(1, 38, 34)">
      <tspan x="53.423" y="38.727">Culinary Experience</tspan>
    </text>
  </g>
</svg>
