<svg xmlns="http://www.w3.org/2000/svg" enable-background="new 0 0 500 421" viewBox="0 0 500 421" id="Waiterholdingtrayinhotel"><path fill="#e6e6e6" d="m476.794 250.394-30.238.35-4.544-35.109a3.913 3.913 0 0 0 2.616-3.085l9.447-50.029a3.317 3.317 0 0 0-3.279-3.803 3.319 3.319 0 0 0-3.281 2.778l-10.096 46.525h-3.495s4.131-4.432 4.131-10.65c0-4.013-1.728-10.139-2.949-13.975a11.065 11.065 0 0 1 .114-7.091c1.7-4.755 4.45-12.94 4.45-16.122 0-2.178-1.316-5.072-2.7-7.523 2.14-.408 2.179-1.234 2.179-1.234l.521-12.435c-1.903-2.994-1.348-8.232-2.371-10.247-1.026-2.015-3.962-4.837-9.087-4.548-5.125.288-8.287 2.59-9.036 5.18-.749 2.591 1.552 2.696 1.552 2.696s.054-.275.146-.673a64.972 64.972 0 0 0-.44 2.68l-1.813 2.718a.447.447 0 0 0 .205.682l.884.374c.182.077.29.258.281.453-.111 1.888-.046 3.449.315 4.138.624 1.186 5.73 1.718 5.73 1.718l-.33 9.762c-2.629 3.492-5.996 8.199-6.681 10.272-.221.673-.296 4.817.576 7.944l-.92 2.133-14.993-3.831a1.056 1.056 0 0 0-1.326.681l-.179.552-6.096-1.358-17.051 4.118a.35.35 0 0 0-.12.633l.808.545h-9.891l-1.894-.684a.546.546 0 0 1-.361-.515v-6.371c0-.29.203-.534.486-.602a4.223 4.223 0 0 0 3.217-4.098v-9.134h-8.444v9.134a4.223 4.223 0 0 0 3.217 4.098.62.62 0 0 1 .486.602v6.371a.544.544 0 0 1-.364.515l-1.894.684h-2.393v.595h-10.553c.031-.041.059-.086.059-.14a.25.25 0 0 0-.166-.235l-2.506-.904a.547.547 0 0 1-.362-.515v-6.371c0-.29.206-.534.485-.602a4.22 4.22 0 0 0 3.22-4.098v-9.134h-8.444v9.134a4.222 4.222 0 0 0 3.219 4.098c.28.067.485.311.485.602v6.371a.546.546 0 0 1-.363.515l-1.894.684H323.59v.595h-2.634a2.522 2.522 0 0 0-2.522 2.524v5.685l-16.817-10.745c-1.191-7.681-2.36-15.332-2.36-17.591 0-4.607-1.379-9.442-3.991-11.59a16.86 16.86 0 0 0-1.13-.846l1.698-6.802s10.851 5.124 8.903-3.286c-.185-.803-.019-1.653-.056-2.473.827-.516 2.027-1.316 2.004-1.568-.031-.298-1.694-2.767-2.424-3.84-.174-1.682-.351-3.183-.456-4.359a1.865 1.865 0 0 0-1.05-1.513l.002-.002c.856-1.018 1.357-2.015 1.357-2.015s-6.026-.884-8.56-1.19c-2.531-.307-5.412.576-5.486 1.65 0 0-1.959-.192-2.458 2.879-.497 3.069 2.764 11.974 2.764 11.974l-3.932 6.095s-5.678 5.449-5.678 11.437c0 5.987-1.307 40.219-1.232 40.988.027.259.531.482 1.34.667l-.484.021s-.86 13.434 3.06 15.717h-8.479L264.873 161.5a3.32 3.32 0 0 0-6.56 1.025l9.451 50.029a3.902 3.902 0 0 0 2.612 3.085l-4.814 37.202-31.609.365-4.863-37.567a3.904 3.904 0 0 0 2.613-3.085l9.452-50.029a3.323 3.323 0 0 0-3.281-3.803 3.32 3.32 0 0 0-3.281 2.778l-10.096 46.525h-8.479c3.92-2.284 3.061-15.717 3.061-15.717l-.484-.021c.807-.185 1.312-.408 1.339-.667.074-.768-1.23-35.001-1.23-40.988 0-5.988-5.678-11.437-5.678-11.437l-3.934-6.095s3.262-8.904 2.763-11.974c-.499-3.071-2.458-2.879-2.458-2.879-.074-1.074-2.955-1.957-5.486-1.65-2.534.307-8.56 1.19-8.56 1.19s.5.997 1.356 2.015l.003.002c-.57.277-.989.833-1.051 1.513-.105 1.176-.281 2.678-.456 4.359-.729 1.073-2.393 3.542-2.424 3.84-.023.252 1.177 1.051 2.004 1.568-.037.82-.056 1.648-.056 2.473.009 5.075 8.903 3.286 8.903 3.286l1.698 6.802c-.42.292-.802.576-1.129.845-2.572 2.114-3.941 6.832-3.985 11.371l-5.752 14.39-8.829-1.752a1.111 1.111 0 0 0-1.308.873l-.177.889h-.583l-15.443-1.44-.269 1.44h-6.193l-9.522 3.571v-5.789c0-.29.206-.534.488-.602a4.223 4.223 0 0 0 3.216-4.098v-9.134h-8.444v9.134a4.222 4.222 0 0 0 3.22 4.098c.28.067.486.311.486.602v6.176l-2.361.886a.49.49 0 0 0-.278.645l-.23.083a.249.249 0 0 0-.166.235c0 .054.028.099.059.14h-10.553v-.595h-2.392l-1.895-.684a.544.544 0 0 1-.363-.515v-6.371c0-.29.205-.534.486-.602a4.22 4.22 0 0 0 3.217-4.098v-9.134h-8.444v9.134a4.222 4.222 0 0 0 3.22 4.098c.28.067.484.311.484.602v6.371a.543.543 0 0 1-.361.515l-1.894.684h-18.767v.595h-5.748a2.525 2.525 0 0 0 0 5.048h2.633v11.801l-5.201-.303a.897.897 0 0 0-.535-1.078l-18.518-11.109-3.634-8.424c.871-3.127.797-7.271.576-7.944-.685-2.074-4.052-6.781-6.681-10.272l-.329-9.761s5.105-.533 5.729-1.718c.361-.689.426-2.25.315-4.138a.465.465 0 0 1 .282-.453l.884-.374a.447.447 0 0 0 .206-.682l-1.815-2.718a68.546 68.546 0 0 0-.44-2.68c.092.399.146.674.146.674s2.303-.104 1.552-2.696c-.747-2.59-3.911-4.892-9.036-5.18-5.125-.288-8.061 2.533-9.087 4.548-.657 1.294-.667 3.915-1.089 6.419a4.798 4.798 0 0 0-2.945 4.426c0 .939.28 1.809.746 2.549-.246-.033-.49-.076-.746-.076a5.686 5.686 0 0 0-5.686 5.685c0 1.433.548 2.727 1.422 3.726a8.31 8.31 0 0 0-2.41 5.859 8.338 8.338 0 0 0 8.339 8.338c.342 0 .676-.027 1.007-.066.955 3.558 2.394 7.777 3.44 10.701.816 2.285.856 4.777.114 7.091-1.221 3.836-2.948 9.962-2.948 13.975 0 6.217 4.134 10.65 4.134 10.65h-3.498l-10.096-46.525a3.318 3.318 0 0 0-3.278-2.778 3.318 3.318 0 0 0-3.281 3.803l9.448 50.029a3.911 3.911 0 0 0 2.615 3.085l-5.134 39.669-39.461.456c-19.656.815-16.332 6.569 6.969 32.035 17.13 18.72 88.106 36.09 147.295 38.861 59.192 2.767 96.27 39.963 154.262 14.777 56.151-24.39 154.81-35.891 173.36-65.049 18.55-29.159-17.95-25.995-17.95-25.995zm-40.897-34.544 5.911 34.948-42.222.489c.109-1.062.261-2.062.476-2.681.651-1.882.306-3.877 0-4.76-.151-.431-.376-.888-.685-1.198l6.789-26.798h29.731zm-123.784 0c.871 0 1.575-.706 1.575-1.575v-4.681c0-.657-.403-1.217-.975-1.453 1.479-.035 2.64-.065 3.309-.083a.725.725 0 0 1 .74.637l.651 4.65-2.977 16.824-3.064-14.318h.741zm83.805-4.203s1.26-1.433 2.87-2.499c-.043.144-.091.289-.091.447v4.681c0 .869.705 1.575 1.573 1.575h.742l-4.348 20.328c-.246-5.94-.477-18.239-1.323-20.962-.782-2.517-2.608-5.363-3.462-6.61a.48.48 0 0 1 .333-.748l2.11-.28 1.596 4.068zm-4.205 33.064v-5.818c.43 1.946.676 3.335.635 3.841-.044.543-.281 1.227-.635 1.977zm5.647 5.9c.032.176.064.416.096.701l-.274.003.178-.704zm10.476-58.203 11.9-5.385-.447 2.635-11.453 2.75zm-11.443-17.526 4.302 1.385-.095.29a1.057 1.057 0 0 0 .683 1.334l13.184 3.569-17.019 10.21a.898.898 0 0 0-.534 1.078l-5.202.304v-11.801h2.634a2.524 2.524 0 0 0 0-5.048h-1.142c1.645-.464 3.189-1.321 3.189-1.321zm-79.033 17.726.407-.789c.195.226.42.477.667.742v1.873c-4.273-.613-9.983-1.266-14.79-1.78.294-.255.47-.568.47-.964 0-1.091-.365-3.908-.892-7.512l14.138 8.43zm-94.384 23.242 6.327 37.407-40.273.465c-.095-2.648-.704-5.029-.704-5.029s-.179.056-.473.145a20.32 20.32 0 0 0-.494-2.171c.189-.036.381-.07.566-.109l-1.012-5.724 6.331-24.983h29.732zm-41.945-37.122c0-.267-.052-.519-.129-.761l14.261 1.775a4.071 4.071 0 0 0 2.945-.788l2.914.578c.031.803.059 1.592.087 2.343l.004.001c.143 3.857.246 6.939.246 8.127 0 .911.434 1.531 1.135 1.96-4.822.483-14.856 1.523-21.462 2.471v-15.706zm6.318 37.122h.74l-3.064 14.318-2.975-16.821.651-4.652a.722.722 0 0 1 .738-.637c.669.018 1.83.048 3.311.083a1.574 1.574 0 0 0-.977 1.453v4.681c.001.87.707 1.575 1.576 1.575zm-79.6 28.859c-.354-.749-.591-1.432-.635-1.975-.041-.506.205-1.895.635-3.841v5.816zm-8.557-28.859c.868 0 1.573-.706 1.573-1.575v-4.681c0-.159-.047-.303-.091-.448 1.61 1.067 2.872 2.5 2.872 2.5l1.596-4.068 2.109.28a.481.481 0 0 1 .333.748c-.854 1.247-2.68 4.093-3.46 6.61-.846 2.722-1.079 15.015-1.323 20.957l-4.35-20.323h.741zm3.949 38.866-1.408.016c.082-1.299.229-3.345.369-4.121l1.039 4.105zm55.944-79.107h-4.691l-.106-.039.923-.132c1.562-.223 2.635-.023 3.874.171zm-67.459 16.799-11.453-2.75-.447-2.635 11.9 5.385zM63.565 215.85h29.73l6.789 26.798c-.308.31-.534.767-.685 1.198-.306.884-.651 2.879 0 4.76.468 1.344.64 4.47.7 6.145l-43.198.5 6.664-39.401zm206.675 36.934 6.246-36.933h29.733l6.332 24.986-1.012 5.722c.184.039.375.074.564.109a20.338 20.338 0 0 0-.494 2.172c-.294-.089-.473-.145-.473-.145s-.41 1.594-.609 3.624l-40.287.465z" class="colorcce9ff svgShape"></path><path fill="#333333" fill-rule="evenodd" d="m233.24 261.954-3.476 4.092-5.147 4.525c-.527.372-.763 2.884.151 2.78l5.114.608c1.628.193 3.404-.402 4.909-1.134 1.096-.534 2.181-1.455 3.555-2.3l.538 1.173 4.896-1.61.251-3.514c.75-3.758-.632-4.431-1.019-7.08l-8.451-.122-1.321 2.582zM258.614 260.406l-.171 9.913s2.943 4.977 4.635 5.678c1.843.768 6.552.635 7.952-.793 1.303-1.323.602-7.402.602-7.402l-3.947-8.274-9.071.878z" clip-rule="evenodd" class="color0b4870 svgShape"></path><path fill="#4d4d4d" d="M231.665 155.906s22.758-3.956 33.16-.219c.433.155.85.323 1.249.51l.069.507c.105.768.325 2.371.614 4.551.046.368.097.753.153 1.147 1.479 11.208.54 27.495.965 35.445.553 10.428.681 11.912.681 13.87.005 5.288.456 49.794.456 49.794s-6.634 1.688-11.492 0c0 0-1.735-44.146-2.731-47.415-.995-3.265-4.336-37.755-5.579-37.898-1.244-.141-5.244 36.178-5.508 40.475-.261 4.294 1.282 44.151-.141 44.86-1.418.708-9.777.782-10.202-.637 0 0-.392-40.515-.392-44.776 0-4.259-2.726-37.445-2.605-38.869.001 0-.388-10.423 1.303-21.345z" class="color0e538c svgShape"></path><path fill="#c5c5c5" d="m201.019 126.757-1.485-3.741-.89-5.03h-2.084l-.519 5.03-3.345-2.057-2.155-2.973h-2.304l1.559 2.751-4.162-2.751h-2.6l10.33 8.771 7.212 3.865z" class="colorebbaa0 svgShape"></path><path fill="#f2f2f2" d="m199.476 132.726 23.902 8.884a2.553 2.553 0 0 0 3.189-1.286l5.764-12.066.084-.181.315-.657a698.495 698.495 0 0 0-.136-3.562c-.136-3.176-.264-5.281-.264-5.281-.279-3.78-.479-7.315-.596-10.631-.077.054-.146.103-.215.154l-.01.003c-.453.316-.801.594-.934.797-.499.747-8.198 18.756-9.831 22.58a.792.792 0 0 1-1.021.428l-17.333-6.811a1.528 1.528 0 0 0-1.989.877l-1.822 4.773a1.526 1.526 0 0 0 .897 1.979z" class="colorf2f2f2 svgShape"></path><path fill="#d3d3d3" d="M219.726 131.292v28.088a.705.705 0 0 1-.706.704h-9.649a.704.704 0 0 1-.704-.704v-31.482c0-.974.988-1.637 1.889-1.269l8.318 3.396c.514.208.852.711.852 1.267z" class="colord3d3d3 svgShape"></path><path fill="#aaaaaa" d="M189.775 100.195a2.251 2.251 0 1 0 4.504 0 2.254 2.254 0 0 0-2.252-2.252 2.25 2.25 0 0 0-2.252 2.252z" opacity=".5" class="colorffbe55 svgShape"></path><path fill="#aaaaaa" d="M192.028 101.119c8.799 0 15.935 7.134 15.935 15.935H176.09c0-8.8 7.136-15.935 15.938-15.935z" class="colorffbe55 svgShape"></path><path fill="#4d4d4d" d="M195.857 115.577h22.569l-1.784 2.409h-49.231l-1.781-2.409z" class="color0e538c svgShape"></path><path fill="#f2f2f2" d="m260.213 100.712 1.413.536a43.066 43.066 0 0 0-1.413-.536zM242.036 102.732l.973 5.862 3.847 33.177 6.209-24.372 6.931-16.768c-.092-.036-.184-.067-.264-.099-.059-.019-.113-.04-.164-.059-.151-.059-.274-.104-.358-.135-.87-.315-1.477-.509-1.648-.517-.115-.01-.422.004-.862.036a30.577 30.577 0 0 0-.056 1.021c-1.625 1.161-6.913 1.813-6.913 1.813s-2.777.671-2.862-.809c-.002-.005-.002-.005 0-.01a.213.213 0 0 1 .01-.171c.067-.157.225-.621.315-1.016l-.417.04s-.694.239-1.61.607l-.008.005c-.399.157-.834.346-1.282.549-.553.253-1.178.54-1.841.846zM267.943 159.088c.187.765.317 1.234.358 1.301l-.358-1.301zm-1.756-8.826c6.24-3.194 20.214-10.576 20.01-12.601-.187-1.894-11.062-30.551-12.654-31.694-.453-.324-2.337-1.076-4.53-1.912l-1.236 20.564s-2.216-6.644 1.236.621c1.042 2.193 3.604 5.362 4.883 8.173.952 2.074-3.88 5.034-8.392 7.445-.251 2.305.13 5.913.683 9.404z" class="colorf2f2f2 svgShape"></path><path fill="#c7c7c7" d="M246.868 101.873c-.002.005-.002.005 0 .01.085 1.48 2.862 3.347 2.862 3.347s5.288-3.19 6.913-4.351c0 0 .01-.337.056-1.021.112-1.485.432-4.59 1.336-9.339.353-1.854-10.775 4.885-10.775 4.885s.031.648.054 1.53c.015.463.023.99.015 1.515 0 .185 0 .369-.005.553-.01.491-.033.963-.072 1.359-.01.094-.033.207-.059.324-.09.396-.248.859-.315 1.016a.438.438 0 0 0-.01.172z" class="colorf1b99e svgShape"></path><path fill="#c7c7c7" d="M246.868 101.873a.413.413 0 0 1 .01-.171.213.213 0 0 0-.01.171zM241.402 78.344s-2.447 4.533-1.236 5.238c1.003.583-1.172 5.029-1.456 5.756-.284.728 1.814 1.255 2.26 1.724.445.466 1.766 6.222 3.494 6.396 1.728.175 9.511-2.533 11.633-4.738 2.119-2.205 3.86-12.16 2.444-16.359-1.417-4.201-12.827-5.933-17.139 1.983z" class="colorf1b99e svgShape"></path><path fill="#d6d6d6" d="M240.483 80.323s-2.634-7.515 1.684-8.975c5.503-1.859 13.672 2.196 14.614 2.438.942.244 6.286.61 3.588 9.994-2.316 8.058-2.641 8.397-2.641 8.397s-1.73-4.666-2.708-5.38c-1.533-1.11-4.888-.843-4.888-.843s1.6-4.245-.898-4.847c-2.499-.6-2.806 2.998-8.751-.784z" class="colorfcd2b1 svgShape"></path><path fill="#bababa" d="M252.794 83.524c.22-.583.932-3.087 3.082-1.616 2.147 1.469-1.339 6.188-1.712 6.247-.377.063-3.223.268-1.37-4.631z" class="coloreea886 svgShape"></path><path fill="#838383" d="M247.329 98.45c0 .186-.003.371-.005.555 6.365-2.137 7.599-5.353 7.599-5.353-1.984 1.405-7.607 3.281-7.607 3.281.011.464.018.989.013 1.517z" class="colora77860 svgShape"></path><path fill="#f2f2f2" d="M262.374 101.536c.031.014.059.023.079.036.159.064.325.125.494.194l.532.207c.028.009.059.018.085.031.972.369 2.099.793 3.235 1.214l-4.425-1.682z" class="colorf2f2f2 svgShape"></path><path fill="#aaaaaa" d="M230.45 161.869c.294.081 1.134.963 3.005 1.868.346.166.729.332 1.152.497 2.933 1.135 7.742 2.062 15.497 1.072a70.393 70.393 0 0 0 5.354-.899s9.564-1.949 12.469-3.743c.146-.091.271-.181.379-.265 0 0-.005-.005-.005-.009-.041-.068-.171-.536-.358-1.301l-.015-.067a122.181 122.181 0 0 1-1.74-8.76c-.553-3.491-.934-7.099-.683-9.403.051-.436.102-.9.159-1.39.538-4.746 1.392-11.787 1.991-14.378a6.66 6.66 0 0 1 .123-.472l1.236-20.564-1.039-.396c-.23-.081-.458-.171-.683-.257-.161-.062-.33-.12-.491-.184a496.79 496.79 0 0 1-3.235-1.214c-.026-.014-.056-.022-.085-.031l-.532-.207c-.169-.068-.335-.13-.494-.194-.02-.013-.049-.022-.079-.036-.033-.009-.059-.022-.095-.036l-.653-.251-1.413-.536-.217-.081-6.931 16.768-4.197 15.78-5.859-24.585-.973-5.862c-2.114.976-4.65 2.151-6.729 3.132-.01.004-.013.009-.023.009a.33.33 0 0 0-.026.014c-.015.004-.023.013-.036.018-.028.013-.059.032-.095.049a66.543 66.543 0 0 0-2.378 1.355l-.52.319c-.171.109-.34.217-.496.32a280 280 0 0 0 .596 10.631s.128 2.105.264 5.281c.044 1.075.09 2.276.136 3.562l-.315.657-.084.181c.169 7.045.228 14.725-.046 21.028a297.289 297.289 0 0 1-1.804 12.394c0 .004-.005.004-.005.004-.004.06-.02.119-.027.182z" class="colorffbe55 svgShape"></path><path fill="#333333" d="M250.72 104.674s1.651-2.326 3.263-2.185c2.309.203 1.866 5.274.448 5.469-1.656.227-3.711-1.752-3.711-1.752s.405-.993 0-1.532zM249.21 104.674s-1.651-2.326-3.266-2.185c-2.309.203-1.866 5.274-.45 5.469 1.658.227 3.716-1.752 3.716-1.752s-.407-.993 0-1.532z" class="color0b4870 svgShape"></path><path fill="#333333" d="M248.563 105.372a1.55 1.55 0 0 0 3.097 0 1.548 1.548 0 1 0-3.097 0z" class="color0b4870 svgShape"></path></svg>