<svg xmlns="http://www.w3.org/2000/svg" data-name="Layer 1" viewBox="0 0 700 550" id="couple-eating-sweets-and-snacks"><path d="M474.08617,438.14452l-15.09259,8.00588-8.73206-4.9083.72618-12.15132a22.23509,22.23509,0,0,0,4.05343,1.25,24.13909,24.13909,0,0,0,4.219.56987,18.54068,18.54068,0,0,0,4.274-.27579,11.45509,11.45509,0,0,0,3.96165-1.54413,17.5758,17.5758,0,0,1-4.05365.96516,29.70733,29.70733,0,0,1-4.14522.101c-1.38817-.0459-2.76691-.22059-4.15464-.386-1.38794-.18379-2.76669-.41358-4.15463-.68017,0,0-4.71543-.193-5.90119-1.11216,1.13976,6.62714-2.1047,13.43806-2.1047,13.43806v11.10357l-15.46039,5.09221-8.36448-4.91762.91-12.7304a16.6888,16.6888,0,0,0,3.82386,2.6932,17.51365,17.51365,0,0,0,4.43021,1.60854,14.22033,14.22033,0,0,0,4.70623.26659,13.37328,13.37328,0,0,0,4.50381-1.29616c-.78115.138-1.49813.42289-2.27031.48718l-1.13055.1747-1.13975.05509a18.15627,18.15627,0,0,1-4.513-.42278,25.10492,25.10492,0,0,1-4.33842-1.39714c-.70778-.30329-1.39715-.63417-2.06812-1.00186a21.8473,21.8473,0,0,1-2.00394-1.16736s-2.00371-1.81992-13.64025-1.81992l.0184-3.96154s21.26015,7.05912,36.53676-11.49875a10.63878,10.63878,0,0,1,.56977.91,46.36475,46.36475,0,0,0,29.26626-13.82426c.18378,5.0922.91,12.97858-.72618,16.22315Z"></path><path d="M594.91941 436.80246a4.52858 4.52858 0 01-5.25759-3.70414L567.4641 304.68192a5.46262 5.46262 0 01-.0644-.77212c0-8.48386 9.72483-43.73377 13.36468-53.91812 2.26111-6.33305 6.471-18.12589 2.78509-25.4884-1.51675-3.04243-4.32922-5.15655-8.57587-6.47095-15.51538-4.798-34.156 5.90108-47.76891 13.714-2.13253 1.22245-4.13624 2.3714-6.01137 3.39172-8.26328 4.51306-21.86694 8.70445-37.61211 13.55766-12.01354 3.7042-25.63561 7.90479-39.00028 12.905-27.13351 10.14755-34.59723 45.25042-35.112 47.82406L398.145 418.024v.0092a74.54746 74.54746 0 00-1.56254 9.38463 73.04079 73.04079 0 00-.478 9.734 72.90988 72.90988 0 001.60854-9.61453 76.84589 76.84589 0 00.49616-8.98013 87.364 87.364 0 0111.67333 2.67468s-3.03306 3.03329-3.43744 12.9511c-.046 1.21325-.0552 2.5277-.0184 3.96154a54.8897 54.8897 0 01-10.28561-.98346l-1.93011 18.55786a4.55575 4.55575 0 01-4.52221 4.07184 4.30846 4.30846 0 01-.478-.02749 4.53653 4.53653 0 01-4.04445-4.99111l2.10492-20.2951c.0092.1195.0092.22979.0092.34929a71.30726 71.30726 0 001.76472-9.596 72.99482 72.99482 0 00.6436-9.734 73.299 73.299 0 00-1.76495 9.596 77.267 77.267 0 00-.65257 9.33874c-4.86241-2.23362-8.43786-5.54247-8.86064-10.1108-.44118-4.77041 4.31082-6.44324 10.607-6.51684L400.44289 308.285c.01817-.1195.0276-.22979.046-.34009.32157-1.73723 8.08846-42.58481 40.90279-54.86489 13.61264-5.09214 27.3725-9.33868 39.51462-13.07968 15.27661-4.70611 28.4667-8.778 35.93019-12.84989 1.78312-.96517 3.75946-2.09572 5.83678-3.29062 15.065-8.64937 35.691-20.479 54.98444-14.52278 6.65451 2.05892 11.36994 5.79072 14.02623 11.09431 5.4232 10.83693.3678 25.00121-2.35289 32.62112-3.96165 11.08511-12.53752 43.32939-12.83172 50.50806l22.12434 127.9935A4.54278 4.54278 0 01594.91941 436.80246zM456.081 130.01247a8.35924 8.35924 0 001.47143-1.8919 12.27319 12.27319 0 00.97189-2.14627 19.11346 19.11346 0 00.63978-2.2937l.23855-1.18739c.07607-.40011.12611-.804.2253-1.21179.07271.40837.09649.8206.14541 1.23659-.00067.41352.00876.83187-.024 1.24775a9.84734 9.84734 0 01-.51052 2.46027 7.907 7.907 0 01-1.20057 2.22772A4.882 4.882 0 01456.081 130.01247zM443.56549 101.36316a4.90428 4.90428 0 014.69142-.83535 3.94266 3.94266 0 011.41218.83535 13.98306 13.98306 0 00-3.04495-.34407A17.01345 17.01345 0 00443.56549 101.36316zM444.62155 107.41175a1.13754 1.13754 0 000-2.27371 1.13754 1.13754 0 000 2.27371z"></path><path d="M474.62105,247.08523l-.65-4.93v-.01l-.7-5.23c-.48-3.39-.95-6.77-1.61-10.16l-.04-.24-.22-.13995a40.01489,40.01489,0,0,1-5.54-4.37,38.57846,38.57846,0,0,1-4.7-5.28,27.594,27.594,0,0,1-3.35-6.18,21.73144,21.73144,0,0,1-1.31-6.86v-.07l-.02-.36-.42.01a41.94449,41.94449,0,0,1-8.99-.8,45.39807,45.39807,0,0,1-8.68-2.6,22.66558,22.66558,0,0,1-2.08-.92c1.1.56,2.22,1.08,3.36,1.54a40.11824,40.11824,0,0,0,7.12,2.18c1.21.3,2.45.45,3.68994.63,1.24.17,2.56006.22,3.79.34-.04.15-.08.3-.12.43006q.765.045,1.53.03a22.33709,22.33709,0,0,0,1.26,6.77,28.95568,28.95568,0,0,0,3.4,6.44,36.51154,36.51154,0,0,0,2.33,2.93q.27007.315.57.63c.59.66,1.22,1.31,1.87,1.93a40.08124,40.08124,0,0,0,5.44,4.42c.58,3.26,1.01,6.57,1.44,9.87l.66,5.48.56,4.69.19,1.67.07995.76.24,2.07c.48-.15.96-.3,1.43-.45C474.981,249.89522,474.801,248.49526,474.62105,247.08523Zm0,0-.65-4.93v-.01l-.7-5.23c-.48-3.39-.95-6.77-1.61-10.16l-.04-.24-.22-.13995a40.01489,40.01489,0,0,1-5.54-4.37,38.57846,38.57846,0,0,1-4.7-5.28,27.594,27.594,0,0,1-3.35-6.18,21.73144,21.73144,0,0,1-1.31-6.86v-.07l-.02-.36-.42.01a41.94449,41.94449,0,0,1-8.99-.8,45.39807,45.39807,0,0,1-8.68-2.6,22.66558,22.66558,0,0,1-2.08-.92c1.1.56,2.22,1.08,3.36,1.54a40.11824,40.11824,0,0,0,7.12,2.18c1.21.3,2.45.45,3.68994.63,1.24.17,2.56006.22,3.79.34-.04.15-.08.3-.12.43006q.765.045,1.53.03a22.33709,22.33709,0,0,0,1.26,6.77,28.95568,28.95568,0,0,0,3.4,6.44,36.51154,36.51154,0,0,0,2.33,2.93q.27007.315.57.63c.59.66,1.22,1.31,1.87,1.93a40.08124,40.08124,0,0,0,5.44,4.42c.58,3.26,1.01,6.57,1.44,9.87l.66,5.48.56,4.69.19,1.67.07995.76.24,2.07c.48-.15.96-.3,1.43-.45C474.981,249.89522,474.801,248.49526,474.62105,247.08523Zm87.41,26.72a334.3565,334.3565,0,0,0-2.34-34.09q-1.275-10.77-3.34-21.43-.855-4.485-1.89-8.94c-.24-1.08-.5-2.16-.76-3.24-1.37-5.53-2.95-11.01-4.84-16.38a117.37983,117.37983,0,0,0-6.71-15.71c-.66-1.26-1.39-2.49-2.08-3.74-.72-1.23-1.52-2.41-2.27-3.63-1.6-2.36-3.19995-4.71-4.83-7.04-3.32-4.63-6.68-9.23-10.36-13.59a89.60984,89.60984,0,0,0-12.05-12.2,33.10773,33.10773,0,0,0-7.41-4.52,23.79088,23.79088,0,0,0-4.18-1.3c-1.43-.27-2.71-.59-4.15-.94a16.03615,16.03615,0,0,0-4.42-.33,34.08055,34.08055,0,0,0-4.31.56c-2.83.54-5.6,1.24-8.35,1.98q-.48.135-.96.27c-2.43.67-4.85,1.39-7.25,2.11a78.88165,78.88165,0,0,0-8.15,2.75,29.95525,29.95525,0,0,0-3.16,1.56995,43.90329,43.90329,0,0,0-4.28,2.82,48.02878,48.02878,0,0,0-6.42,5.75,67.84726,67.84726,0,0,0-5.5,6.59c-1.71,2.29-3.28,4.68-4.77,7.12a123.859,123.859,0,0,0-7.81,15.2,141.96094,141.96094,0,0,0-5.9,16.06c.95,1.08,1.93994,2.13995,2.97,3.12994a3.49616,3.49616,0,0,0,.34.33,1.21194,1.21194,0,0,0,.16.16.92427.92427,0,0,1,.1.1h.02a.30416.30416,0,0,0,.08.08,28.73729,28.73729,0,0,0,3.03,2.48,44.49868,44.49868,0,0,0,3.82,2.55c1.36.7,2.69,1.47,4.11,2.04a44.0427,44.0427,0,0,0,5.22,1.91c.19.06.38.11.57.16.98.29,1.97.53,2.97.73a42.73834,42.73834,0,0,0,7.05.88.97015.97015,0,0,0,.17005.01q.765.045,1.53.03a22.33709,22.33709,0,0,0,1.26,6.77,28.95568,28.95568,0,0,0,3.4,6.44,36.51154,36.51154,0,0,0,2.33,2.93q.27007.315.57.63c.59.66,1.22,1.31,1.87,1.93a40.08124,40.08124,0,0,0,5.44,4.42c.58,3.26,1.01,6.57,1.44,9.87l.66,5.48.56,4.69.19,1.67.07995.76.24,2.07,1.76,15.72.02.1v.04l.04.29.2.18,2.15,1.89,1.09.93,1.14.86c.2.15.39.29.58.44.08.06.15.11005.22.17005.5.37.99.75,1.5,1.1l2.41,1.54a55.44485,55.44485,0,0,0,10.3,4.95,63.7942,63.7942,0,0,0,11.04,2.88c.29.05.58.09.87.14a.12684.12684,0,0,1,.06.01q3.81.555,7.63995.75c.93.05,1.85.08,2.78.09,2.14.01,4.28-.04,6.42-.18a102.11989,102.11989,0,0,0,16.15-2.28,113.44761,113.44761,0,0,0,20.82-6.67005c.25-.1.51-.22.76-.32995l.04-.02h.01l.32-.15Zm-1.26-.01v-.41a104.91912,104.91912,0,0,1-10.14,3.72q-5.355,1.695-10.85,2.87a103.00949,103.00949,0,0,1-15.61,2.16c-2.2.12006-4.41.18006-6.62.15-.86-.02-1.72-.05-2.58-.1a67.57113,67.57113,0,0,1-19.3-3.71,53.99,53.99,0,0,1-10.03-4.79l-2.34-1.5c-.77-.52-1.49-1.1-2.24-1.65l-1.11-.83-1.05-.91-1.89-1.65.03.3-.24-.48.21.18c-.6-5.29-1.2-10.57-1.86-15.84-.17005-1.41-.35-2.81-.53-4.22l-.65-4.93v-.01l-.7-5.23c-.48-3.39-.95-6.77-1.61-10.16l-.04-.24-.22-.13995a40.01489,40.01489,0,0,1-5.54-4.37,38.57846,38.57846,0,0,1-4.7-5.28,27.594,27.594,0,0,1-3.35-6.18,21.73144,21.73144,0,0,1-1.31-6.86v-.07l-.02-.36-.42.01a41.94449,41.94449,0,0,1-8.99-.8,45.39807,45.39807,0,0,1-8.68-2.6,22.66558,22.66558,0,0,1-2.08-.92c-.05-.02-.1-.05-.15-.07-.63-.31-1.25-.63-1.88-.94a43.44917,43.44917,0,0,1-3.83-2.43,31.09612,31.09612,0,0,1-3.84-3.09c-1.01-.95-1.97-1.94-2.92-2.94a146.63259,146.63259,0,0,1,14.29-30.78c1.51-2.39,3.1-4.74,4.83-6.98a66.12988,66.12988,0,0,1,5.51-6.42c.96-1.03,2.01-1.96,3.04-2.93,1.07-.9,2.13-1.83,3.28-2.64a35.13183,35.13183,0,0,1,7.23-4.22,80.97715,80.97715,0,0,1,8.02-2.65c2.72-.8,5.45-1.59,8.19-2.32,2.74-.72,5.49-1.4,8.25-1.91a20.32058,20.32058,0,0,1,8.2-.27c1.33.31,2.81.67,4.17.92a21.58613,21.58613,0,0,1,3.96,1.21,31.96526,31.96526,0,0,1,7.13,4.31,89.47929,89.47929,0,0,1,12.06,11.86c3.72,4.28,7.13995,8.82,10.52,13.38q2.49,3.465,4.92,6.96c.75995,1.19,1.55,2.36,2.28,3.58.69,1.24,1.43,2.45,2.09,3.7a117.79983,117.79983,0,0,1,6.77,15.6c1.86005,5.37,3.41,10.84,4.75,16.36.26,1.08.52,2.16.76,3.25.67,2.97,1.27,5.96,1.82,8.96,1.3,7.08,2.27,14.22,3.06,21.37a333.64148,333.64148,0,0,1,1.95,33.56994c.12-.05.24-.11.36-.16Zm-86.15-26.71-.65-4.93v-.01l-.7-5.23c-.48-3.39-.95-6.77-1.61-10.16l-.04-.24-.22-.13995a40.01489,40.01489,0,0,1-5.54-4.37,38.57846,38.57846,0,0,1-4.7-5.28,27.594,27.594,0,0,1-3.35-6.18,21.73144,21.73144,0,0,1-1.31-6.86v-.07l-.02-.36-.42.01a41.94449,41.94449,0,0,1-8.99-.8,45.39807,45.39807,0,0,1-8.68-2.6,22.66558,22.66558,0,0,1-2.08-.92c1.1.56,2.22,1.08,3.36,1.54a40.11824,40.11824,0,0,0,7.12,2.18c1.21.3,2.45.45,3.68994.63,1.24.17,2.56006.22,3.79.34-.04.15-.08.3-.12.43006q.765.045,1.53.03a22.33709,22.33709,0,0,0,1.26,6.77,28.95568,28.95568,0,0,0,3.4,6.44,36.51154,36.51154,0,0,0,2.33,2.93q.27007.315.57.63c.59.66,1.22,1.31,1.87,1.93a40.08124,40.08124,0,0,0,5.44,4.42c.58,3.26,1.01,6.57,1.44,9.87l.66,5.48.56,4.69.19,1.67.07995.76.24,2.07c.48-.15.96-.3,1.43-.45C474.981,249.89522,474.801,248.49526,474.62105,247.08523Z"></path><path d="M464.81218 163.29968c.00785 3.339-.07046 6.67162-.20713 9.99977-.14182 3.32776-.31775 6.65294-.55607 9.97347q-.33021 4.9828-.79844 9.95523c-.298 3.316-.66356 6.62691-1.06659 9.935l-.04107.33588-.29666.00853c-1.922.05543-3.8389.16381-5.7652.17329 1.89353-.35433 3.79649-.6097 5.69428-.91809l-.3375.34418c.09717-3.33113.23158-6.65945.43377-9.98267q.28983-4.98583.70239-9.96247c.26188-3.31873.58615-6.63274.94452-9.94418C463.882 169.9065 464.3039 166.59984 464.81218 163.29968zM464.35947 114.49144s-1.18712 4.434 8.583 9.18945c7.895 3.84276 7.09289-5.40423 13.08-14.76 4.0007-6.25169 5.13891-12.0553-8.08411-24.46215-18.92831-17.76-28.26916 0-28.26916 0s5.59334 25.636 9.95887 18.26916c0 0 6.00261-4.63838 5.45692 6.82115zM432.87819 254.88006l-.11848-.74861c20.84006-3.29876 41.17207-5.25916 41.37494-5.278l.07181.754C474.00359 249.62719 453.69492 251.5858 432.87819 254.88006zM446.44641 318.579l6.034 14.84676 5.98691 14.86527 11.85555 29.77644.71047 1.7847-1.67474-1.01678a16.847 16.847 0 00-4.1304-1.703l-1.10094-.28915-1.12225-.20241a21.07481 21.07481 0 00-2.26447-.27759 29.05233 29.05233 0 00-9.08415.85352l-2.21914.60264-2.16057.80248-1.08029.40034-1.043.49537-2.08674.98918c-1.3599.72247-2.67648 1.53314-4.01349 2.30038l-3.814 2.6371-.47439.32819-.45038-.36107a8.51369 8.51369 0 00-2.15227-1.11226l-1.214-.33168-1.252-.17514c-.41964-.037-.84668-.00449-1.26924-.01257-.21161.007-.42412-.01548-.63529.01189l-.63327.09571c-.42166.068-.84668.11456-1.2661.19692l-1.23692.37722a26.42915 26.42915 0 00-8.89295 5.4811 60.3307 60.3307 0 00-7.11679 7.9785l-1.59081 2.1672-.79574 1.08354-.72864 1.13268L402.6268 406.844l-.83277 1.302-.38149-1.47457q-2.23507-8.6372-4.41472-17.289l-4.36513-17.30187-4.31846-17.31387L384.0631 337.4356l4.7455 17.20268 4.67773 17.22008 4.63127 17.232q2.33235 8.61177 4.58146 17.245l-1.214-.17257 2.91457-4.60928.73223-1.1503.80248-1.10553 1.60584-2.21118a61.66906 61.66906 0 017.2557-8.21166 27.834 27.834 0 019.403-5.83779l1.35474-.41683c.46429-.095.93958-.15316 1.40926-.22968l.70665-.10693c.2363-.03007.47866-.01223.71788-.01863.47955.009.96045-.01974 1.43843.02458a10.42052 10.42052 0 015.4544 1.99933l-.92455-.03287 3.91879-2.6803c1.37784-.78373 2.73393-1.608 4.138-2.34413l2.15833-1.0105 1.07916-.50458 1.12136-.41032 2.24293-.81886 2.31182-.61632a30.40988 30.40988 0 019.51882-.84186 21.48384 21.48384 0 019.23944 2.73909l-.964.76791-11.41976-29.94631-5.65074-14.99622zM375.87792 305.76277c-.70373-2.10363-1.31412-4.23368-1.97477-6.35336a26.29668 26.29668 0 01-.88909-6.67437 31.87573 31.87573 0 012.56338-13.20715 28.04312 28.04312 0 018.17576-10.6896c.9158-.65806 1.78424-1.38014 2.7337-1.978l2.92041-1.665a48.21256 48.21256 0 016.229-2.39059l-1.50306.70935-.75378.34148-.72663.39787c-.96561.53415-1.93706 1.048-2.88585 1.59216l-2.71844 1.83418c-.875.64752-1.68551 1.37846-2.52882 2.05931a11.073 11.073 0 00-1.16714 1.12971l-1.13728 1.15748a11.19725 11.19725 0 00-1.04416 1.237l-1.0013 1.27143c-.63282.87153-1.17767 1.80556-1.77257 2.703-.47776.966-1.008 1.90755-1.43193 2.89752a29.981 29.981 0 00-1.13953 3.02733l-.47372 1.54986-.3595 1.58178c-.28028 1.04791-.38261 2.13011-.56168 3.20013-.06418.53829-.09066 1.08068-.14407 1.62116a15.21087 15.21087 0 00-.09448 1.62632 29.27464 29.27464 0 00.43041 6.50045C375.03887 301.41385 375.505 303.5751 375.87792 305.76277zM553.73567 297.176h-.21274l-.00359-.38059-.32045-.19568a58.26277 58.26277 0 007.821-22.8283l.7558.061a59.09058 59.09058 0 01-7.92869 23.16221zM417.88276 290.99147c4.12726.74036 8.24577 1.50682 12.37954 2.18952 4.12457.72713 8.25363 1.42508 12.39076 2.06582 8.27248 1.28146 16.55325 2.50357 24.86634 3.36394 4.154.44371 8.31713.791 12.48165.97364a82.33449 82.33449 0 0012.448-.23675 22.57319 22.57319 0 005.96132-1.373 7.12414 7.12414 0 002.44714-1.608c.14564-.18592.29958-.369.42951-.56534.1066-.2175.2298-.39029.33033-.64331l.62586-1.44163c1.714-3.82578 3.37977-7.67141 5.13642-11.47968-1.43889 3.93932-2.96821 7.84123-4.44951 11.763l-.57223 1.46374c-.08416.23815-.24169.51209-.36309.76572-.14878.24449-.32539.47254-.49683.70105a7.99764 7.99764 0 01-2.69938 1.91961 23.5508 23.5508 0 01-6.19739 1.65393 74.133 74.133 0 01-12.65421.515c-4.21052-.141-8.40443-.47961-12.58555-.90127-8.35617-.90329-16.66051-2.16893-24.90561-3.72681Q436.273 295.218 430.1207 293.906C426.03024 292.97723 421.93709 292.06541 417.88276 290.99147zM476.27143 267.5267c-8.77649.596-17.553.733-26.32946.75743-8.77649-.02132-17.553-.15782-26.32947-.75743 8.77649-.59967 17.553-.73616 26.32947-.75748C458.71846 266.79374 467.49494 266.93068 476.27143 267.5267z"></path><path d="M434.7991 384.85041c-.607-2.95519-1.118-5.92441-1.67967-8.88622l-1.523-8.90923c-1.01319-5.93978-1.90857-11.89684-2.80372-17.854-.85925-5.96239-1.71558-11.92523-2.45589-17.90518l-1.105-8.97066c-.31349-2.99828-.6786-5.989-.94654-8.99394.60791 2.955 1.11911 5.92425 1.68169 8.88589l1.52349 8.90911c1.01207 5.94 1.90812 11.897 2.801 17.85441.85746 5.96278 1.71424 11.92557 2.4532 17.90563l1.10565 8.9706C434.16471 378.85486 434.52982 381.84562 434.7991 384.85041zM480.7344 271.30608c.47484 2.69168.94295 5.3593 1.46941 8.00908.53678 2.64624 1.11238 5.27672 1.85471 7.84941a37.38412 37.38412 0 002.854 7.42916c1.2376 2.29208 2.94375 4.4908 5.59353 5.33451a7.0603 7.0603 0 01-3.82432-1.57348 12.779 12.779 0 01-2.784-3.15356 24.14339 24.14339 0 01-1.93841-3.70179c-.52376-1.28512-.96225-2.59766-1.35743-3.91918a51.90816 51.90816 0 01-1.56208-8.08241A48.42631 48.42631 0 01480.7344 271.30608zM408.40052 397.11494c1.07894 2.07328 2.04815 4.19817 2.96148 6.35157.91131 2.15384 1.76517 4.33853 2.46262 6.58808a29.12323 29.12323 0 011.44764 7.00133 11.04929 11.04929 0 01-.07765 1.89286c-.04376.32259-.142.65538-.21812.98234a4.72659 4.72659 0 01-.47529.98031 3.22257 3.22257 0 01-1.8657 1.36147 5.40435 5.40435 0 01-2.10672.02053l-.94946-.21745-.82962-.2354-1.66846-.44421c-1.11417-.29161-2.24091-.5361-3.36338-.7935-2.25124-.48853-4.51863-.90951-6.79612-1.21167a61.533 61.533 0 00-6.83336-.574 24.60448 24.60448 0 00-6.65182.60331 7.81043 7.81043 0 00-2.817 1.287 3.69743 3.69743 0 00-1.40926 2.43042 7.42054 7.42054 0 00.327 3.11373 9.50729 9.50729 0 001.49857 2.88653 16.08655 16.08655 0 005.17905 4.26953 31.0756 31.0756 0 006.39578 2.55519 49.39373 49.39373 0 0013.71632 1.78324c2.33516-.00876 4.6784-.00337 7.02523.15966 1.17341.09223 2.3484.20062 3.52383.40236.58794.10525 1.17589.22 1.76517.385q.44163.11865.88775.28219c.15013.06171.29734.11343.45173.19141a2.6289 2.6289 0 01.23428.12051 1.71133 1.71133 0 01.28948.19478l.22957.18592-.01728.344c-.21476 4.25046-.40034 8.503-.65616 12.7507l-.44545-.84657 8.43337 4.79812-.85-.09066 15.41866-5.22236-.80674 1.115c-.04241-3.69853-.03658-7.39707-.04107-11.0956l-.00022-.25852.118-.26334a28.86342 28.86342 0 001.49476-4.3851 25.49506 25.49506 0 00.74749-4.58359 18.06907 18.06907 0 00-.32785-4.53321 13.26728 13.26728 0 00-1.6974-4.10381l-.11557-.1876-.03366-.13-2.49157-9.61577q-1.24074-4.80777-2.34683-9.65133c-.74593-3.22639-1.48714-6.45479-2.13746-9.70541q-.49011-2.43654-.9057-4.89136c-.11737-.8238-.27512-1.636-.35883-2.46667l-.12566-1.243c-.0202-.4202-.00427-.84769-.00674-1.26564l.22643.01952c.03815.40741.05587.80876.10839 1.21089l.22485 1.21246c.14811.80663.35142 1.61022.524 2.414.38665 1.604.79147 3.20372 1.22458 4.7979.85341 3.19037 1.714 6.37973 2.62554 9.55641l2.72607 9.5315 2.77208 9.51579-.14923-.31731a15.20368 15.20368 0 012.15721 4.806 20.344 20.344 0 01.45038 5.16671 27.87035 27.87035 0 01-.74929 5.0471 27.48929 27.48929 0 01-1.6413 4.8449l.11759-.52151c-.00449 3.69853.00157 7.39707-.04084 11.0956l-.00988.86-.79709.25515-15.5037 4.96373-.458.14665-.392-.23742-8.301-5.02409-.491-.29712.04555-.54968c.3503-4.24081.77106-8.47668 1.16264-12.71457l.21207.52959a2.42126 2.42126 0 00-.224-.13262c-.10255-.05958-.22867-.10973-.34513-.1646-.245-.10211-.50065-.197-.7659-.27849-.52645-.1701-1.07827-.30048-1.63232-.4221-1.113-.236-2.2555-.38643-3.39929-.52085-2.2941-.24527-4.61175-.36051-6.9339-.3853a57.9222 57.9222 0 01-13.90953-1.88119 35.33946 35.33946 0 01-6.61816-2.46184 17.31384 17.31384 0 01-5.72323-4.30443 9.87967 9.87967 0 01-2.40652-6.9542 5.35855 5.35855 0 011.8464-3.54841 9.44873 9.44873 0 013.4058-1.77662 19.20111 19.20111 0 013.60574-.67512 28.1969 28.1969 0 013.59453-.14687 53.07491 53.07491 0 017.08245.59557c2.33673.33851 4.6481.7963 6.94242 1.32287q1.71906.40342 3.41837.88606l1.6956.49807.84444.263.74884.19119a4.8705 4.8705 0 00.71518.0901 4.31669 4.31669 0 00.64472-.04353 1.55925 1.55925 0 00.9039-.62576 5.11363 5.11363 0 00.61914-2.87721 30.63276 30.63276 0 00-1.08343-6.70724 112.29528 112.29528 0 00-4.45781-13.17764z"></path><path d="M421.3386 419.04707c.0312.50749.08034.98907.12836 1.45258a5.67417 5.67417 0 00.28634 1.31187 2.70988 2.70988 0 00.66963 1.05089 4.36451 4.36451 0 001.18957.73212 2.2627 2.2627 0 01-1.53628-.2529 2.44142 2.44142 0 01-1.03518-1.27238A3.75887 3.75887 0 01421.3386 419.04707zM386.37335 434.19689a38.73566 38.73566 0 012.97023-16.562l.684.32673a37.93945 37.93945 0 00-2.89662 16.20475zM437.52765 382.93006a71.52478 71.52478 0 013.25522 7.35174q1.44438 3.734 2.65381 7.54237c.39832 1.27092.78834 2.54442 1.149 3.82735l.52668 1.929a7.98539 7.98539 0 01.24191 1.10183 6.24406 6.24406 0 01.02872 1.16657 5.90844 5.90844 0 01-1.89981 4.0044 16.94654 16.94654 0 01-1.68439 1.20394c-.56236.36813-1.12808.73279-1.71333 1.07467.419-.533.85745-1.04326 1.2993-1.55.42458-.50727.94408-1.002 1.27238-1.47973a5.03247 5.03247 0 00.95148-3.2697 5.71976 5.71976 0 00-.3954-1.65061l-.68-1.8804c-.44365-1.25656-.85768-2.52254-1.26363-3.79111q-1.20876-3.80855-2.17157-7.695A71.56113 71.56113 0 01437.52765 382.93006zM452.807 410.86167a3.65421 3.65421 0 001.21336 2.14509 3.4881 3.4881 0 001.09038.49088c.4147.10345.857.17908 1.33409.27445a6.67657 6.67657 0 01-.682.2418 4.4464 4.4464 0 01-.73066.07 2.65577 2.65577 0 01-1.46088-.46721 2.26854 2.26854 0 01-.85521-1.29852A2.42049 2.42049 0 01452.807 410.86167z"></path><path d="M460.74012 375.62892c2.05421 3.89815 3.8573 7.90412 5.59128 11.94038.8505 2.02492 1.68955 4.05557 2.47564 6.108.798 2.048 1.56119 4.11121 2.2344 6.20974.682 2.09639 1.28091 4.22106 1.773 6.39285a21.0436 21.0436 0 01.53925 3.3773c.00471 1.10307-.01055 2.19121.02288 3.29034.03322 2.19536.118 4.39184.10256 6.60032-.02334 1.10419-.04713 2.21185-.15731 3.325a11.3752 11.3752 0 01-.765 3.35374l.04937-.3218c.80966 4.02864 1.71737 8.041 2.46307 12.08l.12657.68466-.64158.3549-7.4774 4.136c-2.48641 1.39008-4.99841 2.73213-7.51511 4.06521l-.59669.31619-.57067-.33066-4.33393-2.51188c-1.44787-.83142-2.87239-1.70447-4.30971-2.55463l-.58323-.345.05521-.62329c.35837-4.04176.75153-8.0815 1.22974-12.1162l.51366.56808c-1.03069-.10636-2.0349-.27343-3.04248-.47932-.50222-.10839-1.00265-.23114-1.497-.384a4.3904 4.3904 0 01-1.412-.69891l.13958-.17953a4.221 4.221 0 001.38593.41695c.4883.08168.98312.135 1.47995.17425.993.07259 2.00259.08842 2.9893.07843l.515-.00527-.00089.57346c-.00719 4.06286-.099 8.12067-.22553 12.17634l-.528-.968c1.473.78688 2.95879 1.55087 4.42123 2.35659l4.397 2.39923-1.16713-.01459c2.51581-1.33465 5.03632-2.66043 7.58243-3.93808l7.6199-3.8674-.515 1.03922c-.58817-4.065-1.01431-8.15668-1.53852-12.23211l-.02356-.18412.07293-.138a9.44942 9.44942 0 00.88932-2.98291 27.51492 27.51492 0 00.26031-3.2357 61.32 61.32 0 00-.22486-6.54713c-.07989-1.09005-.17907-2.19367-.29015-3.27856a20.34634 20.34634 0 00-.80652-3.05079c-.6869-2.05219-1.50508-4.07969-2.25325-6.12738-1.523-4.0899-2.99985-8.2092-4.47464-12.33354-1.45415-4.133-2.90919-8.26888-4.18965-12.48142zM450.481 203.29525c-1.24-.18-2.48-.33-3.68994-.63a40.11824 40.11824 0 01-7.12-2.18c-1.14-.46-2.26-.98-3.36-1.54-.05-.02-.1-.05-.15-.07-1.06-.56-2.1-1.15-3.11005-1.78a34.06511 34.06511 0 01-5.83-4.53l-.46-.46-.15.31-.1.22-.03.05c-.03.07-.06994.15-.1.22-.04.08-.08.17-.12.25-5.53 11.57-10.93 23.21-16.34 34.83q-.15.33-.3.66c-.05.1-.09.19-.14.29-2.57995 5.58-5.1 11.19-7.62 16.81-1.33 2.97-2.65 5.94-3.91 8.95l-1.75 4.56-1.56 3.85-.09.21-.18.44c-2.46 6.01-5 11.99-7.57 17.95-2.58 5.95-5.16 11.94-7.94 17.76a41.38238 41.38238 0 01-2.4 4.16c-.25.38995-.51.8-.75 1.21-.03.05-.06.09-.09.14v.01a18.10427 18.10427 0 00-1.44 3.09 20.87508 20.87508 0 00-.97991 4.9 47.6788 47.6788 0 00-.18006 4.92c.05994 3.28.24 6.52.59 9.78a27.51983 27.51983 0 00.91 4.86 5.61176 5.61176 0 00.49 1.2 1.91258 1.91258 0 001.09 1.03 1.25259 1.25259 0 00.86-.1 2.4266 2.4266 0 00.59-.43 4.28573 4.28573 0 00.45-.52c.32.6.66 1.17 1.04 1.74a11.14164 11.14164 0 001.72 2.05 4.31975 4.31975 0 001.17.77 1.928 1.928 0 001.51.03 1.96173 1.96173 0 00.71-.51c.01 0 .01 0 .01-.01a3.73831 3.73831 0 00.36-.45 5.18014 5.18014 0 00.42-.76 12.66447 12.66447 0 001.49 1.53 4.33333 4.33333 0 002.44 1.16 2.121 2.121 0 001.37-.44 3.321 3.321 0 00.87-1.08 8.023 8.023 0 00.71-1.97 8.43125 8.43125 0 001.33 1.41 3.05566 3.05566 0 001.17.62 1.2631 1.2631 0 00.74-.06 1.34249 1.34249 0 00.55-.47 5.26906 5.26906 0 00.64-2.45c.05-.83.04-1.63.04-2.45-.01-3.24006-.37-6.48005-.63-9.69a12.36942 12.36942 0 01.32995-4.71c.46-1.54.98-3.08 1.46-4.63a93.5282 93.5282 0 002.55-9.39 39.21891 39.21891 0 00.7-4.86c.05-.4.04-.82.05-1.23s.03-.82 0-1.24c-.02-.4-.07-.86005-.06-1.22a4.55179 4.55179 0 01.01-.52l.1-.55a14.33348 14.33348 0 012.04-4.18c.87-1.33 1.84-2.61 2.84-3.86 1.84-2.26 3.75-4.45 5.71-6.61 2.37-2.62 4.81-5.19 7.25-7.77 2.22-2.34 4.45-4.69 6.62-7.1 1.81-2.01 3.61-4.02 5.29-6.14.36005-.43.7-.86 1.03-1.3a24.84682 24.84682 0 001.76-2.57c.17-.28.34-.56.5-.84.96-1.67 1.79-3.4 2.62-5.1.68-1.47 1.37-2.94 2.02-4.42.67005-1.48 1.3-2.97 1.92005-4.47 2.12-5.04 4.14-10.13 6.12-15.23.11-.28.21-.56.32-.84.25-.66.51-1.31.76-1.97l3.37994-9.1 1.66-4.56.82-2.28.41-1.14c.09-.25.19-.51.28-.79.04-.13.07995-.28.12-.43006C453.04109 203.51522 451.72108 203.46523 450.481 203.29525zm3.21 1.49l-.44 1.13-.89 2.25-1.8 4.51-3.65 8.99c-2.43006 5.99-4.9 11.97-7.51 17.88-1.3 2.96-2.61 5.91-4.01 8.81a46.066 46.066 0 01-4.81 8.26c-1.51 1.94-3.12 3.8-4.78 5.64 0 .01-.01.02-.02.03-2.66 2.94-5.42 5.8-8.11 8.72-.61.65-1.21 1.29-1.82 1.94l-.04.04c-1.59 1.7-3.18 3.42-4.74 5.16-2.18 2.4-4.3 4.86005-6.29 7.43-.99 1.3-1.96 2.62-2.84 4.01a15.34686 15.34686 0 00-2.08 4.55l-.11.65c-.02.22-.01.45-.01.68.02.46.06.8.09 1.21a11.55411 11.55411 0 01.03 1.18 11.82554 11.82554 0 01-.03 1.19 40.44336 40.44336 0 01-.59 4.76 89.85076 89.85076 0 01-2.37 9.37c-.46 1.54-.97 3.08-1.42 4.64a12.73806 12.73806 0 00-.31 4.91c.28 3.23.68 6.43.69 9.66 0 .80005 0 1.61005-.05 2.4a4.87419 4.87419 0 01-.56 2.2c-.38.64-1.18.3-1.75-.19a9.62527 9.62527 0 01-1.51-1.67c-.02-.03-.04-.05-.06-.08l-.34-.47-.12.57a.42525.42525 0 00-.02.11005 8.99019 8.99019 0 01-.77 2.24 1.95623 1.95623 0 01-1.76 1.22 3.84006 3.84006 0 01-2.1-1.04 9.90118 9.90118 0 01-1.58-1.72 1.05424 1.05424 0 01-.1-.12l-.31-.41-.21.48a1.1201 1.1201 0 01-.07.16 3.0781 3.0781 0 01-1.32 1.66 2.01787 2.01787 0 01-1.99-.72 10.71123 10.71123 0 01-1.58-1.94 21.62429 21.62429 0 01-1.22-2.15v-.02c0-.01995-.01-.03-.02-.05l-.29-.59-.37006.55-.06.09a4.55947 4.55947 0 01-.65.78c-.26.25-.54.39-.72.32-.19-.04-.42-.32-.58-.64a5.828 5.828 0 01-.41-1.06 27.22426 27.22426 0 01-.81-4.72c-.3-3.2-.43-6.46-.44-9.68a29.3564 29.3564 0 011.24-9.43 18.98955 18.98955 0 012.22-4.16 40.82872 40.82872 0 002.52-4.24c2.9-5.87 5.48-11.82 8.12-17.77 2.61-5.95 5.2-11.91 7.7-17.92l1.83-4.53 1.73-4.55c1.23-2.98 2.54-5.95 3.86-8.92l7.99-17.77 15.78-34.96c-.17-.15-.33-.3-.49-.45l.06-.01.39-.06.15-.03.15-.02-.1.23-.16.34a35.42924 35.42924 0 005.6 4.1 40.25167 40.25167 0 006.81 3.28c1.29.48 2.6.91 3.93 1.26.19.06.38.11.57.16.91.23 1.83.43 2.76.58 1.23.27 2.48.38 3.73.53 1.24.14 2.43.11 3.69.17a2.53645 2.53645 0 00-.16.33C453.88106 204.28524 453.801 204.53524 453.69105 204.78524z"></path><polygon points="387.506 317.367 392.058 335.106 391.321 335.279 387.506 317.367"></polygon><polygon points="382.049 317.367 385.243 335.954 384.494 336.068 382.049 317.367"></polygon><polygon points="377.229 317.367 378.426 332.99 377.669 333.03 377.229 317.367"></polygon><path d="M509.92459,473.4346c-.03681,0-.07361,0-.11041-.0009a4.5487,4.5487,0,0,1-4.43784-4.65506l3.45584-144.60853a4.56475,4.56475,0,0,1,.04758-.55293L523.002,227.50712a4.54726,4.54726,0,0,1,8.99776,1.32309L517.9179,324.6647l-3.44866,144.33116A4.5478,4.5478,0,0,1,509.92459,473.4346Z"></path><path d="M571.94785,303.9059l-1.09134,7.63964c-10.55016,13.09662-51.84081,21.46388-51.84081,21.46388H507.382l-100.6181-23.8279,3.12153-8.79418s68.56721,21.70827,108.40274,17.8884c18.55349-1.781,29.17933-11.55046,35.2274-21.479h.00758C573.28935,299.13865,571.94785,303.9059,571.94785,303.9059Z"></path><path d="M475.5475 404.36267c-.07091 0-.14272-.0018-.21453-.00449a4.54787 4.54787 0 01-4.33192-4.7538l3.53393-76.024a4.54775 4.54775 0 119.08572.42188l-3.53393 76.024A4.54812 4.54812 0 01475.5475 404.36267zM410.38106 228.61526l.02.23c-.31.03-.61.06-.92005.09-13.47 1.38-27.01 2.01-40.54992 2.17-1 .01-1.99.01-2.98.01-2.9701.01-5.95008 0-8.92005-.05h-.18c-9.83-.11005-19.6499-.48-29.44995-1.3q-10.36506-.885-20.66-2.28c-3.44006-.47-6.86-1-10.2799-1.58-3.41016-.57-6.82007-1.18-10.2201-1.88-3.39-.69-6.76-1.51-10.12-2.4a75.8395 75.8395 0 01-9.89-3.27 32.63518 32.63518 0 01-4.67-2.39 10.77891 10.77891 0 01-3.87988-3.72 4.46487 4.46487 0 01-.51-2.81 5.65612 5.65612 0 011.2-2.57 14.88732 14.88732 0 014.17993-3.39 51.83407 51.83407 0 019.65015-4.13c3.30993-1.09 6.67993-1.99 10.06994-2.78 6.77-1.57 13.62-2.76 20.49-3.7q7.485-1.035 14.99-1.77c-.01.17-.01.34-.01.51a8.68491 8.68491 0 00.18006 1.79c-4.97.44-9.93006.96-14.87012 1.59-6.83984.88-13.65991 1.92-20.38989 3.34-3.36011.73-6.7 1.53-9.99 2.5a49.87779 49.87779 0 00-9.51 3.74 13.7794 13.7794 0 00-3.93006 2.99 4.63342 4.63342 0 00-1.0299 2.05 3.47617 3.47617 0 00.34985 2.2 10.02362 10.02362 0 003.46008 3.45 32.59884 32.59884 0 004.53992 2.37 98.76359 98.76359 0 0019.8501 5.63c3.39.65 6.79 1.23 10.21 1.72q5.13006.705 10.28 1.25c6.87.72 13.75 1.25 20.64 1.66a769.72491 769.72491 0 0082.09.76C409.87105 228.63521 410.13106 228.62527 410.38106 228.61526zM332.50105 189.91524a.64731.64731 0 01.20008-.02 9.70444 9.70444 0 00-.2201 2.44.27674.27674 0 00-.09.01 6.11052 6.11052 0 01-.04-.74A9.40417 9.40417 0 01332.50105 189.91524zM350.981 189.09524c.99012-.02 1.9701-.04 2.96009-.06a9.16129 9.16129 0 00-.36011 2.36c-.75.02-1.5.04-2.26.07A9.288 9.288 0 00350.981 189.09524zM427.16109 193.00527v.22h-.05c-.16-.01-.33-.03-.49-.04l-.36-.03c-13.5-1.15-27.02-1.76-40.55-1.98q-6.585-.12-13.16009-.1a9.16466 9.16466 0 00-.34985-2.04c4.51995.07 9.04992.2 13.55993.37 13.58.57 27.16 1.62 40.62 3.5.16.02.31.04.47.06.09.01.19.03.28.04zM446.294 224.78194l-.13465-.745a153.07327 153.07327 0 0017.22176-4.007l.22081.72528A153.73883 153.73883 0 01446.294 224.78194z"></path><rect width="9.095" height="146.225" x="356.856" y="231.063"></rect><path d="M322.38465,431.4771a3.79056,3.79056,0,0,1-3.45763-5.33725c.77823-1.73959,19.30244-42.73932,40.59131-54.94517a3.79,3.79,0,0,1,3.77,6.576c-19.14985,10.9788-37.262,51.06116-37.44336,51.46509A3.79056,3.79056,0,0,1,322.38465,431.4771Z"></path><path d="M334.39662,455.76134a3.8435,3.8435,0,0,1-.72438-.07,3.78941,3.78941,0,0,1-3.00075-4.44053c.47484-2.45409,11.80641-60.34526,27.6943-81.6467a3.78941,3.78941,0,1,1,6.07509,4.53119c-14.86191,19.92629-26.215,77.97095-26.32811,78.5553A3.79068,3.79068,0,0,1,334.39662,455.76134Z"></path><path d="M386.718,420.68411a3.79081,3.79081,0,0,1-3.65511-2.80058h0c-.079-.29083-8.08667-29.231-25.33176-42.95026a3.78949,3.78949,0,0,1,4.71789-5.93148c19.21358,15.28469,27.583,45.61889,27.93038,46.90338a3.79262,3.79262,0,0,1-3.6614,4.77894Z"></path><path d="M375.09923,456.43366a3.78968,3.78968,0,0,1-3.78347-3.63986c-.02423-.59422-2.49628-59.69807-14.17612-81.62695a3.78954,3.78954,0,1,1,6.68907-3.56355c12.49219,23.45483,14.96064,82.39352,15.05938,84.8907a3.788,3.788,0,0,1-3.63626,3.93607C375.20067,456.43276,375.1495,456.43366,375.09923,456.43366Z"></path><path fill="#fff" d="M398.20916,418.5572c-.03658-.00921-.08258-.00921-.11939-.01841l.05521-.50558v-.0092c.01817-.07361.03658-.15619.055-.22979C398.20916,418.05161,398.20916,418.2998,398.20916,418.5572Z"></path><polygon fill="#fff" points="387.28 434.431 387.271 434.477 387.271 434.431 387.28 434.431"></polygon><path d="M443.67553 119.629a4.66023 4.66023 0 001.61756.124 5.40359 5.40359 0 001.65332-.40967 6.07252 6.07252 0 001.48889-.91382 8.31548 8.31548 0 001.24121-1.28906 8.438 8.438 0 01-1.06958 1.4707 6.44658 6.44658 0 01-1.4336 1.17774 6.02825 6.02825 0 01-1.76171.70459 5.44279 5.44279 0 01-1.97107.10742zM320.88106 211.52523a17.69 17.69 0 01-2.96-1.46 8.60444 8.60444 0 01-1.8-1.45 2.76746 2.76746 0 01-.83-1.84c.07-1.19 1.25-2.17 2.47-2.9-.01.2-.02.4-.02.61A9.43526 9.43526 0 00320.88106 211.52523zM371.851 199.73525c-.08.2-.15991.41-.23.62-.12-.24-.25-.47-.38-.7C371.44112 199.67525 371.65108 199.70522 371.851 199.73525zM372.561 204.48525a9.21191 9.21191 0 01-.5 3.03 9.4437 9.4437 0 01-.93994-4.12 9.275 9.275 0 01.5-3.04A9.51706 9.51706 0 01372.561 204.48525zM378.44105 212.63521a62.52079 62.52079 0 01-7.67 1.36005c-6.47009.75-12.96008 1.09-19.47009 1.23-3.25.07-6.50989.07-9.7699-.07a88.1147 88.1147 0 01-9.7301-.86c-.93994-.14-1.86987-.3-2.79993-.49a9.48869 9.48869 0 007.7201-9.32 9.49048 9.49048 0 0017.91992 4.36 9.49065 9.49065 0 0017.41992-1.32A9.45623 9.45623 0 00378.44105 212.63521z"></path><path d="M372.51106,192.58523a9.4449,9.4449,0,0,1-2.48,5.46.12048.12048,0,0,1-.05.05c.05.01.09.02.13.03.29.05.57007.11.86011.17.48.1.97.2,1.45.3a9.48759,9.48759,0,1,1,8.18,14.29c-.24,0-.48-.00994-.71-.03a65.13988,65.13988,0,0,1-8.91992,2.38,91.45692,91.45692,0,0,1-19.67017,1.65,137.12084,137.12084,0,0,1-19.60986-1.95c-1.65-.29-3.3-.6-4.95008-.97h-.0299c-1.20008-.27-2.40015-.57-3.59009-.92l-.01-.01c-.34-.1-.68994-.2-1.03-.31a28.32357,28.32357,0,0,1-4.6-1.92,9.72277,9.72277,0,0,1-2.07995-1.52,3.81234,3.81234,0,0,1-1.2-2.51,3.89782,3.89782,0,0,1,1.10986-2.59,9.91691,9.91691,0,0,1,2.04-1.65c.23-.14.46-.28.69006-.4a9.373,9.373,0,0,1,2.33-4.2h-.21a9.32772,9.32772,0,0,1-2.07007-3.78c-16.03,2.73-26.58,7.36-26.58,12.62,0,8.38,26.77,15.17,59.78992,15.17,33.03009,0,59.80011-6.79,59.80011-15.17C411.10109,200.29525,395.07106,194.76522,372.51106,192.58523Zm-18.93-.97c-.75-.01-1.5-.01-2.26-.01a8.74858,8.74858,0,0,1-1.02991,4.31l.95.52h.05994c1.22009.01,2.43.04,3.65015.08A9.37605,9.37605,0,0,1,353.581,191.61526Z"></path><path fill="none" d="M338.38105 199.12526a7.83012 7.83012 0 00-.62 1.05M351.241 196.43526a9.60832 9.60832 0 00-.95-.52"></path><path fill="#020202" d="M354.63928 200.13412a6.7297 6.7297 0 012.842-3.59692 11.54535 11.54535 0 014.28137-1.82544 5.61937 5.61937 0 011.20752-.11719 10.87768 10.87768 0 011.17737.09131 9.244 9.244 0 012.25256.61267 9.05873 9.05873 0 013.63953 2.73865l.002.01342a.12769.12769 0 01-.05774.05l.00257-.00268-.0553.05725.04431-.06262.00293-.00293a.111.111 0 00.04211-.04969l.00183.01319a9.82389 9.82389 0 00-5.95422-2.6355 7.93333 7.93333 0 00-1.07886-.01135 6.48012 6.48012 0 00-1.02649.20007 17.85378 17.85378 0 00-4.00647 1.68213A9.72488 9.72488 0 00354.63928 200.13412zM353.58105 191.6152a9.19275 9.19275 0 012.692-7.15515 9.63369 9.63369 0 0114.29248.73144 9.18972 9.18972 0 011.94555 7.3938 9.50715 9.50715 0 00-.62475-3.72668 8.99976 8.99976 0 00-1.90491-3.16651 9.38339 9.38339 0 00-13.18091-.677 9.06043 9.06043 0 00-2.22009 2.95459A9.79468 9.79468 0 00353.58105 191.6152zM332.39111 192.38522l-.00293-.03992v.00025a7.33863 7.33863 0 01-.09094-.9126l.02978-.92163a7.19037 7.19037 0 01.25293-1.8396 9.234 9.234 0 011.6814-3.34216l-.0011.45a9.32828 9.32828 0 00-11.20679-2.15076 9.57858 9.57858 0 00-4.23022 4.34314 9.86776 9.86776 0 00-.73218 6.18335 9.073 9.073 0 01.13843-6.44116 9.64624 9.64624 0 014.37915-4.93494 9.88922 9.88922 0 016.58386-.94189 9.52454 9.52454 0 015.60925 3.49353l.18628.2434-.1875.20691a9.37451 9.37451 0 00-1.80237 3.022 6.87273 6.87273 0 00-.43139 1.73559 9.88473 9.88473 0 00-.17285 1.80615v.00049zM334.62109 197.55526a.05766.05766 0 01-.03723.04834l.00476-.0039-.13111.23657-.00671.01208-.02978.00477c-.14991.02417-.29981.042-.44983.05725l-.01831.00183-.04041-.01978c-1.10437-.54065-2.21472-1.06067-3.33252-1.512a14.47982 14.47982 0 00-1.68506-.59375 5.91346 5.91346 0 00-1.66382-.2915l.00013-.99988a8.99815 8.99815 0 013.71106.80774 8.2464 8.2464 0 012.95507 2.28344l-.0935-.02954c.24975-.01062.49963-.00586.74609-.00244l-.00232.00049C334.56994 197.55209 334.59887 197.54037 334.62109 197.55526zm0 0c-.02454-.0072-.04419.01014-.06665.02027l-.00269.00061c-.24.06994-.47656.14136-.71338.19739l-.04174.00988-.05213-.03955a10.743 10.743 0 00-6.51343-2.24865l.00013-.99988a8.83866 8.83866 0 013.69458 1.13818 17.48307 17.48307 0 013.10388 2.08447l-.05847-.01782c.15.01526.29992.033.44983.05725l-.03626.0166.18848-.1831.004-.00391.001-.00012A.04942.04942 0 00334.62109 197.55526z"></path><path fill="#020202" d="M351.321,191.60531a10.42783,10.42783,0,0,0-2.03467-5.20593,9.55334,9.55334,0,0,0-4.36633-3.22546,9.74265,9.74265,0,0,0-5.41626-.35181,10.35867,10.35867,0,0,0-4.90527,2.66931l-.00074.00073-.06677.06311.05322-.07666-.00048.00037a8.79171,8.79171,0,0,1,4.71948-3.41675,9.51031,9.51031,0,0,1,5.95984.17371,9.37048,9.37048,0,0,1,4.65844,3.71863A8.8335,8.8335,0,0,1,351.321,191.60531Z"></path><path d="M320.1654 198.157a8.6784 8.6784 0 013.04089-2.58716 9.17816 9.17816 0 013.94825-1.00928 9.42369 9.42369 0 017.35205 3.20191l.02173.0249.00488.00684a15.37969 15.37969 0 01.94226 1.543 13.06235 13.06235 0 01.75879 1.631 6.3611 6.3611 0 01.48694 3.51709 7.11262 7.11262 0 00-.983-3.293 20.1139 20.1139 0 00-1.87255-2.89283l.02624.0315a9.62691 9.62691 0 00-6.73035-2.88806A10.169 10.169 0 00320.1654 198.157zM354.63928 208.92038a4.96073 4.96073 0 01-1.03748-2.08435 9.456 9.456 0 01-.27771-2.30555 9.02537 9.02537 0 01.29126-2.31018 5.27056 5.27056 0 011.02393-2.08618 21.92982 21.92982 0 00-.352 4.39209A22.25706 22.25706 0 00354.63928 208.92038zM371.46887 208.92038a22.25781 22.25781 0 00.35205-4.39417 21.93056 21.93056 0 00-.35205-4.39209 5.26907 5.26907 0 011.02392 2.08618 9.02537 9.02537 0 01.29126 2.31018 9.456 9.456 0 01-.27771 2.30555A4.95931 4.95931 0 01371.46887 208.92038z"></path><path d="M354.63928 200.13412a19.71417 19.71417 0 00-3.83216-3.3811 8.12069 8.12069 0 00-4.61132-1.46192 8.60821 8.60821 0 00-4.56128 1.58606 16.38426 16.38426 0 00-3.66089 3.44043l-.02674.03418a3.75156 3.75156 0 00-.468.6482 5.39148 5.39148 0 00-.36.76159 8.076 8.076 0 00-.40356 1.67322 6.0936 6.0936 0 01.13037-1.75452 5.71563 5.71563 0 01.26611-.85888 3.31033 3.31033 0 01.45447-.82093l-.02649.03406a13.8488 13.8488 0 013.5835-3.89062 8.70912 8.70912 0 015.06237-1.79224 8.12235 8.12235 0 015.01807 1.84033A14.501 14.501 0 01354.63928 200.13412zM334.59106 185.48532a17.88449 17.88449 0 00-1.62634 6.10058 10.357 10.357 0 001.59362 5.97242l-.0072-.00306.00977.00171.00525.001.00073.00159.01575.03479-.00147-.00086.00989.00183-.00989.00171-.00183-.001-.024-.02491.00562.00232-.00977.00183-.00268.00049-.00476-.00378a6.42934 6.42934 0 01-1.97217-2.68079 7.98255 7.98255 0 01-.57019-3.34766A9.79487 9.79487 0 01334.59106 185.48532zM449.70593 84.49264a30.51394 30.51394 0 00-2.32923 3.61072 31.10706 31.10706 0 00-1.79089 3.8761 22.22111 22.22111 0 00-1.17248 4.07788 24.28561 24.28561 0 00-.49915 4.20337l-.00488-.0603a15.45692 15.45692 0 01.01635 3.103 8.71209 8.71209 0 01-.7893 3.00012 15.79152 15.79152 0 01-1.82483 2.46436 12.1495 12.1495 0 00-1.67273 2.46118 2.17317 2.17317 0 00.40222 2.54724 5.32064 5.32064 0 001.22.76306 3.096 3.096 0 01.699.47571 1.6491 1.6491 0 01.42419.80371c.323.90491.75647 1.846 1.09094 2.81983a10.35678 10.35678 0 01.42115 1.52014 6.05144 6.05144 0 01.07556 1.6134 15.89865 15.89865 0 00.62915 5.792 6.29728 6.29728 0 001.42334 2.36866A6.8038 6.8038 0 00448.436 131.342a25.10217 25.10217 0 005.79382 1.32629c.5.07251 1.00159.13538 1.51355.2345a3.6464 3.6464 0 01.78919.22461 1.57382 1.57382 0 01.59778.62854 24.48362 24.48362 0 011.4093 2.71045l-.089.04577A24.28379 24.28379 0 00456.79235 134c-.15014-.18067-.32629-.40308-.45568-.43164a3.30743 3.30743 0 00-.67884-.13526c-.48608-.05847-.99145-.08581-1.4956-.12195a22.9735 22.9735 0 01-6.054-1.073 7.2677 7.2677 0 01-2.8114-1.56152 6.81487 6.81487 0 01-1.70374-2.76147 15.81028 15.81028 0 01-.571-6.19519 5.06975 5.06975 0 00-.02625-1.40589 11.54272 11.54272 0 00-.33764-1.41113c-.27612-.95313-.66834-1.8623-.9624-2.88171-.01307-.86206-1.28589-1.04334-2.02405-1.87537a2.66031 2.66031 0 01-.36658-3.06506 12.39381 12.39381 0 011.77258-2.50342 15.17271 15.17271 0 001.71387-2.4408 7.44544 7.44544 0 00.56238-2.87011 15.01077 15.01077 0 00-.21655-2.94336l-.00489-.02784v-.033a20.53614 20.53614 0 01.40381-4.38439 23.05889 23.05889 0 011.32691-4.18873A23.79969 23.79969 0 01446.915 87.826a20.87325 20.87325 0 012.71741-3.40125zM472.10241 120.19857c.94055 1.92017 1.71314 3.85364 2.63367 5.698a16.82816 16.82816 0 001.5354 2.62464 3.01624 3.01624 0 002.43664 1.49121 2.04 2.04 0 01-1.64074-.00928 4.31427 4.31427 0 01-1.38257-.96741 10.36157 10.36157 0 01-1.844-2.69519 18.26892 18.26892 0 01-1.14624-2.99853A15.37388 15.37388 0 01472.10241 120.19857zM178.66348 166.06055l-2.8616-3.1189c-1.00636-.98853-1.96764-2.01986-2.99569-2.98253a76.73665 76.73665 0 00-6.40179-5.49057 62.26291 62.26291 0 00-7.005-4.637 36.30175 36.30175 0 00-7.57153-3.35106l-.00842-.00246a.68485.68485 0 01-.47707-.81484 9.562 9.562 0 013.21452-5.18344 13.15841 13.15841 0 015.49939-2.55388 24.53812 24.53812 0 015.92665-.5207c.97016.00585 2.00781.115 2.91668.17123a7.91525 7.91525 0 002.574-.22164 7.9615 7.9615 0 005.55642-4.95466c.28941-.76479.47087-1.74957.71473-2.67517l2.74534-11.19552a1.00055 1.00055 0 01.41982-.59578c1.10677-.72491 2.21886-1.46022 2.31131-2.09635a5.02542 5.02542 0 00-.99794-2.9278 11.679 11.679 0 00-2.38944-2.73645 10.4648 10.4648 0 01-1.488-1.58746 6.16855 6.16855 0 01-1.00659-2.12383 11.90919 11.90919 0 01-.2183-4.29691 17.53481 17.53481 0 00.06912-3.72638 11.91586 11.91586 0 00-.897-3.48708 10.59111 10.59111 0 00-.86157-1.55554 7.22737 7.22737 0 00-1.075-1.26735l.62309.2283-14.53641-.46444-14.53355-.5649.79011-.52666c-5.33917 13.47829-10.76143 26.91554-15.981 40.43325-.60736 1.7091-1.46372 3.312-2.20126 4.96555l-2.29108 4.92718-4.51613 9.8822-4.50263 9.88806a31.29392 31.29392 0 00-2.76733 10.32068 62.44961 62.44961 0 001.46541 21.3666 66.87479 66.87479 0 003.3916 10.18209c.68969 1.65635 1.46857 3.25235 2.28125 4.86707.80853 1.62465 1.6391 3.2396 2.41716 4.87876q9.49119 19.60746 17.37456 39.923a1.07918 1.07918 0 01.06655.26525l.00228.02234a100.07711 100.07711 0 007.14476 27.31367c.91437 2.16067 1.86132 4.37339 2.92493 6.41254a27.01241 27.01241 0 0015.20529 13.08941 27.6079 27.6079 0 006.68733 1.44571c2.23483.1586 4.70988.12234 7.07581.17521q7.16789.09053 14.335.24093l28.66891.56642.01374.00036a.95122.95122 0 01.93186.95729c-.0376 5.25747-.10339 10.46629.15269 15.68564.24093 5.21712.71508 10.42664 1.394 15.61253q1.03359 7.77639 2.552 15.49231c1.01694 5.13969 2.19874 10.24968 3.44463 15.3454a.12116.12116 0 01-.23432.06164 255.68622 255.68622 0 01-6.99219-30.72368c-.80478-5.20063-1.4053-10.43728-1.77132-15.69475-.38947-5.25572-.44111-10.54571-.46058-15.77909l.94543.95742-28.67417-.156q-7.16868-.0249-14.33653-.12034c-2.4112-.04889-4.72.00573-7.2547-.162a29.71171 29.71171 0 01-23.94669-15.8068c-1.145-2.19834-2.10284-4.376-3.03131-6.62249a102.52547 102.52547 0 01-7.09551-28.04008l.06871.28725c-2.55733-6.74482-5.28595-13.45444-8.084-20.11891q-4.185-10.00741-8.76942-19.83763l-2.31739-4.90086c-.78122-1.63729-1.5563-3.31516-2.2229-5.01807a68.39141 68.39141 0 01-3.24674-10.48488 63.982 63.982 0 01-1.08413-21.80427 43.976 43.976 0 011.05408-5.38834c.23321-.88584.49835-1.76559.80724-2.63237a26.85862 26.85862 0 011.09092-2.51587l4.57017-9.85858c3.02733-6.58026 6.149-13.12181 8.95713-19.79388 5.1818-13.52578 10.16085-27.13191 15.223-40.69722a.81111.81111 0 01.77157-.52736l.01883.00058 14.54255.2428 14.53974.34316.03129.0007a.94069.94069 0 01.59215.22783 8.86442 8.86442 0 011.50273 1.70711 12.68838 12.68838 0 011.062 1.885 14.04053 14.04053 0 011.09549 4.11784 19.729 19.729 0 01-.03761 4.15105 10.575 10.575 0 00.14024 3.54557 5.26 5.26 0 001.85868 2.71575 13.78189 13.78189 0 012.73716 3.22288 12.1759 12.1759 0 01.94689 1.94477 4.50694 4.50694 0 01.25333 2.52534 4.03506 4.03506 0 01-1.49045 2.12676c-.58993.46526-1.1594.81508-1.69892 1.17437l.41958-.59543-2.84306 11.172c-.25713.92747-.41578 1.845-.80543 2.88078a9.82286 9.82286 0 01-6.89733 6.05044 9.28265 9.28265 0 01-3.1461.21766c-1.00624-.08585-1.87962-.2-2.83171-.22807a22.92119 22.92119 0 00-5.53753.363 11.65863 11.65863 0 00-4.90795 2.13681 8.14617 8.14617 0 00-2.84341 4.38743l-.48537-.81707a37.17269 37.17269 0 017.82937 3.64954 62.63584 62.63584 0 016.96522 4.94871 77.4699 77.4699 0 016.27612 5.75688c1.00583.99987 1.933 2.07553 2.89487 3.11458l2.73142 3.25317a.12106.12106 0 01-.18175.15988z"></path><path d="M220.233 212.49735l-.16216-.51742a53.74937 53.74937 0 014.38169 7.12423 34.15737 34.15737 0 012.987 7.86176 17.84589 17.84589 0 01.44034 4.281 9.94541 9.94541 0 01-1.069 4.28228 8.94649 8.94649 0 01-2.96177 3.31024 13.56184 13.56184 0 01-3.9579 1.77062c-.34473.09392-.68783.20082-1.03408.28281l-1.04583.191a17.13286 17.13286 0 01-2.09635.2828l-1.04992.10351c-.16644.23005 1.12852-2.02243.59794-1.042l.02883.05275.05754.10573.11491.21134a4.71749 4.71749 0 00.24006.41684 10.66465 10.66465 0 007.83516 5.024c1.24121.14245 2.66154.05426 4.02959.08268l4.12579.04176c2.75014.0462 5.49981.12187 8.24784.24245a219.65424 219.65424 0 0132.7995 3.60568 95.20855 95.20855 0 0115.9151 4.49819 49.25464 49.25464 0 017.45967 3.655A25.3762 25.3762 0 01302.492 263.75a15.33 15.33 0 013.3558 7.63978 37.89932 37.89932 0 01.40643 8.296 100.49548 100.49548 0 01-2.36366 16.34305 281.29392 281.29392 0 01-9.255 31.62963c-7.29195 20.7272-15.65318 41.05593-24.80481 61.03215l-.23344-.49941 11.03967 2.82593c3.6889.94291 7.336 1.90453 11.06757 2.74 3.70211.91063 7.37569 1.94734 10.98657 3.20417 1.80419.63122 3.59253 1.31881 5.34426 2.11026a28.88828 28.88828 0 015.06648 2.83294 11.646 11.646 0 012.19605 2.04536 4.50709 4.50709 0 011.04665 3.02031 2.728 2.728 0 01-.15052.82431 3.71048 3.71048 0 01-.26152.72982c-.19958.44444-.36806.8994-.59414 1.33507-.23152.43321-.44491.87507-.693 1.3008l-.81666 1.243a12.08379 12.08379 0 01-4.59064 3.76814 19.04716 19.04716 0 01-5.63074 1.65413 53.53516 53.53516 0 01-11.52464.20151c-3.82264-.2497-7.60065-.79811-11.376-1.33928l.4997-1.26536 20.5541 13.93116a41.17377 41.17377 0 015.04321 3.81117 19.72566 19.72566 0 012.22833 2.32664 6.88234 6.88234 0 011.53179 3.07259 3.03166 3.03166 0 01-.31748 1.932 3.62364 3.62364 0 01-.57783.78946 5.233 5.233 0 01-.71782.56608 16.78547 16.78547 0 01-2.98838 1.30676 29.10617 29.10617 0 01-6.14161 1.571 33.45711 33.45711 0 01-6.32927.26257c-1.04683-.09836-2.09688-.17906-3.14014-.29765l-3.10645-.49193a96.54339 96.54339 0 01-12.05907-3.32685 210.18154 210.18154 0 01-22.891-9.82525l.82192-.513-.05859 13.73022-.00223.51485-.5104-.00223-20.99936-.0897-.39894-.00164-.02287-.39005c-.25076-4.274-.34514-8.54094-.222-12.814a84.828 84.828 0 011.18057-12.76275 31.61475 31.61475 0 011.7464-6.18892c.8276-1.96126 1.653-3.92311 2.34676-5.92963a32.69469 32.69469 0 001.53974-6.16342 34.14 34.14 0 00.25134-6.35676l.16129-.00912a34.35183 34.35183 0 01-.16117 6.39968 32.9956 32.9956 0 01-1.46349 6.24026c-.66976 2.0312-1.4698 4.01176-2.27 5.98717a31.13919 31.13919 0 00-1.62892 6.11407 84.24109 84.24109 0 00-.98812 12.68392c-.04976 4.24673.06094 8.50725.35093 12.737l-.42157-.39146 20.99936-.0897-.51239.51239-.05865-13.73022-.00386-.90794.826.39473a221.14565 221.14565 0 0022.80168 9.65285 95.3113 95.3113 0 0011.88814 3.237 36.8336 36.8336 0 0012.1389.47543 27.71593 27.71593 0 005.8646-1.52313 16.17072 16.17072 0 002.694-1.16981 1.84984 1.84984 0 00.9977-1.92711 5.60971 5.60971 0 00-1.253-2.403 18.37485 18.37485 0 00-2.073-2.14558 39.7766 39.7766 0 00-4.87315-3.65446l-20.56024-13.99068-2.50541-1.70478 3.00511.4393c3.74486.54747 7.49545 1.10232 11.26008 1.35822a52.28321 52.28321 0 0011.22347-.15766c3.64966-.48736 7.2761-1.88044 9.43654-4.8432l.75788-1.1325c.2331-.39228.43637-.80643.657-1.20841a8.55172 8.55172 0 00.91-2.43657 3.34388 3.34388 0 00-.78543-2.2367 10.56154 10.56154 0 00-1.951-1.83974 41.75238 41.75238 0 00-10.083-4.88216c-3.55732-1.27331-7.19756-2.33774-10.86693-3.276-3.679-.85882-7.37288-1.86723-11.03967-2.84078l-11.02453-2.93-.41707-.11088.18351-.38876c4.68262-9.91847 9.037-20.00055 13.23549-30.13831 4.18556-10.14419 8.15182-20.38323 11.69481-30.76847a280.69827 280.69827 0 009.08017-31.599 99.77212 99.77212 0 002.26821-16.2268 37.10611 37.10611 0 00-.43426-8.116 14.44263 14.44263 0 00-3.2099-7.23124 24.30644 24.30644 0 00-6.18459-5.15093 48.31314 48.31314 0 00-7.33376-3.52884 94.19126 94.19126 0 00-15.76862-4.337 218.472 218.472 0 00-32.63955-3.35761c-2.73681-.10117-5.47542-.15754-8.214-.18444l-4.108-.0131c-1.37407-.02258-2.70674.08748-4.19783-.064a12.10838 12.10838 0 01-8.92807-5.67922c-.10315-.15123-.1869-.31368-.27514-.47368l-.13146-.24034-.06556-.12024-.0328-.06023c-.57122.93227.73221-1.34267.62993-1.1056l.99823-.10257a15.87354 15.87354 0 001.97957-.273l.97887-.1807c.32041-.07719.6328-.17754.94964-.26444a12.07883 12.07883 0 003.51872-1.57741 7.41558 7.41558 0 002.46014-2.75984c1.16864-2.22056 1.03514-4.97163.4714-7.52551a32.6422 32.6422 0 00-2.87651-7.48049 52.3012 52.3012 0 00-4.25684-6.87651l-.17357-.237.01135-.28081zM195.335 187.45851l-.08853.35859-.17292-.33649a19.57527 19.57527 0 00-1.09812-1.778l-1.20565-1.73658c-.81876-1.14829-1.65729-2.28324-2.50365-3.41235l.12847-.0979c.86221 1.11835 1.71676 2.24278 2.5526 3.38206l1.23273 1.72548a19.15124 19.15124 0 011.14771 1.8091l-.26129.0221zM133.41287 149.06172a18.83492 18.83492 0 014.20643-2.49564 24.66525 24.66525 0 014.66537-1.54126 20.16955 20.16955 0 014.93269-.423 12.0854 12.0854 0 014.772 1.22922 32.88118 32.88118 0 00-4.751.03111 45.47191 45.47191 0 00-4.615.74116c-1.532.31591-3.04744.73263-4.57759 1.144z"></path><path d="M176.62352,89.69759s-15.34584,14.53817-21.80725,17.76887c0,0-7.86425-7.38473-7.26908,2.423.37961,6.25544,2.01919,7.67291,2.01919,7.67291s2.762,25.79826,2.423,31.49932c-1.18071,19.85917-9.28827,44.01114-31.24694,48.429-8.528,1.71575-18.57654,4.03838-19.38421-2.423s8.8677-63.69766,9.66421-67.03048c3.48174-14.56855,13.10214-45.60868,30.871-48.83938S176.62352,89.69759,176.62352,89.69759Z"></path><path d="M149.56639 117.56238a13.50249 13.50249 0 01.79794 1.09461 5.13494 5.13494 0 00.57637.71016 1.288 1.288 0 00.5897.35509 4.15789 4.15789 0 00.54812.13157 5.90882 5.90882 0 01.71858.13158 1.86355 1.86355 0 01-1.19179.99507 1.79209 1.79209 0 01-1.77945-.4449 2.3589 2.3589 0 01-.25947-2.97318zM173.15051 111.04333c2.649 0 2.65341-4.11689 0-4.11689-2.649 0-2.65341 4.11689 0 4.11689zM152.7971 117.58553c2.649 0 2.65341-4.11689 0-4.11689-2.649 0-2.6534 4.11689 0 4.11689zM166.12371 104.23578a4.72179 4.72179 0 011.72611-1.912 5.5463 5.5463 0 012.49365-.90221 4.99181 4.99181 0 012.64628.39274 4.603 4.603 0 012.0184 1.61378c-.87245-.136-1.60951-.33882-2.35307-.39847a9.17833 9.17833 0 00-2.13623-.00281A17.77 17.77 0 00166.12371 104.23578zM175.76738 115.52709c.14467.51941.21689.94139.29011 1.312a4.11641 4.11641 0 00.25514.84186 1.32269 1.32269 0 00.42228.54514c.1128.11625.29485.19847.4611.33379a5.08668 5.08668 0 01.60672.40468 2.4717 2.4717 0 01-.678.38525 2.10676 2.10676 0 01-.79267.07065 1.799 1.799 0 01-1.48285-1.0566 2.28221 2.28221 0 01.91812-2.8368zM195.2 187.42634c2.25938 1.85413 4.4042 3.819 6.50874 5.82285 2.11178 1.99693 4.15573 4.05947 6.18646 6.13477 2.009 2.09634 4.00352 4.20672 5.93045 6.3826 1.93412 2.16874 3.82708 4.37737 5.60466 6.69769-2.26085-1.85261-4.40632-3.81691-6.5105-5.82109-2.11149-1.99729-4.15538-4.05983-6.18471-6.13653-2.00763-2.09763-4.00211-4.208-5.92869-6.38412C198.87262 191.95342 196.97908 189.74526 195.2 187.42634zM159.62035 204.72482c4.166 3.71761 8.39011 7.35 12.64082 10.9402 4.26778 3.56943 8.57947 7.07967 13.02608 10.40185A135.45711 135.45711 0 00199.0818 235.319a54.64543 54.64543 0 007.44235 3.62066 23.05983 23.05983 0 008.06012 1.79331 21.41117 21.41117 0 01-8.319-1.045 46.89918 46.89918 0 01-7.78346-3.26031c-2.50417-1.28115-4.91373-2.732-7.27651-4.24462-2.34534-1.53951-4.63771-3.15481-6.88674-4.82461q-6.7029-5.06835-12.88538-10.74944A166.06335 166.06335 0 01159.62035 204.72482zM280.76536 416.10966a34.715 34.715 0 01-6.11512-3.05013 40.57115 40.57115 0 01-5.50823-4.10977 36.12223 36.12223 0 01-8.47936-10.90863l-.05251-.09777-.0345-.15941c-1.95208-9.01953-2.89359-18.23414-4.64824-27.28794-.83765-4.536-1.83109-9.03847-2.7478-13.57244-.22193-1.13683-.45906-2.26746-.649-3.42475-.11117-.56105-.18672-1.17227-.24982-1.799-.08275-.62058-.10211-1.01461-.22719-1.61168-.41432-2.21447-.9194-4.50216-1.2794-6.79487a94.78539 94.78539 0 01-.67245-27.86559 101.3792 101.3792 0 017.15862-26.83893l.22912.07883a157.53017 157.53017 0 00-4.97572 27.01787 122.03907 122.03907 0 00-.53742 13.6514 105.60315 105.60315 0 00.94572 13.63946c.27292 2.27494.66034 4.51339.93928 6.85675.08889.53754.085 1.30162.11743 1.82723.01649.5235.0369 1.06068.10614 1.63892.09929 1.13.245 2.27295.38479 3.41282.58876 4.56333 1.30255 9.12315 2.17769 13.6473 1.693 9.0628 4.34485 17.93671 6.05582 26.99133l-.08684-.25672a36.82566 36.82566 0 003.38036 5.617c.60625.91706 1.34858 1.73506 2.03261 2.598.74741.8097 1.45922 1.65635 2.25646 2.42547a51.4081 51.4081 0 0010.57617 8.1531z"></path><path d="M231.84954 365.0872a84.67 84.67 0 011.25056 17.26549l-.12865 2.18886-.25976 2.19541a19.585 19.585 0 01-1.141 4.42076 5.592 5.592 0 00-.5304 1.47776c-.00176.0828-.00725.02047.06386.10432a1.64384 1.64384 0 00.54479.23392 7.26024 7.26024 0 001.82541.21134c.65952.01883 1.34846-.02281 2.03436-.06748 2.76727-.18526 5.5832-.66292 8.39421-1.13777 2.82645-.44139 5.62893-1.01647 8.53778-1.34922l1.10343-.11146 1.09964-.06526c.69888-.03029 1.4022-.09707 2.108-.14912 1.412-.11579 2.827-.29754 4.24211-.48865 2.83616-.36385 5.66624-.83437 8.5124-1.27846-2.71646.9663-5.4894 1.751-8.29328 2.4478-1.40589.33228-2.81944.64046-4.25339.89379-.71742.12772-1.43864.23567-2.17027.31766-.74122.08444-1.36173.16877-2.073.30432-5.56279 1.06864-11.15008 2.53739-17.04041 3.03224-.74578.03883-1.49162.07485-2.26652.04409a9.43269 9.43269 0 01-2.43038-.33567 3.808 3.808 0 01-1.37752-.69414 2.81114 2.81114 0 01-.62748-.757 2.44468 2.44468 0 01-.264-.98045c-.00766-.1593-.00947-.31988-.00433-.47672l.083-.39426c.03106-.12924.06106-.2655.09971-.38631l.138-.31953.4507-.998a27.99332 27.99332 0 001.74436-8.0179C231.77509 376.58084 231.81913 370.83975 231.84954 365.0872zM301.00557 429.729c-10.40287 6.28372-37.28231-.75921-48.18593-7.88291a95.24383 95.24383 0 00-18.85057-9.07806c-4.03838 9.69211-2.423 31.49935-2.423 31.49935h20.99957V430.53694c36.3454 17.76886 46.84518 14.53816 54.92194 11.30746S301.00614 429.72926 301.00557 429.729zM266.30508 404.74552s17.01394 3.6351 25.2208 1.55328a4.64832 4.64832 0 002.75571-7.03667 15.07756 15.07756 0 00-8.839-6.56723l2.64075.689s30.69168 6.4614 27.461 14.53816-8.88444 12.11514-34.73006 8.07676c-7.576-3.46493-14.50917-11.25326-14.50917-11.25326z"></path><path d="M276.811,441.41524q-.04487-.33-.08984-.69c-.03-.23-.06006-.46-.09009-.71-.33008-2.36-.77-5.61-1.32007-9.57v-.01c-.71-5.16-1.60986-11.52-2.63989-18.7-.06006-.38-.11011-.76-.17005-1.14-.03991-.29-.07995-.58-.12-.88-.18994-1.3-.38-2.62-.58008-3.97-.77991-5.33-1.61987-11-2.50989-16.89-.01-.07-.02-.15-.03-.23v-.01c0-.01-.01-.02-.01-.04-.01-.08-.02-.17-.03991-.26-4.36011-28.79-9.89014-62.49-14.98011-85.25v-.02c-.2799-1.22-.55993-2.42-.84-3.57v-.01c-2.47-10.59-4.83008-18.32-6.87-21.31-8.99-13.17-8.81994-22.54-45.48-31.72-7.56006-1.89-16.70007-3.77-27.8-5.68,0,0-31.56994-7.26-40.62-9.49-.5-.12-.93994-.23-1.29-.32q-.67493-.21-1.35-.45h-.00988a49.37524,49.37524,0,0,1-6.8-2.89,30.239,30.239,0,0,1-7.32007-5.15,11.30318,11.30318,0,0,1-2.63989-3.9,5.69771,5.69771,0,0,1,.35986-4.9,8.8418,8.8418,0,0,1,3.43005-3.13,15.11636,15.11636,0,0,1,3.39-1.33c.26-.07.53-.13.8-.18l-1.46009-3.13995s-.31994,0-.86.06c-3.22.34-14.3,2.54-12.3,16.8a15.40647,15.40647,0,0,0,2.52,3.35c.47.52.99.98,1.48,1.45.55.43,1.04.92,1.6001,1.32a40.28965,40.28965,0,0,0,7.04,4.35,78.99444,78.99444,0,0,0,7.65991,3.32c1.33008.45,2.65.96,3.99,1.42.87.29,1.74.57,2.61011.88.47.16.93994.33,1.40991.52,0,0,.46.1,1.31006.29h.01c5.75,1.26,29.2799,6.45,49.93994,11.42005,16.12,3.88,30.48,7.63,33.28,9.27,6.93994,4.07,20.1,12.89,26.41992,42.46H176.14107a29.17527,29.17527,0,0,1-26.96-18.1c-3.81006-9.25-7.69007-20.83-8.9-31.84l-5.4-13.5c-.41992-.03-.83008-.07-1.25-.12-1-.1-2.01-.24-3.01-.37-1.3999-.25-2.8-.57-4.2-.9-1.38-.38-2.75-.82-4.11011-1.3-1.33-.56-2.67993-1.06-3.97-1.75a38.05861,38.05861,0,0,1-3.75-2.18,28.7923,28.7923,0,0,1-3.38989-2.74c-.54-.49-1.03-1.05-1.52-1.58-.45008-.58-.93006-1.12-1.32007-1.74a11.38183,11.38183,0,0,1-1.79-3.93c2.1001,15.05,31.43,73.17,38.20007,84.51a7.74285,7.74285,0,0,0,1.34,1.93c.21.05,2.16.09,5.4.12,7.38.08,21.42005.1,36.53992.11h7.65015c9.31994,0,18.68994-.01,26.86987-.02h1.82007c13.59-.01995,23.44995-.04,23.44995-.04s.70007,3.65,1.8501,9.76v.02c.6499,3.44,1.43994,7.63995,2.31994,12.42,0,.01.01.02.01.03,2.91,15.72,6.86,37.55005,10.27,58.06.05994.34.11.69.17005,1.03.49,2.98.98,5.92,1.43994,8.82v.01c.26,1.61.51,3.19.76,4.76,1.41992,9.02,2.63989,17.37,3.5,24.29.3999,3.24.73,6.16.95,8.7v.01c.03.25.05.49.07007.72s.04.45.05993.67c.18006,2.31.28,4.25.27,5.74h7.70008S277.071,443.33523,276.811,441.41524Zm-155.61987-232.4c-.23.12-.47.25-.70008.38a20.0911,20.0911,0,0,0-2.97,1.91,11.437,11.437,0,0,0-1.52,1.41,6.5465,6.5465,0,0,0-1.11,1.63c-1.13,2.34.36,4.88,2.33008,6.77a40.81565,40.81565,0,0,0,6.71,5.2c1.8999,1.23,3.86,2.41,5.80993,3.63.53.33,1.05994.66,1.59,1Z"></path><polygon points="144.769 307.245 113.654 444.379 122.491 444.379 151.543 309.3 144.769 307.245"></polygon><path d="M188.05579 309.40529l-12.03872 91.87419 8.79954-.81921 10.88883-91.05439C193.14261 309.40627 190.584 309.40608 188.05579 309.40529zM298.78189 390.61849L286.47194 348.894c-1.69561 4.315-3.375 8.45486-4.98271 12.32844l8.473 29.95928zM223.5671 219.10721a35.02953 35.02953 0 012.97791 7.44684c4.18153.72974 15.961 4.27017 19.144 20.99449 2.36308.13892 4.79656.3122 7.27046.52669C251.20948 220.44758 227.34 219.15276 223.5671 219.10721zM172.37514 123.13248a26.8482 26.8482 0 003.61814 1.46033 17.04979 17.04979 0 001.7884.44187c.62718.13427 1.27875.19567 2.02991.37122a4.09012 4.09012 0 01-2.03371.88935 4.80815 4.80815 0 01-2.258-.15848 4.905 4.905 0 01-1.961-1.12151A3.81475 3.81475 0 01172.37514 123.13248zM153.95112 127.14962c.48836.574.99058.99671 1.46431 1.4684.49029.45146.95174.91636 1.4201 1.39133.462.47929.92075.96981 1.34893 1.51261a9.33307 9.33307 0 011.20326 1.79015 6.43969 6.43969 0 01-2.0291-.83777 8.199 8.199 0 01-1.68372-1.34208 7.07689 7.07689 0 01-1.27735-1.77893A3.51905 3.51905 0 01153.95112 127.14962zM178.84924 165.905c1.52771 1.66979 2.96655 3.40405 4.392 5.14794 1.43444 1.73694 2.806 3.521 4.17749 5.30555 1.35278 1.79907 2.70373 3.59924 3.99463 5.448l1.934 2.77613c.61621.94848 1.25952 1.87561 1.85278 2.84375-.76929-.82532-1.48865-1.69165-2.23486-2.53662l-2.15381-2.60425c-1.43433-1.738-2.80848-3.52478-4.18079-5.31262-1.35376-1.80237-2.70715-3.60523-3.99792-5.4552C181.333 169.67477 180.04675 167.82211 178.84924 165.905zM167.48083 212.8818c2.64417-1.82446 5.24353-3.64392 7.80957-5.5061 2.5592-1.86865 5.08313-3.77161 7.53723-5.75733 2.48694-1.94616 4.87329-4.01171 7.23206-6.11682 2.38769-2.08435 4.59973-4.34118 6.94616-6.549a47.09925 47.09925 0 01-5.85009 7.65991q-.79725.91151-1.67591 1.74061c-.578.56042-1.14563 1.134-1.73364 1.68469-1.2041 1.06933-2.4104 2.13891-3.67053 3.14184a70.48106 70.48106 0 01-7.93018 5.49451A50.81411 50.81411 0 01167.48083 212.8818zM141.4392 252.72274a59.94781 59.94781 0 009.33252 1.08753c.78162.02942 1.5597.09094 2.34046.10962l2.34338.01721c1.55945.04394 3.12146-.05078 4.67969-.085a131.09161 131.09161 0 0018.56152-2.198l4.58545-.93555c1.53211-.29773 3.02588-.76428 4.54529-1.12219 3.05322-.67541 6.014-1.68213 9.02344-2.54187 1.51428-.40405 2.97339-.97143 4.45776-1.47107l4.45215-1.51745c2.95142-1.064 5.84643-2.27881 8.82336-3.333q-2.08776 1.09972-4.20752 2.14856c-1.41479.694-2.81189 1.43567-4.24646 2.09265l-4.36413 1.83765c-1.4585.60693-2.91236 1.2312-4.41553 1.72131-2.98279 1.047-5.96973 2.099-9.0365 2.89343-1.53015.40491-3.04541.8728-4.59631 1.19715l-4.64807.99414a101.639 101.639 0 01-18.90906 1.78869A61.67786 61.67786 0 01141.4392 252.72274z"></path></svg>