<svg xmlns="http://www.w3.org/2000/svg" viewBox="0.1 0 47.95 48"><path d="M24 0a24 24 0 1 1 .1 48 24 24 0 0 1 0-48zm2.4 9.4h-.3l-.1.4v.4c0 1-.3 1.7-.6 2.3-1.2 2.8-2.6 5.6-3.7 8.4l-2.3 5.7a71.8 71.8 0 0 0-1.1 3c-.4.9-1 2-1 3v.4c0 .7.7.4 1.3.3h.3c.3-.1.6 0 .8-.2V32h.1c.4.6.7 1 1.3 1.4.6.3 1.5.3 2.3.2.8-.2 1.4-.5 2-.8 2-1 3.3-2.3 4.4-4a8.5 8.5 0 0 0 1.4-4.3v-.9L31 22c-.4-1.3-1.3-2.6-2.7-2.7-.6 0-1.1.1-1.6.3-.5.1-.9.3-1.2.7l1-2.4.6-1.2c.3-.8.8-1.5 1-2.3l.5-1.2c.4-.8.8-1.8.8-2.7l-.2-.6c-.2-.3-.6-.3-1-.3l-1.8-.2zm12 9h-5.6v.7c1.6.2 1.8.3 1.8 2.2v8.9c0 1.9-.2 2-2 2.2v.6H39v-.6c-2-.2-2.2-.3-2.2-2v-3.6l1.6.4h1c2.2-.3 4.4-1.7 4.4-4.6 0-1.5-.6-2.5-1.5-3.2-.9-.7-2.1-1-3.8-1zm-27 0h-6v.7c1.8.2 2 .3 2 2.2v8.9c0 1.9-.2 2-2.1 2.2v.6h10.3l.8-3.6-.7-.1c-.4 1-.8 1.8-1.2 2.2-.5.6-1.3.7-2.5.7-.8 0-1.6 0-2-.3-.4-.2-.5-.6-.5-1.8v-8.8c0-2 .2-2 2-2.2v-.6zm17 4.8-.5 1.6c-.6 2.2-1.6 4-2.7 5.7l-.8 1.2c-.4.3-.9.7-1.4.7a1.3 1.3 0 0 1-1-.6c-.6-.8-.3-2.4 0-3.4s.8-2 1.2-2.8l1.4-2.6c.5-.8 1-1.7 1.7-2.2l.7-.3c1.3-.1 1.6 1.4 1.4 2.7zm9.7-4c1.8 0 3.3 1 3.3 3.5 0 2.8-1.8 3.6-3.2 3.6a4 4 0 0 1-1.5-.3v-5.5c0-.6 0-.9.2-1 .2-.2.6-.3 1.2-.3z" fill="rgb(250,231,148)"></path></svg>