<svg xmlns="http://www.w3.org/2000/svg" viewBox="0 0 231.8 118.5" style="enable-background:new 0 0 231.8 118.5" xml:space="preserve"><path fill="none" d="m61.1 77.9 10.2-.1L69.6 66zM174 12.4l1.1 3.5 21.3 12.8 5.5.8z"/><path fill="none" d="m61.1 77.9 10.2-.1L69.6 66zM199.9 51.2c-3.8 0-5.6 1.8-6.2 2.9l-9 16.8c-.3.5-.9.8-1.4.7-.4-.1-.8-.4-.9-.7h-1.8a3 3 0 0 0 2.4 2.4l.6.1a3 3 0 0 0 2.7-1.6l9-16.8c.1-.2 1.2-2 4.7-2h6.7l3-1.7-9.8-.1zM135.9 17.9c-5.1 0-10.3.1-15.3.3-47.7 2.3-85.1 14.5-101.5 30.3-1 .9-2 2.1-3 3.3 3.7-3.4 9.8-8.2 18.7-12.5 14.1-6.8 26.6-10 41.1-13.1a282.6 282.6 0 0 1 68.7-5.7c8.9.2 17.5.8 24.9 1.6l1.4.2-1.5-2.6c-9.9-1.2-21.7-1.8-33.5-1.8zM63.3 57.5c2.4-3 6.1-4.5 11.2-4.5h9.3l1.4-1.7H74.4c-5.8 0-9.9 1.7-12.6 5.1l-14.7 19L39 85.9l1.5 1 22.8-29.4z"/><path fill="#FFF" d="M224.1 55.3c-1.6-3.3-4-6.6-7.1-9.7a65.1 65.1 0 0 0-13.1-10l7.6-2.7 3.9-1.4-3.6-2.2-39-23.9-2-1.2-.8 2.1-3.3 7.6c-6.7-.6-14.3-1.1-21.9-1.3l-8.9-.1c-5.3 0-10.6.1-15.5.4a237 237 0 0 0-81.6 16.8 81.1 81.1 0 0 0-24.5 15.9 36.4 36.4 0 0 0-7.1 9.7 25.8 25.8 0 0 0-2.7 10.9v.9c.1 4.1 1.1 8.1 2.9 11.7a39 39 0 0 0 15.2 15.3c9.1 5.5 21.6 9.9 37.1 13 13.2 2.6 28.8 4.3 45 4.9H105.6l6.2.1h7.6l6.2-.1H126.5c16.3-.6 31.8-2.3 45.1-4.9 15.5-3.1 28-7.5 37.1-13a39 39 0 0 0 15.2-15.3c1.9-3.7 2.8-7.6 2.9-11.7v-.9c0-3.6-.9-7.3-2.7-10.9z"/><path fill="#FF6319" d="m173.8 10.3-1.2-.8-.6 1.3-3 6.9c-7.4-.8-15.7-1.3-24.3-1.5H142.3l-4.4-.1H133.2l-4.5.1-2.6.1h-.9l-4.7.2A229.2 229.2 0 0 0 40.3 33a77.5 77.5 0 0 0-23.4 15.1 26.8 26.8 0 0 0-8.8 18.2v.7c.1 3.6 1 7 2.5 10.1 2.8 5.4 7.6 10 13.8 13.8 9.4 5.7 21.9 9.8 35.9 12.5a278 278 0 0 0 44.4 4.8h.9c26.3.7 40.1-3 40.2-3.1.6-.2 1-.8.9-1.4-.1-.6-.7-1.1-1.3-1.1l-1.9.1c-3.7.1-12.6.4-23.6.1-5.2-.1-10.9-.4-16.7-.8a172.2 172.2 0 0 1-53.7-10.8H33.2l4.9-6.3a29.7 29.7 0 0 1-7.6-7.3 16.3 16.3 0 0 1-3.4-10c0-2.2.8-4.4 2.1-6.6 2.4-3.8 7-7.5 13.2-10.8 9.4-5 22.5-9.1 37.8-11.8 13.7-2.5 29.1-3.8 45-3.8h1.1l4.5.1c10.4.3 20.4 1.1 29.8 2.4l-1.3 3-3.1 7.2 2.6-.8 48.4-16.1-33.4-20.1zM169.5 22c-7.4-.8-16-1.4-24.9-1.6l-8.6-.1a294.7 294.7 0 0 0-60.1 5.8c-14.5 3-27 6.3-41.1 13.1-8.9 4.3-15 9.1-18.7 12.5a19 19 0 0 1 3-3.3c16.4-15.7 53.8-28 101.6-30.2a382.9 382.9 0 0 1 48.9 1.4l1.5 2.6-1.6-.2zm5.6-6.1-1.1-3.5 27.9 17-5.6-.7-21.2-12.8z"/><path fill="none" d="M91.7 76.6c1.3-5 7.6-8.2 7.7-8.3a2.5 2.5 0 0 0 1.3-3.1c-.7-2.2-.8-5.5.9-7.8 3.9-5.3 10.7-6.3 13.5-6.4h.6c3.5 0 6.3.9 8.3 2.5.6.6 1.1 1.3 1.4 2l1.1 1.3.5.8.1.1c0-1.5-.5-3.4-2.3-5.1a14.4 14.4 0 0 0-9.2-2.9h-.7c-4.8.3-10.9 2-14.5 6.9a9.6 9.6 0 0 0-1.6 5.5c0 1.2.2 2.4.5 3.4l.4 1.1-1.1.5-1.2.7a30.7 30.7 0 0 0-4.2 3.4l-.2.2-.5.6-.7.9-.2.4-.5.8-.1.2.5 2.5c.1.1.2 0 .2-.2zM128.4 77.6c-.8 1.5-2.4 2.9-4.3 4.1-2.9 1.7-6.7 3-10.8 3h-.5c-2.3 0-4.2-.4-5.8-1-1.5-.2-2.9-.5-4-1 1.7 1.5 4.7 3.1 9.8 3.2h.5c4.1 0 7.5-1.2 9.6-2.2a15 15 0 0 0 6.3-5.1c.7-1.1 1-2.1 1.1-3.2-.4.7-1.1 1.4-1.9 2.2zM74.6 51.2c-5.8 0-9.9 1.7-12.6 5.1l-14.7 19-8.1 10.5L36 90l3.5-1.7 1.2-1.5 22.7-29.4c2.4-3 6.1-4.5 11.2-4.5h9.3l1.4-1.7H74.6zM135.4 68c-1.2-.8-3.8-1.7-6.1-1.9l-2.4-.1c-4.2 0-7.8.8-11.1 3.5-1.2 1-2 2.1-2.6 3l.1-.1c.4-.3.9-.8 1.6-1.2 1.8-1.2 2.9-1.7 2.9-1.7a19.1 19.1 0 0 1 10.8-2.2c4.3.4 6.1 1.8 7.1 2.7l1.2 1.4-.5-2.5-1-.9zM144.8 51.2h-10.1l2.1 1.7h12.3c-.6-.8-1.9-1.7-4.3-1.7zM176.9 51.2h-7.1c-2.3 0-4.1.6-5.5 2.9l-9.5 16.8c-.3.5-.8.8-1.4.7-.4-.1-.8-.4-1-.7h-1.8a3.2 3.2 0 0 0 2.5 2.5l.5.1c1.1 0 2.1-.6 2.7-1.6l9.5-16.8c.8-1.5 2-2.1 4-2.1h10.5c-.4-1.1-1.7-1.7-3.4-1.8z"/><path fill="#FF6319" d="M135.8 70.1c-1-.9-2.7-2.3-7.1-2.7l-1.6-.1c-1.4 0-5.7.2-9.2 2.3 0 0-1.1.5-2.9 1.7l-1.6 1.2-.1.1c.5-.9 1.3-2 2.6-3 3.3-2.7 6.9-3.5 11.1-3.5l2.4.1c2.3.2 4.9 1.1 6.1 1.9l1.1 1-.4-2.1c-1.5-1-4.2-1.9-6.7-2.1-5.3-.3-10.2.2-14.4 3.7-3.9 3.2-4 6.8-4 6.8s3.4-2.3 7.8-3.3c4.9-1.1 8 .4 8.8 2.1 1.6 3.5-6 9.4-14.6 9.2-7.9-.2-10.6-4-9.8-7.6 1.3-6.4 9.5-9.7 9.5-9.7s-3.9-1.6-2.3-5c.8-1.4 3-3.6 7.4-3.9 7.7-.4 10.6 3 10.6 3s1.6-4.7-2.4-8.6a16 16 0 0 0-10.7-3.2c-5 .3-11.5 2.1-15.5 7.5-2.2 3-2.3 7.2-1.3 10.1 0 0-4.8 2.3-7.5 6.5l.4 2 .1-.2.5-.8.2-.4.7-.9.5-.6.2-.2 1.4-1.4c1-.9 2.1-1.6 2.8-2l1.2-.7 1.1-.5-.4-1.1c-.3-1-.5-2.2-.5-3.4 0-2 .5-4 1.6-5.5a19 19 0 0 1 14.5-6.9h.7c3.1 0 6.5.6 9.2 2.9a7.3 7.3 0 0 1 2.3 5.1l-.1-.1-.5-.8-1.1-1.3c-.3-.7-.8-1.4-1.4-2a12.8 12.8 0 0 0-8.3-2.5h-.6c-2.8.2-9.6 1.1-13.5 6.4-1.7 2.3-1.6 5.6-.9 7.8.4 1.2-.1 2.6-1.3 3.1-.1 0-6.4 3.3-7.7 8.3l-.1.4 2.1 10.7c3 2.2 7.5 4.1 12.1 4.6a45 45 0 0 0 21.3-2.8c5-2.1 9.3-5.7 11.3-9.9l-1.5-8.1-1.6-1.6zm-6.6 8.4c-1.2 2-3.5 3.8-6.3 5.1-2.1 1-5.4 2.2-9.6 2.2h-.5c-5.1-.1-8.1-1.6-9.8-3.2 1.1.5 2.5.8 4 1 1.6.6 3.5 1 5.8 1h.5c4.1 0 7.9-1.3 10.8-3 1.9-1.2 3.4-2.5 4.3-4.1.8-.7 1.5-1.5 1.9-2.2 0 1.1-.4 2.2-1.1 3.2z"/><g fill="#4C3327"><path d="M199.9 49.9c-4.3 0-6.6 2.1-7.4 3.6l-9 16.9s-1.4-15.1-1.7-16.9c-.3-2.3-2.5-3.5-4.9-3.5h-7.1c-2.6 0-5 .8-6.7 3.6l-9.5 16.8s-2.3-14.9-2.7-16.5c-.4-1.6-2.1-4-6.3-4h-11.7l3 17.1.4 2.1.5 2.5 1.5 8.1 1.2 6.5c.9 4.6 4.6 5.3 7.6 5.3h4.1a8 8 0 0 0 6.9-3.7l9.3-14.8 2.5 13.7c.7 3.4 3.9 4.9 7 4.9h5.9c2.9 0 6.2-2.4 7.6-4.7l21.4-36.8-11.9-.2zM136.7 53l-2.1-1.7h10.1c2.4 0 3.7.9 4.3 1.7h-12.3zm33.2 0c-2 0-3.1.6-4 2.1l-9.5 16.8c-.6 1-1.6 1.6-2.7 1.6l-.5-.1c-1.3-.2-2.2-1.2-2.5-2.5h1.8c.2.4.5.7 1 .7.6.1 1.1-.2 1.4-.7l9.5-16.8c1.4-2.4 3.2-2.9 5.5-2.9h7.1c1.7 0 2.9.7 3.4 1.7h-10.5zm36.7 0h-6.7c-3.5 0-4.6 1.8-4.7 2l-9 16.8a3 3 0 0 1-2.7 1.6l-.6-.1a3 3 0 0 1-2.4-2.4h1.8c.2.4.5.7.9.7.6.1 1.2-.2 1.4-.7l9-16.8c.6-1.1 2.4-2.9 6.2-2.9h9.7l-2.9 1.8zM93.7 87.7 91.6 77l-.5-2.5-.4-2-3.1-16.3-1.1-6.3H74.6c-6.1 0-10.6 1.9-13.6 5.6L38.1 85.1l-4.9 6.3h18.4l4.3-5.3h16.6l.8 5.4h21.2l-.8-3.8zm-32.6-9.8L69.6 66l1.7 11.8-10.2.1zM83.9 53h-9.4c-5.1 0-8.8 1.5-11.2 4.5L40.6 86.9l-1.2 1.5-3.5 1.7 3.2-4.2 8.1-10.5 14.7-19c2.7-3.4 6.8-5.1 12.6-5.1h10.8L83.9 53z"/></g><path fill="#4C3327" d="M203.2 112c-3 0-5.2-2.3-5.2-5.2a5 5 0 0 1 5.2-5.2 5 5 0 0 1 5.1 5.2 5 5 0 0 1-5.1 5.2zm0-9.5c-2.3 0-4 1.8-4 4.3 0 2.4 1.5 4.3 4 4.3 2.2 0 4-1.8 4-4.3 0-2.6-1.8-4.3-4-4.3zm-1.1 7.3h-1V104h2.2c1.4 0 2.1.5 2.1 1.7 0 1.1-.6 1.5-1.5 1.6l1.6 2.5h-1.1l-1.5-2.5h-.9v2.5zm1.1-3.3c.7 0 1.3-.1 1.3-.9 0-.7-.7-.8-1.3-.8h-1.1v1.7h1.1z"/></svg>