<?xml version="1.0" encoding="utf-8"?>
<svg version="1.1" id="logo" xmlns="http://www.w3.org/2000/svg" xmlns:xlink="http://www.w3.org/1999/xlink" x="0px" y="0px"
	 viewBox="0 0 231.8 118.5" style="enable-background:new 0 0 231.8 118.5;" xml:space="preserve">
<g>
	<polygon fill="none" points="61.1,77.9 71.3,77.8 69.6,66 	"/>
	<polygon fill="none" points="174,12.4 175.1,15.9 196.4,28.7 201.9,29.5 	"/>
	<polygon fill="none" points="61.1,77.9 71.3,77.8 69.6,66 	"/>
	<path fill="none" d="M199.9,51.2c-3.8,0-5.6,1.8-6.2,2.9c-0.8,1.4-9,16.8-9,16.8c-0.3,0.5-0.9,0.8-1.4,0.7
		c-0.4-0.1-0.8-0.4-0.9-0.7h-1.8c0.2,1.2,1.2,2.2,2.4,2.4c0.2,0,0.4,0.1,0.6,0.1c1.1,0,2.2-0.6,2.7-1.6c0.1-0.2,8.2-15.4,9-16.8
		c0,0,0,0,0,0c0.1-0.2,1.2-2,4.7-2h6.7l3-1.7c0,0,0,0,0,0C206.5,51.2,201.2,51.2,199.9,51.2z"/>
	<g>
		<path fill="none" d="M135.9,17.9c-5.1,0-10.3,0.1-15.3,0.3C72.9,20.5,35.5,32.7,19.1,48.5c-1,0.9-2,2.1-3,3.3
			c3.7-3.4,9.8-8.2,18.7-12.5c14.1-6.8,26.6-10,41.1-13.1c13.2-2.8,28.2-4.7,44.9-5.5c4.8-0.2,10-0.3,15.2-0.3c2.9,0,5.8,0,8.6,0.1
			c8.9,0.2,17.5,0.8,24.9,1.6l1.4,0.2l-1.5-2.6C159.5,18.5,147.7,17.9,135.9,17.9z"/>
		<path fill="none" d="M63.3,57.5c2.4-3,6.1-4.5,11.2-4.5h5.1h4.2l1.4-1.7c-1.7,0-4.9,0-5.7,0c-1.6,0-3.4,0-5.1,0
			c-5.8,0-9.9,1.7-12.6,5.1c-1.1,1.4-8.1,10.4-14.7,19c-2.9,3.8-5.8,7.5-8.1,10.5c0.5,0.3,1,0.6,1.5,1
			C48.1,77.1,61.7,59.5,63.3,57.5z"/>
		<g>
			<path fill="#FFFFFF" d="M224.1,55.3c-1.6-3.3-4-6.6-7.1-9.7c-3.5-3.5-7.7-6.8-13.1-10l7.6-2.7l3.9-1.4l-3.6-2.2L172.8,5.4l-2-1.2
				L170,6.3l-3.3,7.6c-6.7-0.6-14.3-1.1-21.9-1.3c-2.9-0.1-5.9-0.1-8.9-0.1c-5.3,0-10.6,0.1-15.5,0.4c-31.6,1.5-60.6,7.5-81.6,16.8
				c-10.4,4.7-18.7,10-24.5,15.9c-3.1,3.1-5.5,6.4-7.1,9.7c-1.7,3.6-2.7,7.3-2.7,10.9c0,0.3,0,0.6,0,0.9c0.1,4.1,1.1,8.1,2.9,11.7
				c2.9,5.8,8,10.9,15.2,15.3c9.1,5.5,21.6,9.9,37.1,13c13.2,2.6,28.8,4.3,45,4.9l0.2,0c0.2,0,0.5,0,0.7,0c2.1,0.1,4.2,0.1,6.2,0.1
				c1.3,0,2.5,0,3.8,0c1.2,0,2.5,0,3.8,0c2,0,4.1,0,6.2-0.1c0.3,0,0.5,0,0.7,0l0.2,0c16.3-0.6,31.8-2.3,45.1-4.9
				c15.5-3.1,28-7.5,37.1-13c7.2-4.4,12.3-9.5,15.2-15.3c1.9-3.7,2.8-7.6,2.9-11.7c0-0.3,0-0.6,0-0.9
				C226.8,62.6,225.9,58.9,224.1,55.3z"/>
			<path fill="#FF6319" d="M173.8,10.3C173.8,10.3,173.8,10.3,173.8,10.3l-1.2-0.8l-0.6,1.3c0,0,0,0,0,0l-3,6.9
				c-7.4-0.8-15.7-1.3-24.3-1.5c-0.7,0-1.4,0-2.2,0c-0.1,0-0.1,0-0.2,0c-1.5,0-2.9,0-4.4-0.1c0,0-0.1,0-0.1,0c-1.5,0-3,0-4.5,0h-0.1
				c-1.5,0-3,0-4.5,0.1h0c-0.9,0-1.7,0-2.6,0.1l-0.9,0c-1.6,0.1-3.1,0.1-4.7,0.2C87.9,18,60.1,24.2,40.3,33
				c-9.9,4.4-17.8,9.5-23.4,15.1c-5.5,5.6-8.7,11.7-8.8,18.2c0,0.2,0,0.5,0,0.7c0.1,3.6,1,7,2.5,10.1c2.8,5.4,7.6,10,13.8,13.8
				c9.4,5.7,21.9,9.8,35.9,12.5c14,2.8,29.4,4.3,44.4,4.8h0c0.3,0,0.6,0,0.9,0h0c26.3,0.7,40.1-3,40.2-3.1c0.6-0.2,1-0.8,0.9-1.4
				c-0.1-0.6-0.7-1.1-1.3-1.1c0,0-0.7,0-1.9,0.1c-3.7,0.1-12.6,0.4-23.6,0.1c-5.2-0.1-10.9-0.4-16.7-0.8
				c-24.4-1.7-41.8-5.8-53.7-10.8H33.2c0,0,2-2.6,4.9-6.3c-3.4-2.4-5.9-4.8-7.6-7.3c-2.5-3.5-3.5-6.9-3.4-10c0-2.2,0.8-4.4,2.1-6.6
				c2.4-3.8,7-7.5,13.2-10.8c9.4-5,22.5-9.1,37.8-11.8c13.7-2.5,29.1-3.8,45-3.8l1.1,0c1.5,0,3,0,4.5,0.1
				c10.4,0.3,20.4,1.1,29.8,2.4l-1.3,3l-3.1,7.2l2.6-0.8c0,0,0,0,0,0l48.4-16.1L173.8,10.3z M169.5,22c-7.4-0.8-16-1.4-24.9-1.6
				c-2.9-0.1-5.8-0.1-8.6-0.1c-5.2,0-10.3,0.1-15.2,0.3c-16.7,0.8-31.7,2.8-44.9,5.5c-14.5,3-27,6.3-41.1,13.1
				c-8.9,4.3-15,9.1-18.7,12.5c0.9-1.2,1.9-2.4,3-3.3c16.4-15.7,53.8-28,101.6-30.2c5-0.2,10.1-0.3,15.3-0.3
				c11.8,0,23.6,0.6,33.6,1.7l1.5,2.6L169.5,22z M175.1,15.9l-1.1-3.5l27.9,17l-5.6-0.7L175.1,15.9z"/>
		</g>
		<path fill="none" d="M91.7,76.6c1.3-5,7.6-8.2,7.7-8.3c1.2-0.6,1.7-1.9,1.3-3.1c-0.7-2.2-0.8-5.5,0.9-7.8
			c3.9-5.3,10.7-6.3,13.5-6.4c0.2,0,0.4,0,0.6,0c3.5,0,6.3,0.9,8.3,2.5c0.6,0.6,1.1,1.3,1.4,2c0,0,0.5,0.5,1.1,1.3
			c0.2,0.3,0.4,0.5,0.5,0.8c0,0,0.1,0,0.1,0.1c0-1.5-0.5-3.4-2.3-5.1c-2.7-2.2-6.1-2.9-9.2-2.9c-0.2,0-0.5,0-0.7,0
			c-4.8,0.3-10.9,2-14.5,6.9c-1.1,1.5-1.6,3.6-1.6,5.5c0,1.2,0.2,2.4,0.5,3.4l0.4,1.1l-1.1,0.5c0,0-0.5,0.2-1.2,0.7
			c-0.8,0.5-1.8,1.2-2.8,2c-0.5,0.4-1,0.9-1.4,1.4c-0.1,0.1-0.2,0.2-0.2,0.2c-0.2,0.2-0.4,0.4-0.5,0.6c-0.2,0.3-0.5,0.6-0.7,0.9
			c-0.1,0.1-0.2,0.3-0.2,0.4c-0.2,0.3-0.3,0.5-0.5,0.8c0,0.1-0.1,0.1-0.1,0.2c0.2,0.8,0.3,1.7,0.5,2.5
			C91.6,76.9,91.7,76.8,91.7,76.6z"/>
		<path fill="none" d="M128.4,77.6c-0.8,1.5-2.4,2.9-4.3,4.1c-2.9,1.7-6.7,3-10.8,3c-0.2,0-0.3,0-0.5,0c-2.3,0-4.2-0.4-5.8-1
			c-1.5-0.2-2.9-0.5-4-1c1.7,1.5,4.7,3.1,9.8,3.2c0.2,0,0.3,0,0.5,0c4.1,0,7.5-1.2,9.6-2.2c2.8-1.3,5.1-3.2,6.3-5.1
			c0.7-1.1,1-2.1,1.1-3.2C129.9,76.1,129.2,76.8,128.4,77.6z"/>
		<path fill="none" d="M74.6,51.2c-5.8,0-9.9,1.7-12.6,5.1c-1.1,1.4-8.1,10.4-14.7,19c-2.9,3.8-5.8,7.5-8.1,10.5
			c-1.3,1.7-2.4,3.1-3.2,4.2h0l3.5-1.7c0.4-0.5,0.8-1,1.2-1.5c7.5-9.8,21.1-27.3,22.7-29.4c2.4-3,6.1-4.5,11.2-4.5h5.1h4.2l1.4-1.7
			c-1.7,0-4.9,0-5.7,0C78.1,51.2,76.4,51.2,74.6,51.2z"/>
		<path fill="none" d="M135.4,68c-1.2-0.8-3.8-1.7-6.1-1.9c-0.8,0-1.6-0.1-2.4-0.1c-4.2,0-7.8,0.8-11.1,3.5c-1.2,1-2,2.1-2.6,3
			c0,0,0.1,0,0.1-0.1c0.4-0.3,0.9-0.8,1.6-1.2c1.8-1.2,2.9-1.7,2.9-1.7c3.5-2.1,7.8-2.3,9.2-2.3c0.6,0,1.1,0,1.6,0.1
			c4.3,0.4,6.1,1.8,7.1,2.7c0.5,0.5,0.9,1,1.2,1.4c-0.1-0.8-0.3-1.7-0.5-2.5C136.2,68.7,135.8,68.3,135.4,68z"/>
		<path fill="none" d="M144.8,51.2c-2.1,0-7.4,0-10.1,0l2.1,1.7h8h4.3C148.5,52.1,147.2,51.2,144.8,51.2z"/>
		<path fill="none" d="M176.9,51.2c-1.2,0-5.9,0-7.1,0c-2.3,0-4.1,0.6-5.5,2.9c-0.9,1.6-9.5,16.8-9.5,16.8c-0.3,0.5-0.8,0.8-1.4,0.7
			c-0.4-0.1-0.8-0.4-1-0.7h-1.8c0.2,1.2,1.2,2.2,2.5,2.5c0.2,0,0.4,0.1,0.5,0.1c1.1,0,2.1-0.6,2.7-1.6c0.1-0.2,8.6-15.3,9.5-16.8
			c0.8-1.5,2-2.1,4-2.1h4.2h2.9h3.4C179.9,51.9,178.6,51.3,176.9,51.2z"/>
		<g>
			<path fill="#FF6319" d="M135.8,70.1c-1-0.9-2.7-2.3-7.1-2.7c-0.5,0-1-0.1-1.6-0.1c-1.4,0-5.7,0.2-9.2,2.3c0,0-1.1,0.5-2.9,1.7
				c-0.7,0.4-1.2,0.8-1.6,1.2c0,0-0.1,0-0.1,0.1c0.5-0.9,1.3-2,2.6-3c3.3-2.7,6.9-3.5,11.1-3.5c0.8,0,1.6,0,2.4,0.1
				c2.3,0.2,4.9,1.1,6.1,1.9c0.4,0.3,0.8,0.6,1.1,1c-0.1-0.7-0.3-1.4-0.4-2.1c0,0,0,0,0,0c-1.5-1-4.2-1.9-6.7-2.1
				c-5.3-0.3-10.2,0.2-14.4,3.7c-3.9,3.2-4,6.8-4,6.8s3.4-2.3,7.8-3.3c4.9-1.1,8,0.4,8.8,2.1c1.6,3.5-6,9.4-14.6,9.2
				c-7.9-0.2-10.6-4-9.8-7.6c1.3-6.4,9.5-9.7,9.5-9.7s-3.9-1.6-2.3-5c0.8-1.4,3-3.6,7.4-3.9c7.7-0.4,10.6,3,10.6,3s1.6-4.7-2.4-8.6
				c-3.3-2.7-7.4-3.3-10.7-3.2c-5,0.3-11.5,2.1-15.5,7.5c-2.2,3-2.3,7.2-1.3,10.1c0,0-4.8,2.3-7.5,6.5c0.1,0.7,0.3,1.3,0.4,2
				c0-0.1,0.1-0.1,0.1-0.2c0.1-0.3,0.3-0.5,0.5-0.8c0.1-0.1,0.1-0.3,0.2-0.4c0.2-0.3,0.5-0.6,0.7-0.9c0.2-0.2,0.4-0.4,0.5-0.6
				c0.1-0.1,0.1-0.2,0.2-0.2c0.5-0.5,1-1,1.4-1.4c1-0.9,2.1-1.6,2.8-2c0.8-0.5,1.2-0.7,1.2-0.7l1.1-0.5l-0.4-1.1
				c-0.3-1-0.5-2.2-0.5-3.4c0-2,0.5-4,1.6-5.5c3.6-4.9,9.7-6.7,14.5-6.9c0.2,0,0.4,0,0.7,0c3.1,0,6.5,0.6,9.2,2.9
				c1.8,1.7,2.2,3.6,2.3,5.1c0,0-0.1,0-0.1-0.1c-0.2-0.3-0.3-0.5-0.5-0.8c-0.6-0.8-1.1-1.3-1.1-1.3c-0.3-0.7-0.8-1.4-1.4-2
				c-2.1-1.7-4.9-2.5-8.3-2.5c-0.2,0-0.4,0-0.6,0c-2.8,0.2-9.6,1.1-13.5,6.4c-1.7,2.3-1.6,5.6-0.9,7.8c0.4,1.2-0.1,2.6-1.3,3.1
				c-0.1,0-6.4,3.3-7.7,8.3c0,0.2-0.1,0.3-0.1,0.4c0.8,4.1,1.6,8,2.1,10.7c3,2.2,7.5,4.1,12.1,4.6c7.3,0.8,15.5-0.3,21.3-2.8
				c5-2.1,9.3-5.7,11.3-9.9c-0.4-2.4-0.9-5.2-1.5-8.1C136.7,71.1,136.3,70.6,135.8,70.1z M129.2,78.5c-1.2,2-3.5,3.8-6.3,5.1
				c-2.1,1-5.4,2.2-9.6,2.2c-0.2,0-0.3,0-0.5,0c-5.1-0.1-8.1-1.6-9.8-3.2c1.1,0.5,2.5,0.8,4,1c1.6,0.6,3.5,1,5.8,1
				c0.2,0,0.3,0,0.5,0c4.1,0,7.9-1.3,10.8-3c1.9-1.2,3.4-2.5,4.3-4.1c0.8-0.7,1.5-1.5,1.9-2.2C130.3,76.4,129.9,77.5,129.2,78.5z"/>
			<g>
				<path fill="#4C3327" d="M199.9,49.9c-4.3,0-6.6,2.1-7.4,3.6c-0.8,1.5-9,16.9-9,16.9s-1.4-15.1-1.7-16.9c-0.3-2.3-2.5-3.5-4.9-3.5
					h-7.1c-2.6,0-5,0.8-6.7,3.6c-0.9,1.6-9.5,16.8-9.5,16.8s-2.3-14.9-2.7-16.5c-0.4-1.6-2.1-4-6.3-4c-2.9,0-11.7,0-11.7,0
					s1.5,8.3,3,17.1c0.1,0.7,0.3,1.4,0.4,2.1c0.2,0.8,0.3,1.7,0.5,2.5c0.5,2.9,1,5.7,1.5,8.1c0.6,3.1,1,5.5,1.2,6.5
					c0.9,4.6,4.6,5.3,7.6,5.3h4.1c3.8,0,5.8-2.1,6.9-3.7c1.1-1.6,9.3-14.8,9.3-14.8s1.8,10.3,2.5,13.7c0.7,3.4,3.9,4.9,7,4.9h5.9
					c2.9,0,6.2-2.4,7.6-4.7c1.4-2.3,21.4-36.8,21.4-36.8S201.8,49.9,199.9,49.9z M136.7,53l-2.1-1.7h10.1c2.4,0,3.7,0.9,4.3,1.7
					H136.7z M169.9,53c-2,0-3.1,0.6-4,2.1c-0.9,1.6-9.4,16.7-9.5,16.8c-0.6,1-1.6,1.6-2.7,1.6c-0.2,0-0.4,0-0.5-0.1
					c-1.3-0.2-2.2-1.2-2.5-2.5h1.8c0.2,0.4,0.5,0.7,1,0.7c0.6,0.1,1.1-0.2,1.4-0.7c0,0,8.6-15.2,9.5-16.8c1.4-2.4,3.2-2.9,5.5-2.9
					h7.1c1.7,0,2.9,0.7,3.4,1.7H169.9z M206.6,53h-6.7c-3.5,0-4.6,1.8-4.7,2c0,0,0,0,0,0c-0.8,1.4-8.9,16.7-9,16.8
					c-0.5,1-1.6,1.6-2.7,1.6c-0.2,0-0.4,0-0.6-0.1c-1.2-0.2-2.2-1.2-2.4-2.4h1.8c0.2,0.4,0.5,0.7,0.9,0.7c0.6,0.1,1.2-0.2,1.4-0.7
					c0,0,8.2-15.4,9-16.8c0.6-1.1,2.4-2.9,6.2-2.9h9.7c0,0,0,0,0,0L206.6,53z"/>
				<path fill="#4C3327" d="M93.7,87.7c-0.5-2.7-1.3-6.5-2.1-10.7c-0.2-0.8-0.3-1.6-0.5-2.5c-0.1-0.7-0.3-1.3-0.4-2
					c-1.4-7.4-2.8-14.5-3.1-16.3c-0.5-2.9-1.1-6.3-1.1-6.3s-5.7,0-6.8,0h-5.1c-6.1,0-10.6,1.9-13.6,5.6
					c-1.7,2.1-15.4,19.9-22.9,29.6c-2.9,3.7-4.9,6.3-4.9,6.3h18.4l4.3-5.3l16.6,0l0.8,5.4h21.2C94.4,91.4,94.1,90,93.7,87.7z
					 M61.1,77.9L69.6,66l1.7,11.8L61.1,77.9z M83.9,53h-9.4c-5.1,0-8.8,1.5-11.2,4.5c-1.6,2.1-15.2,19.6-22.7,29.4
					c-0.4,0.5-0.8,1-1.2,1.5l-3.5,1.7h0c0.8-1.1,1.9-2.5,3.2-4.2c2.3-3,5.2-6.7,8.1-10.5c6.6-8.6,13.6-17.6,14.7-19
					c2.7-3.4,6.8-5.1,12.6-5.1h10.8L83.9,53z"/>
			</g>
		</g>
	</g>
</g>
<g id="_xAE_">
	<g>
		<path fill="#4C3327" d="M203.2,112c-3,0-5.2-2.3-5.2-5.2c0-3.2,2.4-5.2,5.2-5.2c2.7,0,5.1,2.1,5.1,5.2
			C208.3,109.9,205.9,112,203.2,112z M203.2,102.5c-2.3,0-4,1.8-4,4.3c0,2.4,1.5,4.3,4,4.3c2.2,0,4-1.8,4-4.3
			C207.2,104.2,205.4,102.5,203.2,102.5z M202.1,109.8h-1V104h2.2c1.4,0,2.1,0.5,2.1,1.7c0,1.1-0.6,1.5-1.5,1.6l1.6,2.5h-1.1
			l-1.5-2.5h-0.9V109.8z M203.2,106.5c0.7,0,1.3-0.1,1.3-0.9c0-0.7-0.7-0.8-1.3-0.8h-1.1v1.7H203.2z"/>
	</g>
</g>
</svg>
