<?xml version="1.0" standalone="no"?>
<!DOCTYPE svg PUBLIC "-//W3C//DTD SVG 20010904//EN"
 "http://www.w3.org/TR/2001/REC-SVG-20010904/DTD/svg10.dtd">
<svg version="1.0" xmlns="http://www.w3.org/2000/svg"
 width="290.000000pt" height="174.000000pt" viewBox="0 0 290.000000 174.000000"
 preserveAspectRatio="xMidYMid meet">
<metadata>
Created by potrace 1.10, written by Peter Selinger 2001-2011
</metadata>
<g transform="translate(0.000000,174.000000) scale(0.100000,-0.100000)"
fill="#000000" stroke="none">
<path d="M1024 1330 c-103 -15 -200 -58 -251 -112 -101 -105 -101 -281 -1
-385 l31 -32 -56 -75 c-144 -191 -251 -251 -343 -191 -82 54 -82 184 1 235 55
34 90 36 119 7 14 -15 26 -35 26 -47 0 -29 -35 -60 -70 -60 -23 0 -28 -4 -23
-16 4 -12 14 -14 37 -10 41 9 65 34 73 79 5 31 1 40 -26 68 -29 29 -36 31 -81
27 -92 -9 -160 -79 -168 -173 -9 -109 64 -194 173 -203 98 -8 187 55 325 231
52 67 80 94 90 90 8 -3 38 -8 67 -10 51 -5 52 -6 41 -32 -17 -45 -48 -194 -48
-236 l0 -40 58 -1 58 -1 2 80 c5 228 104 481 254 652 28 32 28 35 10 35 -47 0
-130 -24 -185 -53 -66 -34 -190 -153 -257 -246 -41 -56 -46 -60 -59 -44 -103
135 -43 320 125 383 218 81 584 18 858 -149 88 -53 95 -33 9 23 -247 159 -557
240 -789 206z m167 -241 c-63 -75 -128 -178 -161 -254 l-20 -46 -47 7 c-27 3
-50 8 -52 10 -19 17 152 218 247 291 46 35 85 63 87 63 3 0 -22 -32 -54 -71z
m-171 -494 c-6 -54 -12 -100 -14 -103 -13 -12 -25 13 -20 41 10 61 36 168 40
164 2 -2 0 -48 -6 -102z"/>
<path d="M2190 1143 c-53 -19 -54 -19 -46 -31 3 -5 28 -1 58 9 132 46 274 -3
339 -116 79 -138 -6 -382 -170 -487 -50 -31 -98 -37 -108 -12 -3 9 27 85 72
179 44 93 75 171 72 179 -8 21 -36 20 -88 -4 -24 -11 -60 -20 -80 -20 -32 0
-36 2 -32 23 3 14 -2 29 -11 37 -14 11 -20 10 -41 -10 -26 -24 -34 -73 -15
-85 15 -9 -60 -149 -120 -222 -66 -82 -129 -116 -144 -78 -5 14 122 302 147
333 8 11 0 13 -43 10 l-53 -3 -61 -131 c-34 -72 -69 -143 -79 -158 -20 -30
-73 -66 -98 -66 -32 0 -27 28 19 126 56 120 67 197 33 228 -20 18 -26 19 -69
7 -26 -7 -61 -23 -79 -37 -38 -29 -43 -30 -43 -5 0 26 -26 51 -54 51 -12 0
-43 -11 -69 -23 -41 -21 -45 -22 -36 -5 9 16 5 18 -39 18 l-49 0 -88 -187
c-48 -104 -91 -192 -96 -197 -18 -19 -8 -25 40 -24 l48 1 76 157 c77 161 105
197 158 202 18 2 25 -3 27 -18 3 -20 -118 -296 -139 -318 -18 -19 -8 -25 40
-24 l49 1 63 136 c73 159 95 192 144 215 69 33 71 4 9 -130 -49 -105 -61 -176
-35 -207 23 -29 82 -21 139 17 l50 33 13 -31 c12 -25 21 -32 51 -34 83 -7 185
83 272 240 31 57 57 106 58 109 2 3 29 9 60 13 l57 6 -56 -117 c-43 -90 -57
-128 -57 -165 -1 -66 26 -94 92 -92 144 5 284 154 328 350 20 91 14 148 -22
222 -29 60 -91 112 -163 137 -56 19 -172 18 -231 -2z"/>
<path d="M1989 1010 c-25 -24 -30 -37 -27 -67 2 -31 7 -39 26 -41 49 -7 97 72
72 117 -15 29 -36 26 -71 -9z"/>
</g>
</svg>
