<?xml version="1.0" standalone="no"?>
<!DOCTYPE svg PUBLIC "-//W3C//DTD SVG 20010904//EN"
 "http://www.w3.org/TR/2001/REC-SVG-20010904/DTD/svg10.dtd">
<svg version="1.0" xmlns="http://www.w3.org/2000/svg"
 width="200.000000pt" height="126.000000pt" viewBox="0 0 200.000000 126.000000"
 preserveAspectRatio="xMidYMid meet">
<metadata>
Created by potrace 1.10, written by Peter Selinger 2001-2011
</metadata>
<g transform="translate(0.000000,126.000000) scale(0.100000,-0.100000)"
fill="#000000" stroke="none">
<path d="M541 1200 c-44 -52 -41 -61 11 -34 29 15 34 15 65 0 44 -21 57 -20
36 2 -10 9 -30 32 -44 50 l-25 33 -43 -51z"/>
<path d="M1313 1121 c-107 -27 -170 -122 -143 -220 22 -83 95 -134 191 -134
165 0 255 171 154 291 -43 51 -133 79 -202 63z m91 -75 c45 -19 66 -52 66
-102 0 -76 -67 -124 -145 -103 -47 13 -75 52 -75 103 0 49 21 83 64 102 40 17
49 17 90 0z"/>
<path d="M15 945 l0 -175 105 0 c163 0 210 22 210 98 0 25 -8 42 -29 61 -28
27 -28 27 -10 50 21 26 24 62 9 92 -20 37 -63 49 -177 49 l-108 0 0 -175z
m199 99 c21 -8 21 -50 0 -58 -9 -3 -39 -6 -68 -6 l-52 0 0 35 0 35 52 0 c29 0
59 -3 68 -6z m-129 -85 c7 -20 -9 -49 -26 -49 -5 0 -9 18 -9 40 0 30 3 38 15
34 8 -3 17 -15 20 -25z m153 -54 c19 -7 15 -53 -5 -59 -10 -3 -45 -6 -78 -7
l-60 -3 -1 35 c0 19 1 37 2 40 3 6 120 1 142 -6z"/>
<path d="M481 978 c-35 -79 -72 -158 -82 -175 l-18 -33 49 0 c37 0 50 4 50 15
0 8 5 26 12 40 11 24 15 25 90 25 l80 0 15 -40 c16 -39 17 -40 66 -40 47 0 49
1 35 18 -16 18 -148 307 -148 322 0 6 -19 10 -43 10 l-43 0 -63 -142z m127 81
c2 -12 -5 -16 -28 -17 -27 -1 -29 1 -19 19 12 23 42 22 47 -2z m22 -138 c0 -3
-23 -6 -50 -7 -28 0 -50 0 -50 2 0 1 12 28 27 60 l26 58 24 -53 c12 -30 23
-56 23 -60z m-112 -13 c17 -17 15 -28 -6 -28 -10 0 -23 -5 -30 -12 -15 -15
-15 -6 0 27 13 28 19 30 36 13z m160 0 c7 -7 12 -20 12 -30 0 -16 -3 -17 -22
-6 -13 7 -24 13 -26 14 -5 2 10 34 17 34 4 0 12 -5 19 -12z"/>
<path d="M800 1082 l0 -38 58 4 58 4 -3 -98 c-2 -55 -5 -118 -6 -141 l-2 -43
54 0 c43 0 52 3 43 12 -8 8 -12 54 -12 141 l0 129 60 -4 60 -4 0 38 0 38 -155
0 -155 0 0 -38z m174 -28 l-16 -24 -18 23 c-17 20 -17 23 -2 28 9 3 24 4 34 1
16 -4 16 -6 2 -28z"/>
<path d="M1645 945 l0 -175 46 0 46 0 -4 55 c-2 30 -5 80 -6 110 -2 31 0 54 4
53 4 -2 46 -51 93 -110 80 -99 89 -108 121 -108 l34 0 3 175 3 175 -45 0 -45
0 3 -68 c2 -37 2 -85 0 -106 l-3 -39 -84 107 c-82 104 -85 106 -125 106 l-41
0 0 -175z m94 100 c36 -41 38 -49 13 -41 -11 4 -27 -2 -39 -13 l-21 -20 -4 44
c-6 77 4 83 51 30z m196 -224 c-5 -13 -12 -10 -36 19 -33 39 -36 50 -14 50 8
0 23 9 33 20 17 20 17 20 20 -26 2 -25 0 -54 -3 -63z"/>
<path d="M545 671 c-63 -16 -117 -56 -144 -108 -18 -36 -13 -124 9 -160 58
-96 204 -120 303 -51 56 40 83 135 56 205 -29 78 -140 134 -224 114z m108 -91
c59 -47 56 -143 -7 -181 -117 -72 -240 87 -135 175 39 33 104 36 142 6z"/>
<path d="M15 493 l0 -178 44 0 44 0 -6 73 c-5 69 -5 72 17 72 16 0 34 -17 64
-60 23 -32 42 -63 42 -69 0 -8 109 -21 119 -14 3 2 -9 18 -25 36 -34 36 -84
103 -84 111 0 3 7 6 15 6 31 0 65 47 65 87 0 83 -52 113 -197 113 l-98 0 0
-177z m205 92 c30 -36 -20 -70 -92 -63 -28 3 -31 7 -33 41 l-2 37 57 0 c38 0
62 -5 70 -15z m-136 -78 c8 -12 8 -22 0 -34 -21 -33 -34 -26 -34 17 0 43 13
50 34 17z m150 -12 c-4 -8 -10 -15 -15 -15 -5 0 -9 -12 -9 -27 l0 -26 -25 23
c-28 26 -27 30 18 46 18 6 33 12 34 13 1 0 0 -6 -3 -14z"/>
<path d="M858 543 c4 -153 15 -183 76 -213 75 -36 164 -22 216 34 23 26 25 35
28 154 2 70 8 133 14 140 8 9 -1 12 -43 12 l-54 0 3 -124 4 -123 -28 -22 c-36
-29 -79 -27 -110 4 -25 25 -26 29 -22 145 l3 120 -45 0 -45 0 3 -127z"/>
<path d="M1362 649 c-71 -36 -111 -124 -91 -203 30 -118 173 -169 302 -107
l46 22 3 80 3 79 -82 0 -83 0 0 -35 c0 -34 1 -35 40 -35 36 0 40 -3 40 -25 0
-33 -32 -48 -89 -42 -61 7 -101 49 -101 108 0 33 6 47 34 75 28 28 41 34 78
34 24 0 54 -7 67 -16 22 -16 24 -15 53 13 l30 30 -44 22 c-60 28 -148 28 -206
0z"/>
<path d="M1718 658 c17 -17 17 -309 0 -326 -6 -6 -10 -13 -7 -14 2 -2 66 -2
142 0 l137 3 0 40 c0 36 -2 39 -19 29 -11 -5 -51 -10 -90 -10 l-71 0 0 40 0
40 60 0 60 0 0 35 0 35 -60 0 -60 0 0 36 0 36 90 -4 90 -3 0 38 0 37 -142 0
c-110 0 -139 -3 -130 -12z m78 -142 c19 -19 18 -30 -6 -51 -20 -18 -20 -17
-20 23 0 45 4 50 26 28z"/>
<path d="M22 148 c-16 -16 -16 -113 1 -126 6 -5 24 -10 40 -10 24 0 27 4 27
37 0 30 -4 37 -19 37 -16 0 -19 -5 -14 -28 3 -17 1 -28 -5 -28 -14 0 -22 28
-18 65 3 30 26 49 26 21 0 -9 7 -16 15 -16 18 0 19 14 5 41 -12 21 -40 25 -58
7z"/>
<path d="M160 84 c0 -56 3 -75 13 -71 7 2 11 17 9 37 -2 21 0 30 7 25 6 -3 11
-17 11 -30 0 -24 16 -42 28 -31 3 4 1 20 -5 36 -7 18 -7 32 -2 36 12 7 11 51
-1 59 -6 4 -22 8 -35 11 -25 4 -25 4 -25 -72z"/>
<path d="M299 156 c-2 -2 -2 -36 -1 -76 3 -48 7 -70 15 -67 15 5 16 139 1 144
-5 2 -12 1 -15 -1z"/>
<path d="M394 147 c-3 -8 -4 -41 -2 -73 3 -56 4 -59 31 -62 19 -2 27 1 27 12
0 9 -7 16 -16 16 -13 0 -15 10 -12 57 2 39 -1 58 -9 60 -7 3 -15 -2 -19 -10z"/>
<path d="M510 85 l0 -75 30 0 c20 0 30 5 30 15 0 8 -7 15 -15 15 -12 0 -15 13
-15 60 0 47 -3 60 -15 60 -12 0 -15 -15 -15 -75z"/>
<path d="M630 86 c0 -61 3 -76 15 -76 10 0 15 11 15 35 0 19 5 35 10 35 6 0
10 -16 10 -35 0 -25 4 -35 15 -35 13 0 15 12 13 72 -2 46 -7 73 -15 76 -9 2
-13 -8 -13 -32 0 -44 -18 -48 -22 -4 -2 17 -9 33 -15 36 -10 3 -13 -16 -13
-72z"/>
<path d="M786 144 c-21 -21 -21 -97 0 -118 38 -39 74 -8 74 63 0 40 -19 71
-45 71 -7 0 -21 -7 -29 -16z m42 -61 c-2 -27 -7 -48 -13 -48 -5 0 -11 21 -13
48 -3 38 0 47 13 47 13 0 16 -9 13 -47z"/>
<path d="M927 153 c-12 -12 -7 -109 6 -128 22 -29 65 -13 72 28 10 51 2 102
-15 102 -11 0 -15 -13 -15 -57 0 -79 -19 -79 -23 0 -3 58 -9 72 -25 55z"/>
<path d="M1082 148 c-19 -19 -14 -47 15 -72 16 -14 23 -28 19 -35 -6 -9 -11
-7 -21 6 -16 22 -33 9 -19 -15 16 -24 45 -27 60 -7 15 20 6 43 -28 77 -22 22
-17 38 7 18 23 -19 41 2 20 24 -19 19 -37 20 -53 4z"/>
<path d="M1209 155 c0 -3 0 -35 -1 -72 l0 -68 31 -3 c24 -3 31 1 31 13 0 11
-5 15 -14 12 -21 -8 -28 31 -8 42 15 9 15 11 -3 25 -20 16 -20 16 3 22 33 9
28 34 -8 34 -16 0 -30 -2 -31 -5z"/>
<path d="M1421 146 c-10 -11 -10 -20 -1 -36 9 -16 9 -25 1 -33 -12 -12 -15
-56 -3 -58 64 -9 100 -1 72 16 -7 4 -7 13 0 26 9 15 7 19 -5 19 -8 0 -15 -5
-15 -12 0 -9 -3 -9 -12 0 -9 9 -7 16 7 32 15 16 17 25 9 38 -15 23 -38 26 -53
8z"/>
<path d="M1646 152 c-3 -3 -6 -34 -6 -69 0 -70 12 -84 56 -65 26 12 34 57 12
65 -10 3 -10 7 0 19 14 17 7 48 -12 49 -6 0 -19 2 -28 4 -9 2 -19 0 -22 -3z"/>
<path d="M1806 148 c-11 -32 -27 -130 -23 -135 9 -9 27 7 27 25 0 13 5 12 20
-8 28 -37 33 -20 18 56 -13 63 -32 92 -42 62z"/>
<path d="M1924 145 c-3 -7 -4 -38 -2 -70 3 -68 25 -87 31 -28 l3 38 8 -33 c9
-33 22 -49 33 -38 3 3 0 19 -7 36 -10 23 -10 33 0 45 19 23 3 52 -31 57 -19 3
-33 0 -35 -7z"/>
</g>
</svg>
