<svg aria-label="Benihana Logo" id="Layer_1" data-name="Layer 1" xmlns="http://www.w3.org/2000/svg" viewBox="0 0 503 105.9"><defs><style>.cls-1{fill:#ed1c24}</style></defs><path class="cls-1" d="m417.5 12.6.9 4.3v84.7l-1 .5H393l-.6-.6V31a6.2 6.2 0 0 0-3.3-4 4.8 4.8 0 0 0-4.3 1l-2 2.4v71.1l-.8.5h-25.3l-.8-.6V21.8c-.5-5.9-1.2-11.7-2-17.4l.6-.3h23.9l.8 1.1a51.6 51.6 0 0 0 2.2 9.5l.4-.3C383.4 9.7 388 5 393.1 4c9-2 20.3-.7 24.4 8.6ZM115 4.8V27l-.6.6H91.6c-.8.2-.7.5-.7 1.2v12.7l.8.4h23.5l.6.8v21.5l-.8.9H91.6l-.6 1v12l1 .8h23.6l.4.5v22.2l-.6.7H77.3c-4.9-1.3-8.5-6.8-9.9-11.2l-1-9.2V18.4c.1-6 4.3-12.3 10.4-14l3.9-.5h33.6ZM214.2 4.6v96.9l-.9.6h-23.6c-1.8 0-1.5-1.9-1.5-3.1V4.7l.8-.6h24.6ZM48.8 4c4.8.9 10.2 3.7 11.7 8.7a92 92 0 0 1 .4 30.9c-.4 3.6-4 6.7-7.2 8.6l-.4.3c4.3 2.3 8.9 6.8 9.8 11.8.3 9.6 1.1 20.3-1.4 29.1-1.3 3.8-5 8-8.7 8.7-15.6.2-27.1 0-48.3 0l-.5-.6V4.4l.4-.3Zm-14 22.2c-2 0-5-.8-6.2.8v14.9l.3.5c5.8 0 6 .8 7.8-1.3 2.2-3.3 1.2-8.3.9-12.2a5.4 5.4 0 0 0-2.7-2.7Zm.2 37.3c-2.2-.4-5-.9-6.3.6v15.1a10.7 10.7 0 0 0 7-.3c2-.7 2.3-2.7 2.6-4.6-.3-3.5.8-7.5-1.6-10ZM349.6 101.8l-.9.5h-24l-.8-.7v-21a1.3 1.3 0 0 0-1.2-1 15 15 0 0 0-8.1 0c-1.3.3-1.3 1-1.3 1v21l-.8.7h-23.9l-.4-.8V12c.6-3.7 4.3-6.9 8-7.7h45.6c3.6.8 7.3 4 8 7.7Zm-31-76.6c-4.4 0-4.6 1.7-4.8 3.3v29l.2.5h9l.4-.7V27.8c-.3-.7-.1-2.7-4.8-2.6ZM182 12.6l.8 4.3v84.7l-.9.5h-24.5l-.6-.7V31.1a6.2 6.2 0 0 0-3.3-4 4.8 4.8 0 0 0-4.3.9l-2 2.5v71.1l-.7.5H121l-.8-.7V21.7c-.5-5.8-1.1-11.6-2-17.3l.5-.3h24l.7 1.1a52.4 52.4 0 0 0 2.3 9.5l.4-.3c1.6-4.7 6.2-9.5 11.3-10.4 9-2 20.3-.7 24.5 8.6ZM485 11.8v89.8l-1 .6h-24l-.6-.5v-21a1.3 1.3 0 0 0-.9-1v-.1a16.4 16.4 0 0 0-8.7 0 9.3 9.3 0 0 0-1.2.9v21l-.8.7h-23.9l-.4-.8V11.8c.6-3.8 4.3-7 8-7.8H477c3.6.8 7.2 4 7.9 7.8ZM454 25c-4.4 0-4.6 1.8-4.9 3.3v29l.6.5h8.7l.4-.7V27.6c-.4-.7-.2-2.6-4.9-2.6ZM282.2 4h-25.4l-.3.6v36a1.3 1.3 0 0 1-1 1 13.8 13.8 0 0 1-7.9 0 1.4 1.4 0 0 1-1.2-1.2V4.6l-.4-.7h-24.6c-.6.3-1.3 0-1.4.8v96.8l.6.7H246l.5-.7V66.2s0-.8 1.2-1.1a14 14 0 0 1 7.9 0 1.3 1.3 0 0 1 1 1.1v35.3l.7.7H282l.8-.7v-97ZM495.3 90.7a5.4 5.4 0 0 1 2.7.8 5.2 5.2 0 0 1 2 2.1 6.2 6.2 0 0 1 .7 3 6.3 6.3 0 0 1-.7 3 5.5 5.5 0 0 1-2 2 5.4 5.4 0 0 1-7.5-2 6.2 6.2 0 0 1 0-6 5.2 5.2 0 0 1 2-2.1 5.4 5.4 0 0 1 2.8-.8Zm0 1.2a4.3 4.3 0 0 0-2.2.6 4.3 4.3 0 0 0-1.6 1.7 5 5 0 0 0 0 4.7 4.3 4.3 0 0 0 6 1.7A4.5 4.5 0 0 0 499 99a5 5 0 0 0 0-4.7 4.3 4.3 0 0 0-3.8-2.3Zm-2.5 7.8v-6.2h3a2 2 0 0 1 1 .3 1.6 1.6 0 0 1 .5.6 1.8 1.8 0 0 1 .2.9 1.7 1.7 0 0 1-.4 1 1.7 1.7 0 0 1-1.1.7 1.7 1.7 0 0 1 .4.2 4.3 4.3 0 0 1 .4.5l.4.8.7 1.2h-1.5l-.4-1a4.1 4.1 0 0 0-.9-1.3 1.2 1.2 0 0 0-.8-.2h-.3v2.5Zm1.2-3.5h.5a5.7 5.7 0 0 0 1.2 0 .8.8 0 0 0 .4-.4.9.9 0 0 0 .1-.4.8.8 0 0 0-.1-.5.8.8 0 0 0-.4-.3 5.6 5.6 0 0 0-1.2 0h-.5Z"/></svg>