<svg aria-label="Benihana Logo" id="Layer_1" data-name="Layer 1" xmlns="http://www.w3.org/2000/svg" viewBox="0 0 503.04 105.94"><defs><style>.cls-1{fill:#ed1c24;}</style></defs><path class="cls-1" d="M417.54,12.59l.83,4.31v84.74l-.9.51H393l-.55-.69-.05-70.39a6.15,6.15,0,0,0-3.33-3.89,4.79,4.79,0,0,0-4.31.83l-1.87,2.5v71.13l-.84.51H356.66l-.81-.69V21.76c-.42-5.84-1.12-11.67-1.95-17.37l.56-.27h23.89l.84,1.11a51.56,51.56,0,0,0,2.22,9.44l.42-.27C383.36,9.67,388,5,393.09,4,402.12,2,413.37,3.28,417.54,12.59Z"></path><path class="cls-1" d="M115.09,4.81V26.9l-.69.56H91.62c-.84.27-.72.57-.72,1.26,0,4.52,0,8.77,0,12.63l.77.48h23.54l.59.79,0,21.51L115,65H91.62l-.63.92V78l1,.84h23.56l.42.42V101.5l-.54.65H77.27c-4.86-1.25-8.44-6.76-9.83-11.2l-1-9.17V18.43c.09-6.12,4.24-12.37,10.35-14l3.89-.48h33.62Z"></path><path class="cls-1" d="M214.16,4.58v96.88l-.83.69-23.63,0c-1.81,0-1.46-1.93-1.46-3.18V4.67l.78-.62h24.57Z"></path><path class="cls-1" d="M48.83,4.05C53.55,4.88,59,7.73,60.5,12.73a92,92,0,0,1,.41,30.84c-.41,3.61-4,6.77-7.17,8.6l-.47.29c4.31,2.37,8.89,6.81,9.87,11.81.27,9.59,1.11,20.29-1.39,29.18-1.39,3.75-5,8-8.76,8.7-15.63.12-27.09,0-48.28,0l-.53-.69V4.39l.47-.34Zm-14,22.19c-2,0-5-.88-6.28.73V41.85l.37.55c5.83,0,6,.76,7.8-1.28,2.19-3.36,1.17-8.32.88-12.26A5.43,5.43,0,0,0,34.87,26.24ZM35,63.48c-2.22-.42-5-.88-6.3.58V79.2a10.67,10.67,0,0,0,7-.26c2.05-.73,2.34-2.77,2.63-4.67-.29-3.5.73-7.43-1.61-9.92Z"></path><path class="cls-1" d="M349.63,101.82l-.91.51H324.64l-.78-.7V80.68a1.29,1.29,0,0,0-1.12-1.1,15,15,0,0,0-8.16,0c-1.3.29-1.25,1.1-1.25,1.1v20.95l-.85.7H288.64l-.48-.79V11.93c.69-3.75,4.37-6.93,8-7.77h45.68c3.61.84,7.23,4,7.92,7.77Zm-31-76.6c-4.4,0-4.58,1.71-4.86,3.24V57.41l.27.58h9l.37-.7c0-15.89,0-19.62,0-29.52C323.09,27.08,323.28,25.15,318.65,25.22Z"></path><path class="cls-1" d="M182,12.58l.84,4.3v84.75l-.91.51H157.4l-.57-.7V31.06a6.23,6.23,0,0,0-3.36-3.89,4.78,4.78,0,0,0-4.3.83l-1.88,2.5v71.13l-.83.51H121.08l-.82-.7V21.75c-.42-5.84-1.11-11.67-2-17.37l.56-.28h23.9l.83,1.12a52.4,52.4,0,0,0,2.22,9.44l.42-.28C147.78,9.66,152.36,4.94,157.5,4,166.53,2,177.79,3.27,182,12.58Z"></path><path class="cls-1" d="M485,11.76v89.88l-1,.51H460l-.55-.49v-21a1.27,1.27,0,0,0-.94-1l-.1-.1a16.45,16.45,0,0,0-8.57,0,9.28,9.28,0,0,0-1.24.92v21l-.84.69H423.93l-.48-.79V11.76c.69-3.75,4.37-6.94,8-7.77.34,0,21.43,0,22.84,0S477,4,477.11,4C480.72,4.82,484.28,8,485,11.76Zm-31,13.29c-4.4,0-4.58,1.71-4.86,3.24V57.23l.58.58h8.68l.37-.69c0-12.72,0-19.8,0-29.53C458.38,26.9,458.56,25,453.94,25.05Z"></path><path class="cls-1" d="M282.23,4.05c-9.42-.07-25.47,0-25.47,0l-.25.54v36a1.29,1.29,0,0,1-1.07,1.1,13.85,13.85,0,0,1-7.84,0,1.41,1.41,0,0,1-1.24-1.28V4.56L246,3.94H221.37c-.55.28-1.27,0-1.41.73v96.79l.67.69H246l.54-.65,0-35.29s0-.82,1.2-1.11a13.94,13.94,0,0,1,7.84,0,1.32,1.32,0,0,1,1.08,1.11v35.27l.67.67h24.57l.75-.65V4.58Z"></path><path class="cls-1" d="M495.3,90.74a5.37,5.37,0,0,1,2.71.76,5.23,5.23,0,0,1,2,2.15,6.17,6.17,0,0,1,.74,2.94,6.27,6.27,0,0,1-.72,2.92,5.49,5.49,0,0,1-2,2.16,5.36,5.36,0,0,1-7.51-2.16,6.21,6.21,0,0,1,0-5.86,5.23,5.23,0,0,1,2-2.15A5.38,5.38,0,0,1,495.3,90.74Zm0,1.17a4.32,4.32,0,0,0-2.18.6,4.26,4.26,0,0,0-1.63,1.73,4.94,4.94,0,0,0,0,4.68,4.26,4.26,0,0,0,6,1.73,4.45,4.45,0,0,0,1.63-1.73,4.94,4.94,0,0,0,0-4.68,4.33,4.33,0,0,0-3.8-2.33Zm-2.46,7.76V93.55H494c1.08,0,1.69,0,1.83,0a2,2,0,0,1,.89.24,1.56,1.56,0,0,1,.54.59,1.82,1.82,0,0,1,.21.88,1.68,1.68,0,0,1-.4,1.13A1.74,1.74,0,0,1,496,97a1.71,1.71,0,0,1,.41.23,4.3,4.3,0,0,1,.39.47c0,.06.19.31.42.75l.69,1.23h-1.48l-.47-1a4.13,4.13,0,0,0-.81-1.26,1.23,1.23,0,0,0-.8-.25H494v2.49ZM494,96.2h.46a5.66,5.66,0,0,0,1.24-.08.78.78,0,0,0,.38-.29.86.86,0,0,0,.14-.47.81.81,0,0,0-.14-.46.78.78,0,0,0-.39-.29,5.61,5.61,0,0,0-1.23-.08H494Z"></path></svg>