<?xml version="1.0" standalone="no"?>
<!DOCTYPE svg PUBLIC "-//W3C//DTD SVG 20010904//EN"
 "http://www.w3.org/TR/2001/REC-SVG-20010904/DTD/svg10.dtd">
<svg version="1.0" xmlns="http://www.w3.org/2000/svg"
 width="300.000000pt" height="197.000000pt" viewBox="0 0 300.000000 197.000000"
 preserveAspectRatio="xMidYMid meet">
<metadata>
Created by potrace 1.10, written by Peter Selinger 2001-2011
</metadata>
<g transform="translate(0.000000,197.000000) scale(0.100000,-0.100000)"
fill="#000000" stroke="none">
<path d="M1380 1897 c-3 -2 -50 -7 -105 -11 -252 -16 -568 -97 -765 -196 -168
-84 -268 -174 -323 -289 -23 -49 -35 -195 -16 -206 5 -4 9 15 9 44 0 63 39
170 86 234 155 212 699 390 1194 391 292 1 605 -61 820 -161 187 -87 345 -219
399 -333 48 -100 58 -160 37 -214 -20 -53 -62 -87 -109 -89 -17 0 -75 3 -127
7 -75 7 -108 5 -158 -8 -88 -22 -147 -20 -230 9 -108 38 -153 36 -305 -11
-119 -37 -145 -33 -278 33 l-114 58 -120 -1 c-86 -1 -159 -9 -255 -28 -331
-66 -462 -80 -602 -65 -66 7 -104 17 -149 40 -68 34 -73 45 -13 27 24 -8 115
-12 239 -13 226 0 282 9 494 77 319 102 396 116 466 82 21 -10 52 -43 85 -90
28 -41 60 -78 70 -84 55 -29 151 -4 270 72 73 47 120 61 153 49 15 -6 52 -37
83 -70 80 -86 115 -89 209 -17 26 20 53 36 61 36 9 0 45 -14 81 -32 117 -56
188 -39 200 50 15 113 -152 285 -392 405 -238 118 -495 170 -840 169 -656 -1
-1111 -196 -1232 -529 -22 -62 -22 -64 -5 -95 22 -38 70 -74 121 -88 51 -15
189 -32 209 -26 9 3 49 6 87 7 39 1 86 6 105 10 19 4 53 10 75 13 22 3 51 8
65 11 14 3 39 8 55 10 17 3 80 15 140 27 66 12 154 21 221 22 l111 1 109 -54
c135 -68 175 -73 294 -35 47 15 117 29 157 31 61 4 82 1 136 -21 77 -30 144
-33 225 -10 45 14 77 15 162 9 135 -9 165 -8 198 9 72 38 104 117 83 210 -54
241 -319 447 -721 560 -70 19 -258 54 -330 61 -102 9 -315 18 -320 12z m327
-173 c12 -8 30 -15 40 -15 16 -1 15 -2 -2 -6 -35 -9 -64 -34 -58 -50 5 -12 1
-14 -15 -8 -12 3 -22 2 -22 -3 0 -5 -9 -12 -20 -15 -30 -8 -24 -40 11 -61 23
-14 41 -17 71 -12 58 9 75 21 88 62 10 30 9 38 -4 53 -9 10 -13 21 -9 25 4 4
1 11 -7 16 -20 13 17 13 73 1 153 -35 187 -44 187 -51 0 -5 9 -6 20 -3 11 3
20 1 20 -4 0 -6 19 -15 43 -22 48 -14 62 -19 137 -55 73 -36 116 -62 142 -86
12 -11 29 -22 39 -25 9 -3 20 -13 23 -21 3 -8 10 -12 16 -9 5 3 10 2 10 -3 0
-5 25 -34 55 -65 30 -30 55 -58 55 -62 0 -4 11 -20 25 -37 35 -41 32 -77 -8
-115 -20 -19 -42 -30 -53 -28 -10 2 -25 4 -32 4 -7 1 -10 6 -7 11 4 6 -5 10
-19 10 -14 0 -26 4 -26 8 0 15 -77 35 -108 29 -16 -3 -56 -24 -88 -47 -65 -45
-73 -47 -95 -22 -9 9 -35 34 -58 55 -22 21 -41 42 -41 46 0 4 -6 8 -12 9 -83
13 -105 13 -139 2 -22 -7 -39 -17 -39 -22 0 -4 -7 -8 -15 -8 -15 0 -64 -27
-75 -41 -9 -11 -70 -40 -70 -32 0 4 -5 2 -12 -5 -7 -7 -29 -12 -49 -12 -28 0
-45 7 -68 31 -17 17 -31 34 -31 39 0 4 -7 10 -15 14 -8 3 -15 11 -15 19 0 22
-62 74 -104 87 -65 21 -220 -2 -341 -50 -43 -17 -91 -31 -220 -66 -33 -8 -85
-22 -115 -31 -65 -17 -410 -31 -410 -16 0 5 -13 8 -30 5 -49 -7 -76 5 -91 40
-15 36 -14 50 4 88 13 29 58 92 71 101 5 4 5 12 1 19 -5 9 -4 11 3 6 6 -4 17
2 24 14 7 11 18 20 25 20 7 0 13 6 13 13 0 7 16 21 35 31 19 11 35 23 35 28 0
4 6 8 14 8 8 0 17 7 20 16 3 8 10 12 16 9 5 -3 10 -2 10 3 0 5 8 12 17 16 10
3 32 14 48 25 17 11 40 20 53 20 12 1 22 6 22 11 0 6 7 10 16 10 32 0 93 23
87 33 -3 5 7 6 27 2 21 -5 30 -4 26 3 -3 5 7 12 22 15 15 4 59 13 98 21 124
27 215 38 364 45 210 9 390 3 417 -15z m74 -60 c18 -21 2 -62 -31 -79 -40 -21
-93 -19 -113 3 -20 22 -13 32 23 32 30 0 50 16 50 41 0 30 47 32 71 3z"/>
<path d="M1348 1672 c-9 -2 -20 -12 -23 -23 -4 -11 -11 -17 -16 -14 -5 4 -12
-1 -15 -9 -3 -9 -15 -16 -25 -16 -30 0 -24 -42 8 -57 44 -21 97 -16 127 12 30
28 31 36 11 74 -14 29 -37 40 -67 33z m40 -28 c48 -33 14 -84 -58 -84 -70 0
-99 36 -32 42 32 3 37 7 40 31 4 31 18 34 50 11z"/>
<path d="M883 1563 c-7 -2 -13 -13 -13 -24 0 -10 -6 -19 -12 -19 -7 -1 -28
-14 -47 -30 -38 -33 -34 -50 18 -68 54 -19 141 32 141 83 0 35 -54 71 -87 58z
m51 -29 c22 -22 20 -41 -9 -69 -17 -18 -35 -25 -64 -25 -75 0 -97 23 -31 34
42 6 65 32 54 60 -8 21 29 21 50 0z"/>
<path d="M2204 1530 c-12 -5 -28 -17 -35 -27 -8 -11 -22 -22 -31 -26 -44 -16
1 -77 56 -77 36 0 75 20 82 42 8 27 -5 78 -22 78 -8 0 -14 5 -14 10 0 12 -7
12 -36 0z m46 -30 c11 -11 20 -24 20 -30 0 -5 -9 -19 -20 -30 -24 -24 -77 -27
-106 -6 -24 18 -11 33 31 38 25 2 29 7 27 26 -4 28 21 29 48 2z"/>
<path d="M1510 1503 c0 -9 -3 -14 -6 -10 -9 9 -44 -26 -44 -45 0 -37 84 -52
112 -20 16 18 31 75 18 67 -5 -3 -10 2 -14 10 -8 22 -66 20 -66 -2z m48 -5 c7
-7 12 -22 12 -35 0 -30 -44 -49 -77 -34 -28 13 -30 31 -4 31 18 0 34 14 37 33
1 4 2 9 3 12 2 9 17 5 29 -7z"/>
<path d="M553 1370 c-3 -11 -13 -20 -22 -20 -9 0 -22 -5 -29 -12 -7 -7 -12 -8
-12 -3 0 4 -9 -2 -19 -14 -23 -26 -19 -44 14 -65 44 -29 121 -17 152 23 21 27
16 78 -9 95 -32 23 -69 20 -75 -4z m59 -7 c24 -21 23 -58 -2 -83 -26 -26 -90
-27 -121 -1 -30 25 -18 39 36 43 35 3 40 6 43 31 4 31 17 34 44 10z"/>
<path d="M210 920 c0 -5 7 -10 15 -10 12 0 15 -18 15 -100 0 -80 -3 -102 -15
-106 -36 -14 -9 -24 64 -24 75 0 110 11 76 24 -10 3 -15 19 -15 46 l0 40 45 0
45 0 0 -40 c0 -27 -5 -43 -15 -46 -36 -14 -9 -24 65 -24 73 0 97 9 70 25 -6 3
-10 50 -10 106 0 59 4 99 10 99 6 0 10 5 10 10 0 6 -33 10 -80 10 -47 0 -80
-4 -80 -10 0 -5 7 -10 15 -10 11 0 15 -11 15 -43 l0 -42 -45 3 -45 4 0 39 c0
28 4 39 15 39 8 0 15 5 15 10 0 6 -35 10 -85 10 -50 0 -85 -4 -85 -10z m104
-102 c1 -50 -10 -82 -24 -73 -11 7 -14 118 -3 129 13 13 26 -14 27 -56z m181
-76 c-19 -19 -28 87 -10 123 8 16 10 5 13 -49 2 -37 0 -71 -3 -74z"/>
<path d="M670 924 c0 -4 6 -12 14 -18 12 -9 9 -24 -23 -93 -21 -46 -45 -91
-54 -101 -9 -10 -17 -22 -17 -25 0 -4 27 -7 60 -7 62 0 71 5 44 24 -9 7 -12
18 -8 29 9 25 119 25 128 0 4 -11 1 -22 -8 -29 -28 -20 -17 -24 67 -24 90 0
107 6 79 26 -11 7 -39 60 -63 118 l-44 106 -87 0 c-49 0 -88 -3 -88 -6z m102
-89 l17 -45 -38 0 -39 0 17 45 c9 25 18 45 21 45 3 0 13 -20 22 -45z m80 -29
c16 -38 27 -71 24 -74 -12 -11 -54 40 -59 71 -4 18 -9 43 -13 56 -5 17 -3 22
6 19 8 -2 27 -35 42 -72z"/>
<path d="M980 921 c0 -5 7 -11 15 -15 12 -4 15 -25 15 -101 0 -76 -3 -97 -15
-101 -36 -14 -9 -24 65 -24 74 0 101 10 65 24 -9 3 -15 19 -15 41 0 50 23 45
62 -15 l33 -50 63 0 c34 0 62 2 62 4 0 3 -23 28 -51 57 l-51 52 26 14 c62 32
50 93 -21 112 -46 13 -253 15 -253 2z m194 -37 c19 -7 22 -53 4 -58 -7 -3 -25
-7 -40 -10 -27 -6 -28 -5 -28 34 0 36 3 40 24 40 13 0 31 -3 40 -6z m-99 -47
c7 -27 7 -52 1 -70 -17 -46 -26 -30 -26 43 0 79 11 91 25 27z"/>
<path d="M1300 920 c0 -5 5 -10 10 -10 6 0 36 -52 67 -115 l56 -115 51 0 51 0
49 111 c27 61 55 113 63 116 31 12 9 23 -47 23 -54 0 -79 -12 -47 -23 9 -3 7
-17 -7 -58 -41 -115 -34 -113 -68 -29 -26 66 -28 75 -14 86 9 6 16 14 16 18 0
3 -40 6 -90 6 -53 0 -90 -4 -90 -10z m141 -107 c18 -38 35 -71 37 -75 2 -5 -2
-8 -10 -8 -13 0 -78 118 -78 140 0 27 22 3 51 -57z"/>
<path d="M1680 920 c0 -5 5 -10 10 -10 6 0 10 -40 10 -100 0 -80 -3 -102 -15
-106 -42 -17 0 -24 135 -24 l150 0 0 40 c0 45 -8 49 -33 20 -13 -16 -29 -20
-72 -20 l-55 0 0 35 c0 33 2 35 35 35 19 0 35 -4 35 -10 0 -5 5 -10 10 -10 6
0 10 20 10 45 0 44 -12 60 -24 30 -3 -9 -18 -15 -36 -15 -27 0 -30 3 -30 30 0
30 1 30 55 30 40 0 57 -4 61 -15 11 -27 24 -16 24 20 l0 35 -135 0 c-83 0
-135 -4 -135 -10z m94 -82 c7 -47 -3 -97 -19 -98 -11 0 -20 104 -11 126 10 27
24 14 30 -28z"/>
<path d="M1970 921 c0 -5 4 -11 8 -13 4 -1 29 -34 55 -71 49 -70 61 -122 32
-133 -37 -14 -8 -24 70 -24 78 0 107 10 70 24 -26 10 -16 58 26 122 22 35 47
68 55 75 26 21 15 29 -41 29 -30 0 -55 -4 -55 -10 0 -5 5 -10 10 -10 15 0 12
-14 -14 -60 l-23 -41 -26 43 c-16 27 -22 47 -16 53 20 20 6 25 -71 25 -44 0
-80 -4 -80 -9z m110 -51 c0 -5 16 -27 35 -49 35 -38 45 -74 24 -86 -6 -4 -13
3 -16 16 -4 13 -19 47 -34 76 -15 29 -24 53 -18 53 5 0 9 -4 9 -10z"/>
<path d="M2328 893 c-3 -21 -8 -46 -12 -55 -11 -25 8 -23 38 5 15 12 29 37 32
55 6 30 5 32 -24 32 -27 0 -30 -3 -34 -37z"/>
<path d="M2450 912 c-20 -10 -39 -29 -44 -45 -14 -39 21 -70 104 -94 70 -20
83 -40 38 -55 -35 -12 -105 7 -118 32 -17 32 -30 23 -30 -19 0 -39 0 -40 45
-47 25 -3 74 -4 110 -2 50 3 70 9 90 28 52 49 24 98 -71 124 -85 24 -86 25
-82 39 3 7 26 13 56 15 42 2 55 -1 69 -17 25 -29 33 -26 33 13 0 30 -4 34 -31
40 -58 11 -133 6 -169 -12z"/>
<path d="M1320 573 c-19 -3 -120 -17 -225 -32 -294 -43 -679 -42 -895 3 -14 3
-47 7 -73 10 -44 4 -49 2 -58 -21 -17 -46 -10 -116 18 -172 55 -111 184 -203
331 -237 113 -25 358 -27 627 -5 287 23 693 22 900 -3 162 -20 388 -20 476 -2
169 36 347 180 365 294 11 74 -20 120 -97 143 -35 10 -244 13 -289 4 -95 -19
-441 -27 -555 -12 -33 4 -103 14 -155 22 -87 13 -287 18 -370 8z m373 -38 c65
-8 123 -17 128 -21 12 -7 497 -6 509 1 18 11 222 24 286 18 74 -7 123 -34 138
-75 30 -84 -95 -223 -259 -289 -70 -28 -92 -32 -214 -36 -94 -4 -198 0 -336
13 -131 12 -283 19 -440 19 -235 0 -287 -2 -590 -26 -284 -22 -517 3 -634 66
-109 60 -189 163 -207 268 -9 52 9 47 24 -7 8 -31 28 -61 64 -98 60 -62 118
-96 215 -129 80 -28 142 -29 788 -16 270 6 447 5 545 -2 407 -30 520 -35 603
-23 114 15 196 44 286 102 102 65 133 119 94 162 -23 26 -90 23 -280 -9 -207
-35 -428 -36 -678 -4 -219 28 -290 28 -591 -5 -342 -38 -675 -40 -807 -7 -88
23 -245 88 -235 98 3 3 57 -6 119 -20 208 -48 548 -53 809 -14 340 52 465 59
663 34z m-1218 -139 c66 -7 149 -11 185 -9 151 8 371 24 445 33 226 25 278 30
370 29 55 0 132 -4 170 -9 39 -5 154 -17 257 -26 205 -20 330 -14 556 27 135
24 202 25 202 4 0 -9 7 -18 15 -21 8 -4 15 -10 15 -16 0 -5 -4 -7 -9 -3 -5 3
-18 -8 -27 -25 -10 -16 -22 -30 -27 -30 -4 0 -20 -11 -34 -24 -15 -14 -30 -23
-34 -21 -4 3 -9 -2 -13 -10 -3 -8 -15 -15 -26 -15 -11 0 -20 -4 -20 -10 0 -5
-11 -10 -25 -10 -14 0 -25 -4 -25 -9 0 -4 -40 -14 -89 -21 -93 -13 -199 -12
-631 10 -138 7 -360 9 -575 5 -524 -10 -726 -9 -733 1 -4 5 -18 10 -32 12 -31
3 -130 51 -130 63 0 5 -5 9 -11 9 -6 0 -28 18 -49 39 -21 21 -42 36 -45 33 -3
-4 -3 2 1 12 5 14 4 17 -4 12 -7 -4 -12 -1 -12 8 0 9 -5 16 -12 16 -6 0 -4 6
6 13 16 11 33 8 120 -21 71 -24 136 -38 221 -46z"/>
<path d="M2641 160 c11 -6 15 -18 11 -35 -2 -15 0 -25 7 -25 6 0 11 14 11 30
0 17 5 30 10 30 6 0 10 -13 10 -30 0 -37 15 -40 24 -5 9 37 0 45 -47 45 -31
-1 -38 -3 -26 -10z"/>
<path d="M2743 150 c-3 -11 -9 -20 -14 -20 -5 0 -9 -7 -9 -15 0 -18 16 -20 23
-2 4 10 6 10 6 0 2 -25 31 -12 45 20 l14 32 2 -35 c2 -32 3 -33 9 -10 l7 25 7
-25 c7 -24 8 -24 21 -7 14 18 14 18 19 0 3 -10 5 -1 6 20 1 44 -11 48 -26 10
l-10 -28 -8 28 c-4 16 -14 27 -24 27 -9 0 -22 -12 -28 -27 l-11 -28 -1 28 c-1
31 -20 36 -28 7z"/>
<path d="M2890 135 c0 -34 2 -36 28 -33 23 3 27 8 27 33 0 25 -4 30 -27 33
-26 3 -28 1 -28 -33z m45 0 c0 -10 -6 -20 -12 -22 -8 -3 -13 5 -13 22 0 17 5
25 13 23 6 -3 12 -13 12 -23z"/>
</g>
</svg>
