<?xml version="1.0" standalone="no"?>
<!DOCTYPE svg PUBLIC "-//W3C//DTD SVG 20010904//EN"
 "http://www.w3.org/TR/2001/REC-SVG-20010904/DTD/svg10.dtd">
<svg version="1.0" xmlns="http://www.w3.org/2000/svg"
 width="300.000000pt" height="300.000000pt" viewBox="0 0 300.000000 300.000000"
 preserveAspectRatio="xMidYMid meet">
<metadata>
Created by potrace 1.10, written by Peter Selinger 2001-2011
</metadata>
<g transform="translate(0.000000,300.000000) scale(0.100000,-0.100000)"
fill="#000000" stroke="none">
<path d="M474 2603 c-12 -2 -34 -17 -49 -33 -23 -24 -28 -38 -27 -76 0 -26 35
-488 78 -1028 51 -650 81 -991 90 -1011 29 -63 -24 -60 922 -63 956 -3 915 -5
945 61 10 22 37 328 91 1012 43 539 78 1001 79 1027 2 42 -2 52 -31 80 l-32
33 -1023 1 c-562 1 -1032 0 -1043 -3z m2077 -53 c27 -27 29 -34 24 -77 -7 -62
-155 -1937 -155 -1970 0 -14 -13 -37 -29 -54 l-29 -29 -862 0 -862 0 -29 29
c-17 17 -29 40 -29 55 0 14 -27 366 -60 783 -33 417 -67 846 -75 953 -8 107
-18 214 -21 238 -5 37 -2 46 25 72 l29 30 1022 0 1022 0 29 -30z"/>
<path d="M491 2506 c-9 -11 1 -180 46 -735 l57 -721 183 0 183 0 0 735 0 735
-229 0 c-184 0 -231 -3 -240 -14z m429 -35 c6 -13 10 -249 10 -695 0 -641 -1
-676 -18 -685 -27 -15 -254 -13 -273 2 -12 9 -18 36 -22 100 -4 48 -8 91 -10
95 -3 4 -8 72 -12 152 -3 79 -8 147 -10 150 -2 3 -6 53 -10 110 -3 58 -8 112
-10 120 -2 8 -7 63 -10 123 -3 59 -8 117 -11 130 -2 12 -7 76 -10 142 -3 66
-9 144 -15 174 -12 70 -12 67 7 85 13 13 45 16 199 16 172 0 185 -1 195 -19z"/>
<path d="M2040 1785 l0 -735 183 0 183 0 57 721 c44 551 55 724 46 735 -9 11
-57 14 -240 14 l-229 0 0 -735z m430 695 c14 -9 17 -92 5 -150 -3 -14 -8 -74
-11 -134 -3 -61 -7 -113 -9 -116 -2 -3 -7 -58 -10 -121 -4 -63 -9 -127 -11
-144 -2 -16 -6 -70 -9 -120 -3 -49 -9 -133 -15 -185 -5 -52 -15 -165 -21 -250
-8 -114 -14 -158 -25 -166 -10 -8 -57 -10 -147 -7 -73 3 -133 6 -135 7 -5 6
-3 1376 3 1386 8 13 364 13 385 0z"/>
<path d="M1433 2499 c-71 -12 -163 -48 -163 -63 0 -20 -42 -53 -78 -61 l-34
-7 23 -24 c23 -24 21 -27 -17 -25 -31 3 -51 -25 -36 -50 18 -28 15 -50 -9 -75
l-22 -23 20 -80 c15 -65 17 -81 6 -85 -19 -7 -16 -63 6 -137 10 -35 22 -77 26
-94 8 -34 32 -65 52 -65 7 0 13 -9 13 -21 0 -11 10 -53 22 -92 17 -58 30 -80
72 -121 28 -28 65 -61 81 -73 l30 -21 -45 1 -45 2 -3 -47 -3 -48 70 0 71 0
-21 -52 c-11 -29 -33 -80 -49 -113 -16 -33 -26 -63 -22 -67 4 -4 19 -9 33 -13
25 -6 28 -2 53 59 14 37 26 73 26 81 0 7 4 16 8 19 5 3 7 -39 4 -92 l-4 -98
36 4 36 4 0 62 c0 33 -5 86 -10 116 -18 102 -23 94 48 91 l63 -2 -3 48 c-3 48
-3 48 -41 51 l-38 3 38 26 c92 61 146 146 159 249 3 30 10 52 14 49 18 -11 41
27 64 106 37 131 40 153 21 172 -14 15 -14 21 1 72 14 52 14 58 0 74 -9 10
-16 29 -16 44 0 38 -36 129 -70 176 -77 106 -229 164 -367 140z m202 -63 c132
-60 186 -139 193 -282 3 -49 1 -84 -5 -84 -5 0 -17 27 -27 59 -10 33 -24 68
-32 78 -12 16 -13 15 -14 -18 0 -20 9 -56 20 -80 33 -74 34 -74 -87 -74 -87 0
-113 -3 -133 -17 -13 -10 -40 -18 -59 -18 -19 0 -43 8 -54 18 -15 14 -38 17
-113 17 -82 0 -94 2 -94 17 0 10 9 22 19 28 12 6 23 29 30 61 23 104 79 157
154 145 22 -4 47 -12 55 -18 10 -9 17 -7 29 5 15 15 15 18 -3 38 -47 53 -150
74 -220 44 -56 -23 -37 5 24 35 53 26 65 40 35 40 -17 1 -17 1 0 11 61 36 199
34 282 -5z m-275 -120 c0 -2 -16 -13 -34 -24 -19 -12 -46 -38 -60 -59 -14 -21
-33 -48 -42 -61 -10 -13 -20 -51 -23 -84 -7 -74 -24 -85 -40 -24 -15 61 -14
92 5 121 11 17 14 35 10 60 -7 33 -5 35 21 36 15 0 48 9 73 19 41 17 90 26 90
16z m-75 -336 c-32 -21 -41 -20 -32 5 4 8 18 15 34 15 l28 0 -30 -20z m104 7
c9 -11 5 -14 -18 -15 -17 0 -38 -5 -49 -11 -11 -6 -22 -7 -26 -4 -7 7 50 42
70 43 6 0 17 -6 23 -13z m341 -2 c0 -8 -6 -15 -14 -15 -7 0 -19 7 -26 15 -11
13 -8 15 14 15 16 0 26 -5 26 -15z m-49 -16 c21 -18 21 -20 4 -13 -11 4 -35 9
-52 12 -18 2 -30 8 -27 13 10 16 51 9 75 -12z m119 -25 c0 -41 2 -45 16 -33 8
7 13 20 11 30 -6 23 8 43 23 34 15 -9 10 -45 -19 -143 -17 -57 -26 -71 -44
-74 -23 -3 -29 -16 -46 -112 -17 -97 -91 -183 -148 -173 -14 3 -23 -1 -23 -9
0 -7 -11 -33 -24 -58 l-24 -44 -30 31 c-40 42 -54 80 -42 113 6 14 10 39 10
57 0 29 1 30 15 11 14 -19 14 -18 15 3 0 12 -7 26 -16 31 -26 15 -7 31 29 25
18 -3 51 0 72 6 45 12 65 2 65 -35 0 -13 5 -24 10 -24 6 0 10 8 10 18 0 9 9
34 20 55 32 59 26 80 -35 142 -57 58 -81 69 -72 34 4 -15 -2 -24 -27 -36 -29
-13 -37 -14 -62 -2 -34 16 -40 39 -26 88 6 20 14 48 17 64 7 36 33 35 47 -3
11 -32 34 -36 32 -6 -2 13 3 15 20 9 11 -4 40 -7 64 -6 23 1 42 -2 42 -6 0 -5
10 -12 23 -15 l22 -6 -24 -20 c-13 -11 -29 -20 -37 -20 -8 0 -14 -4 -14 -10 0
-17 56 -11 73 8 9 10 20 34 23 53 9 46 22 69 39 69 11 0 15 -12 15 -46z m-613
-12 c-1 -20 2 -54 6 -76 7 -30 5 -37 -5 -34 -16 6 -44 119 -35 142 11 29 35 7
34 -32z m231 -19 c-2 -22 -10 -30 -35 -38 -36 -10 -44 -25 -13 -25 28 0 15
-25 -26 -50 -52 -30 -69 -26 -88 21 -19 46 -14 59 14 41 31 -19 35 6 6 29 -15
11 -23 25 -20 30 3 6 11 5 20 -2 12 -10 18 -9 32 4 11 11 33 17 65 17 47 0 48
-1 45 -27z m10 -88 c0 -26 -12 -33 -23 -15 -8 13 1 40 13 40 5 0 10 -11 10
-25z m-192 -42 c17 -23 18 -43 0 -43 -20 0 -39 27 -32 45 7 20 16 19 32 -2z
m371 -27 c11 -13 27 -26 34 -29 12 -4 11 -8 -1 -17 -10 -7 -35 -9 -70 -4 -69
8 -85 8 -137 -1 -43 -8 -93 -1 -93 13 1 4 21 17 46 30 41 20 48 21 67 7 29
-21 64 -19 94 5 32 25 35 25 60 -4z m-294 -80 c3 -30 11 -64 18 -77 11 -21 13
-21 24 -6 16 23 25 21 25 -4 0 -11 5 -30 11 -41 18 -34 -4 -44 -45 -19 -59 37
-106 157 -74 189 24 24 35 12 41 -42z m242 -6 c-28 -12 -93 -12 -100 0 -4 6
17 10 57 9 44 0 57 -3 43 -9z m-125 -45 c0 -19 -1 -35 -3 -35 -2 0 -18 16 -37
35 l-34 35 37 0 c36 0 37 -1 37 -35z m50 -269 c17 -22 50 -20 75 4 19 18 23
18 43 4 28 -19 20 -34 -18 -34 -17 0 -39 -10 -53 -24 l-23 -23 -28 23 c-17 15
-40 24 -62 24 -41 0 -42 4 -7 35 29 24 47 22 73 -9z"/>
<path d="M925 919 c-5 -14 -1 -25 11 -34 17 -12 17 -18 -9 -141 -24 -113 -31
-133 -58 -157 -16 -16 -29 -33 -27 -39 2 -5 49 -10 108 -10 100 0 105 1 108
22 2 12 -3 27 -12 33 -13 10 -13 19 -2 66 l12 55 32 -55 c62 -106 82 -119 178
-119 56 0 73 3 78 16 8 22 9 21 -18 28 -13 3 -41 29 -62 58 -20 29 -48 67 -61
84 l-23 31 81 67 c44 36 89 66 99 66 17 0 34 33 22 44 -3 3 -45 6 -93 6 -81 0
-87 -1 -92 -22 -4 -13 -1 -26 6 -30 14 -8 16 -5 -82 -89 -42 -34 -62 -47 -57
-34 4 11 12 42 19 68 6 28 18 52 29 58 10 5 18 19 18 29 0 19 -7 20 -99 20
-92 0 -100 -2 -106 -21z m126 -39 c-3 -8 -5 -45 -6 -81 -1 -45 -7 -75 -19 -93
-9 -15 -20 -49 -23 -76 -6 -51 -21 -64 -63 -53 -14 4 -17 9 -11 22 14 26 62
262 56 272 -11 17 7 30 38 27 23 -2 31 -7 28 -18z m104 -139 c3 -11 28 -50 56
-88 49 -67 49 -68 25 -71 -38 -5 -60 12 -109 82 l-45 65 21 15 c30 20 45 20
52 -3z"/>
<path d="M1417 933 c-12 -11 -8 -36 8 -53 13 -14 11 -34 -20 -171 -19 -84 -35
-157 -35 -161 0 -5 38 -8 84 -8 69 0 85 3 90 16 4 9 -1 25 -9 34 -12 13 -14
28 -9 59 l7 41 73 0 c72 0 74 1 76 25 0 14 1 31 2 38 1 9 -17 11 -68 9 -61 -4
-68 -2 -62 13 3 9 9 35 12 56 l7 40 61 -3 c55 -3 61 -5 64 -25 2 -16 10 -23
27 -23 19 0 25 8 34 44 20 81 31 76 -162 76 -96 0 -177 -3 -180 -7z m129 -49
c-23 -61 -28 -105 -13 -127 14 -21 13 -25 -14 -55 -23 -25 -29 -42 -29 -76 0
-38 -3 -44 -24 -48 -49 -10 -51 2 -22 129 14 66 26 136 26 156 0 37 0 37 41
37 34 0 40 -3 35 -16z"/>
<path d="M1902 922 c-154 -55 -210 -238 -103 -335 50 -45 119 -62 220 -53 81
6 101 19 101 64 0 21 -3 23 -30 17 -56 -12 -120 -7 -153 12 -78 46 -63 179 26
233 55 34 117 20 117 -25 0 -21 5 -25 28 -25 27 0 29 4 39 58 6 31 9 59 6 62
-2 2 -48 6 -101 7 -76 3 -109 -1 -150 -15z m-10 -69 c-59 -86 -56 -184 9 -244
l31 -29 -27 0 c-58 0 -125 69 -125 127 0 50 33 115 73 144 50 36 64 37 39 2z"/>
</g>
</svg>
