<?xml version="1.0" standalone="no"?>
<!DOCTYPE svg PUBLIC "-//W3C//DTD SVG 20010904//EN"
 "http://www.w3.org/TR/2001/REC-SVG-20010904/DTD/svg10.dtd">
<svg version="1.0" xmlns="http://www.w3.org/2000/svg"
 width="300.000000pt" height="129.000000pt" viewBox="0 0 300.000000 129.000000"
 preserveAspectRatio="xMidYMid meet">
<metadata>
Created by potrace 1.10, written by Peter Selinger 2001-2011
</metadata>
<g transform="translate(0.000000,129.000000) scale(0.100000,-0.100000)"
fill="#000000" stroke="none">
<path d="M1210 1255 c-161 -23 -184 -35 -166 -91 6 -20 0 -23 -84 -39 -50 -10
-92 -21 -95 -25 -2 -4 14 -24 35 -45 23 -22 40 -49 40 -61 0 -19 -7 -23 -52
-29 -86 -12 -357 -81 -490 -126 -158 -52 -294 -118 -336 -162 -45 -46 -54
-115 -50 -371 3 -189 5 -207 24 -233 11 -15 32 -34 45 -40 19 -10 327 -12
1431 -10 l1408 2 32 33 33 32 3 210 c5 260 -5 330 -50 377 -42 44 -178 110
-336 162 -132 44 -411 116 -493 127 -42 6 -49 10 -49 28 0 12 18 39 40 61 22
21 37 42 32 46 -4 4 -45 15 -92 25 -47 9 -86 18 -88 19 -1 1 2 14 8 29 9 26 8
28 -33 46 -104 46 -498 65 -717 35z m538 -51 c-15 -16 -18 -16 -33 0 -15 15
-14 16 16 16 31 0 32 -1 17 -16z m-358 -4 c0 -5 -4 -10 -9 -10 -12 0 -1 -123
12 -131 5 -4 -10 -9 -34 -11 -48 -5 -61 -1 -40 11 17 11 5 130 -12 132 -7 1 6
5 28 9 22 4 43 8 48 9 4 0 7 -3 7 -9z m150 5 c0 -3 -16 -37 -35 -75 -42 -83
-31 -96 20 -25 13 19 14 18 15 -17 l0 -38 -65 0 c-72 0 -71 -6 -25 87 32 65
30 81 -6 40 l-24 -28 0 30 0 31 60 0 c33 0 60 -2 60 -5z m148 -10 c2 -2 -13
-33 -33 -69 -27 -49 -33 -66 -22 -66 9 0 25 12 36 28 l20 27 1 -32 0 -33 -65
0 c-36 0 -65 3 -65 6 0 3 16 33 35 65 19 33 35 62 35 65 0 13 -30 1 -43 -18
l-16 -23 0 26 c-1 14 2 29 6 33 7 6 103 -2 111 -9z m-561 -78 c2 -70 6 -85 24
-99 12 -10 16 -18 10 -18 -7 0 -9 -4 -6 -10 3 -5 -2 -10 -11 -10 -13 0 -15 -3
-7 -11 7 -7 38 -7 106 0 170 19 593 8 617 -16 3 -2 -3 -9 -13 -14 -28 -16 -19
-29 21 -29 33 0 144 -26 196 -46 15 -6 17 -4 11 14 -8 27 -10 27 132 -3 335
-73 666 -198 700 -266 9 -17 13 -92 13 -256 0 -197 -2 -234 -16 -247 -14 -14
-155 -16 -1400 -16 -936 0 -1392 3 -1405 10 -18 10 -19 24 -19 248 0 168 4
244 13 261 34 68 365 193 700 266 142 30 140 30 132 3 -6 -18 -4 -20 11 -14
52 20 163 46 196 46 43 0 47 8 17 34 -16 13 -24 15 -29 6 -6 -9 -12 -9 -30 0
-12 7 -20 8 -17 3 8 -12 -84 -36 -106 -27 -9 3 -17 15 -17 26 0 10 4 17 9 14
30 -19 12 78 -18 101 -13 9 -8 13 28 23 24 6 52 12 62 13 9 1 17 4 16 7 -3 9
30 50 36 44 3 -3 3 3 0 14 -4 19 1 23 37 31 3 0 6 -36 7 -82z m778 75 c-2 -2
0 -9 5 -16 6 -6 21 -25 34 -41 17 -22 40 -35 76 -44 29 -7 48 -16 42 -20 -5
-3 -17 -23 -25 -44 -15 -35 -15 -38 6 -61 17 -18 53 -30 167 -54 365 -80 677
-201 724 -282 18 -31 21 -57 24 -250 5 -255 -2 -294 -53 -316 -51 -21 -2759
-21 -2810 0 -51 22 -58 61 -53 316 4 259 5 263 113 322 128 69 372 152 600
202 160 35 192 40 179 26 -6 -6 -66 -22 -133 -36 -237 -49 -529 -145 -648
-214 -89 -51 -88 -48 -88 -327 0 -219 2 -244 18 -260 17 -17 86 -18 1417 -18
1331 0 1400 1 1417 18 16 16 18 41 18 260 0 279 1 276 -88 327 -119 69 -411
165 -647 214 -67 14 -128 30 -135 36 -10 8 -17 7 -26 -3 -14 -14 -44 -12 -66
5 -6 5 -30 10 -52 11 -39 1 -46 6 -42 35 2 10 -5 12 -21 7 -18 -5 -20 -4 -8 4
13 9 12 11 -5 11 -18 1 -18 2 3 10 12 5 25 16 28 24 6 16 -24 134 -38 153 -7
9 1 12 31 10 22 0 38 -3 36 -5z m-620 -42 c0 -31 -4 -36 -32 -45 -25 -7 -33
-15 -33 -32 0 -13 6 -24 13 -24 14 -2 -40 -16 -66 -18 -12 -1 -16 3 -11 11 10
16 5 122 -7 126 -5 2 -9 8 -9 13 0 6 31 9 73 7 l72 -3 0 -35z m539 -27 c10
-37 22 -73 28 -80 8 -10 2 -13 -30 -13 -38 0 -41 2 -39 27 1 20 -3 28 -17 31
-23 5 -39 -18 -24 -35 8 -10 4 -13 -16 -13 -14 0 -26 5 -26 10 0 6 3 10 8 10
4 0 20 29 36 65 38 88 58 88 80 -2z m-525 -60 c-4 -22 3 -33 19 -34 29 -1 -18
-17 -52 -18 -23 -1 -27 2 -18 11 7 7 12 20 12 30 0 11 7 18 20 18 11 0 19 -3
19 -7z"/>
<path d="M1482 854 c-10 -11 -12 -32 -7 -77 4 -34 9 -155 11 -268 5 -229 2
-241 -50 -214 -42 22 -52 6 -48 -86 l4 -79 54 -16 c81 -23 137 -4 171 59 15
27 19 71 25 292 4 143 10 293 13 333 l7 72 -84 0 c-61 -1 -87 -5 -96 -16z
m141 -84 c-1 -30 -3 -163 -5 -295 -4 -259 -7 -273 -62 -324 -21 -20 -32 -23
-66 -18 -58 7 -70 21 -70 78 0 47 1 49 28 49 17 0 37 9 48 21 18 19 19 37 17
233 -1 116 -3 233 -5 260 -3 46 -1 50 22 56 14 3 41 3 60 0 l35 -5 -2 -55z"/>
<path d="M1765 851 c-95 -43 -104 -76 -105 -374 0 -265 3 -281 63 -334 85 -74
213 -48 263 54 17 34 19 62 18 299 0 299 -3 310 -84 352 -53 27 -101 28 -155
3z m129 -25 c45 -19 85 -73 86 -116 5 -154 -2 -429 -10 -462 -6 -22 -29 -59
-50 -82 -34 -37 -43 -41 -83 -40 -32 1 -54 9 -80 28 -64 49 -67 65 -67 343 l0
249 38 37 c56 54 107 68 166 43z"/>
<path d="M1799 704 c-11 -14 -14 -57 -12 -218 2 -193 3 -202 24 -218 26 -22
30 -22 55 -4 17 13 19 30 22 208 3 212 -3 241 -49 246 -15 2 -32 -4 -40 -14z
m49 -16 c15 -15 17 -404 3 -413 -5 -3 -17 2 -25 11 -14 13 -16 46 -16 208 0
208 4 228 38 194z"/>
<path d="M1111 848 c-46 -5 -89 -15 -95 -21 -7 -7 -22 -97 -35 -202 -12 -104
-29 -226 -37 -270 -7 -44 -17 -115 -22 -157 l-8 -78 77 0 c55 0 80 4 89 15 12
14 10 80 -5 138 -7 26 -6 27 30 27 31 0 36 -3 30 -18 -4 -9 -9 -50 -12 -90
l-6 -72 85 0 c52 0 89 5 96 12 14 14 16 100 3 114 -5 5 -24 145 -43 311 -27
250 -36 303 -48 302 -8 -1 -53 -6 -99 -11z m71 -39 c16 -8 20 -27 33 -154 3
-27 14 -124 26 -215 11 -91 23 -193 26 -228 l6 -63 -59 3 -59 3 3 76 c2 71 1
76 -22 88 -54 29 -101 -14 -87 -80 4 -19 6 -40 5 -46 -1 -7 -2 -20 -3 -28 -2
-21 -89 -21 -98 0 -6 17 8 142 37 335 11 69 25 164 31 212 l12 87 36 9 c45 12
91 12 113 1z"/>
<path d="M1115 538 c5 -113 4 -118 -15 -118 -19 0 -19 5 -13 93 6 100 -2 109
-22 24 -16 -68 -12 -117 11 -134 23 -17 27 -16 54 5 21 17 22 21 11 87 -24
155 -30 166 -26 43z"/>
<path d="M2025 828 c-7 -7 -7 -41 -1 -97 12 -116 11 -472 -1 -546 -6 -33 -9
-62 -8 -65 2 -3 38 -3 82 0 l78 5 0 60 c-1 33 -3 92 -5 130 -3 64 -2 70 16 70
17 0 19 -7 17 -75 -1 -41 -5 -101 -8 -133 l-7 -58 83 3 83 3 1 305 c0 168 4
312 8 321 7 14 -5 20 -72 36 -73 19 -81 19 -85 4 -7 -24 -7 -126 0 -203 l6
-68 -27 0 c-20 0 -25 4 -21 18 5 17 20 255 17 269 -1 5 -30 13 -64 20 -77 15
-80 15 -92 1z m104 -39 c17 -6 32 -16 32 -22 4 -32 -2 -80 -11 -97 -5 -10 -10
-48 -10 -83 0 -51 4 -67 20 -82 17 -15 24 -16 47 -6 l26 12 -7 130 c-6 123 -6
130 11 125 10 -2 37 -10 61 -16 33 -8 42 -16 43 -33 2 -37 -3 -62 -12 -68 -13
-8 -13 -378 0 -412 6 -16 11 -41 11 -57 0 -25 -5 -30 -32 -35 -18 -3 -46 -4
-63 -2 -34 3 -32 -9 -19 159 7 83 -4 108 -44 108 -42 0 -48 -51 -26 -212 l6
-47 -34 -5 c-65 -12 -73 -5 -72 55 5 206 2 464 -6 480 -11 20 -13 79 -4 103 7
19 38 20 83 5z"/>
<path d="M775 800 c-57 -12 -124 -37 -139 -52 -8 -9 -11 -30 -7 -68 3 -30 6
-169 5 -307 l-1 -253 66 0 c36 0 72 4 80 9 13 9 11 84 -4 144 -7 27 -7 27 39
27 38 0 52 6 82 33 35 32 37 38 45 118 12 134 11 246 -5 284 -25 58 -83 82
-161 65z m115 -58 c24 -29 28 -55 34 -203 4 -97 2 -121 -12 -140 -31 -44 -55
-61 -93 -66 -57 -8 -80 -40 -67 -93 6 -22 7 -51 4 -65 -6 -22 -11 -25 -56 -25
-27 0 -52 5 -55 11 -4 6 1 31 10 56 16 40 17 74 13 274 -5 254 -8 241 64 264
68 22 136 16 158 -13z"/>
<path d="M756 662 c-16 -32 -21 -169 -6 -207 13 -34 36 -41 60 -20 17 16 20
31 20 120 0 86 -3 104 -18 118 -26 24 -39 21 -56 -11z m44 -94 c6 -111 4 -128
-16 -128 -11 0 -14 22 -14 116 0 88 3 115 13 112 8 -3 14 -36 17 -100z"/>
<path d="M2386 741 c-3 -14 -5 -46 -5 -71 1 -25 3 -124 5 -220 3 -96 1 -210
-4 -252 l-8 -78 47 0 c79 0 90 13 72 80 -6 23 -7 23 -18 -10 -10 -29 -17 -36
-44 -38 l-33 -3 7 43 c10 54 9 406 0 476 l-7 52 29 0 c34 0 61 -26 87 -82 9
-21 19 -38 22 -38 3 0 2 5 -2 11 -4 7 -10 37 -13 67 l-6 55 -62 17 -62 17 -5
-26z"/>
<path d="M478 722 c-31 -9 -62 -22 -68 -28 -6 -6 -20 -85 -31 -175 -11 -90
-27 -198 -35 -239 -8 -41 -14 -94 -14 -117 l0 -43 56 0 c31 0 61 5 68 13 15
15 18 90 6 123 -8 20 -7 24 10 24 18 0 19 -5 13 -80 l-6 -80 57 0 c62 0 91 16
79 45 -5 16 -7 16 -15 1 -6 -11 -23 -16 -55 -16 l-46 0 6 43 c2 23 8 49 11 58
9 20 -18 49 -44 49 -28 0 -45 -37 -30 -65 6 -12 10 -35 8 -51 -3 -26 -7 -29
-41 -32 -48 -4 -52 7 -38 106 6 42 20 145 32 227 26 185 24 180 55 193 28 13
74 16 74 5 0 -5 5 -37 10 -73 9 -66 15 -120 25 -245 8 -90 35 -183 47 -161 5
9 4 33 -1 58 -6 24 -17 122 -26 218 -21 230 -25 260 -39 259 -6 0 -37 -8 -68
-17z"/>
<path d="M2545 703 c-9 -25 -6 -83 5 -83 6 0 10 11 10 25 0 19 5 25 23 25 34
0 58 -34 52 -72 -3 -17 -8 -35 -11 -40 -3 -5 -5 -93 -4 -197 0 -163 -2 -191
-16 -205 -25 -26 -56 0 -74 63 -8 28 -18 51 -22 51 -10 0 -10 -13 5 -85 13
-60 13 -60 51 -63 22 -2 49 -1 61 2 23 6 23 7 23 216 0 115 4 215 8 222 4 6 8
35 8 63 l1 52 -57 20 c-48 16 -58 17 -63 6z"/>
<path d="M2683 654 c-3 -8 -1 -20 5 -26 6 -6 8 -18 5 -27 -5 -13 -2 -13 15 3
26 22 29 51 6 60 -22 8 -24 8 -31 -10z"/>
<path d="M190 619 c-30 -12 -59 -25 -64 -30 -5 -5 -10 -111 -10 -239 l-1 -230
50 0 c71 0 78 7 73 71 -2 30 -8 62 -12 72 -7 14 -3 17 26 17 38 0 70 26 87 73
6 16 11 75 11 132 0 83 -3 107 -17 124 -26 31 -78 35 -143 10z m114 -35 c11
-11 16 -35 16 -83 0 -38 3 -81 6 -97 4 -23 -1 -35 -26 -61 -18 -18 -40 -33
-50 -33 -28 0 -45 -29 -46 -79 -2 -81 -2 -81 -31 -81 l-28 0 0 205 0 205 40
20 c49 23 98 25 119 4z"/>
<path d="M211 527 c-18 -34 -11 -157 11 -170 32 -21 48 8 48 87 -1 94 -30 136
-59 83z m33 -13 c3 -9 6 -47 6 -85 0 -55 -3 -69 -15 -69 -12 0 -15 16 -15 85
0 79 10 107 24 69z"/>
<path d="M2721 584 c-70 -63 -77 -185 -15 -248 15 -14 33 -26 40 -26 8 0 14
-5 14 -11 0 -7 -12 -9 -35 -5 -49 10 -65 -9 -65 -76 0 -41 5 -60 21 -77 51
-54 119 -51 173 9 40 44 51 88 43 167 -7 65 -16 77 -79 109 -38 19 -48 30 -48
49 0 35 19 31 27 -5 5 -26 10 -30 40 -30 46 0 63 19 63 73 0 32 -6 49 -22 64
-60 54 -103 56 -157 7z m124 -29 c30 -29 32 -56 5 -80 -19 -17 -20 -17 -31 8
-6 14 -19 29 -28 32 -18 7 -41 -20 -41 -48 0 -19 22 -47 37 -47 33 -2 86 -87
78 -127 -2 -10 -4 -34 -4 -55 -1 -26 -10 -46 -33 -72 -37 -42 -72 -47 -112
-15 -23 18 -27 27 -24 67 2 35 7 46 21 48 10 1 21 -5 24 -14 9 -25 34 -52 49
-52 8 0 21 11 30 25 23 36 7 74 -41 100 -51 26 -85 77 -85 127 0 103 94 165
155 103z m-45 -306 c0 -19 -5 -29 -15 -29 -11 0 -15 11 -15 41 0 36 2 40 15
29 8 -7 15 -25 15 -41z"/>
<path d="M452 447 c-24 -66 -5 -110 37 -87 22 11 24 23 15 83 -10 58 -27 45
-22 -18 4 -43 2 -55 -10 -55 -12 0 -13 10 -7 55 3 30 5 55 3 55 -2 0 -9 -15
-16 -33z"/>
<path d="M1210 1145 c0 -25 4 -35 13 -32 6 2 12 16 12 32 0 16 -6 30 -12 33
-9 2 -13 -8 -13 -33z"/>
</g>
</svg>
