<?xml version="1.0" standalone="no"?>
<!DOCTYPE svg PUBLIC "-//W3C//DTD SVG 20010904//EN"
 "http://www.w3.org/TR/2001/REC-SVG-20010904/DTD/svg10.dtd">
<svg version="1.0" xmlns="http://www.w3.org/2000/svg"
 width="300.000000pt" height="138.000000pt" viewBox="0 0 300.000000 138.000000"
 preserveAspectRatio="xMidYMid meet">
<metadata>
Created by potrace 1.10, written by Peter Selinger 2001-2011
</metadata>
<g transform="translate(0.000000,138.000000) scale(0.100000,-0.100000)"
fill="#000000" stroke="none">
<path d="M1497 1169 c-10 -6 -23 -8 -30 -6 -7 2 -25 -3 -42 -12 -22 -12 -60
-16 -150 -17 -168 -1 -211 -13 -269 -72 -23 -25 -29 -42 -33 -94 -4 -51 -2
-66 11 -77 11 -10 16 -30 16 -72 0 -50 3 -59 18 -59 26 0 42 20 42 51 0 15 5
31 10 34 6 4 10 15 8 25 -3 20 60 100 80 100 10 0 10 -5 1 -21 -14 -27 1 -85
31 -117 31 -33 42 -27 19 12 -25 42 -33 115 -12 112 18 -3 32 -27 76 -126 l11
-25 4 31 c2 18 -4 48 -12 68 -11 26 -12 36 -3 36 12 -1 47 -66 47 -87 0 -5 10
-18 21 -29 l21 -19 -7 35 c-4 19 -14 47 -21 62 -10 18 -11 29 -3 33 6 4 13 4
16 1 3 -3 23 4 45 15 21 11 67 22 102 26 58 5 69 3 130 -27 40 -20 62 -36 55
-40 -6 -4 -22 -2 -35 5 -14 7 -49 11 -85 9 -43 -3 -67 1 -85 12 -22 15 -27 15
-59 0 -19 -10 -40 -14 -45 -11 -6 3 -10 2 -10 -4 0 -5 5 -13 10 -16 6 -3 10
-14 10 -24 0 -32 79 -120 134 -149 44 -23 63 -26 137 -26 110 0 169 26 214 96
27 41 35 47 77 53 70 10 67 23 -5 20 -34 -2 -67 1 -73 6 -6 5 -38 14 -70 20
-33 6 -84 26 -114 44 -82 49 -139 74 -146 64 -3 -5 -20 -9 -38 -9 -19 0 -53
-7 -76 -15 -54 -19 -120 -19 -195 0 -36 10 -75 13 -97 10 -35 -6 -38 -5 -40
17 -1 12 -2 32 -3 43 -2 28 13 55 30 55 21 0 19 -30 -2 -31 -11 0 -13 -3 -5
-6 6 -2 12 -15 12 -28 0 -13 4 -26 9 -29 5 -4 7 3 4 14 -7 26 24 90 42 90 20
0 19 -17 -2 -29 -10 -6 -12 -11 -5 -11 7 0 12 -15 13 -37 1 -21 3 -29 6 -18
13 65 6 60 100 63 48 2 93 8 100 14 17 14 90 4 111 -15 14 -13 19 -13 29 -2
11 12 7 15 -22 21 -40 7 -43 14 -17 37 23 21 37 21 62 0 15 -14 17 -20 7 -32
-7 -10 -4 -9 10 2 15 13 34 18 66 16 25 -2 51 2 59 7 8 7 28 8 56 2 51 -11 47
-33 -4 -23 -19 3 -40 2 -47 -2 -6 -4 -39 -12 -72 -18 -59 -10 -78 -28 -33 -32
21 -2 21 -1 -2 6 -22 6 -19 8 23 15 27 4 66 5 87 1 21 -3 57 -1 81 5 40 11 44
10 61 -12 28 -37 21 -45 -12 -13 -16 16 -30 25 -30 20 0 -4 14 -21 30 -37 20
-18 30 -38 29 -56 0 -24 -1 -25 -9 -7 -5 11 -9 16 -9 12 -1 -5 -14 5 -31 21
-38 39 -101 49 -158 27 -35 -14 -44 -15 -64 -3 -32 20 -123 18 -123 -2 0 -10
11 -15 35 -17 19 0 25 1 13 4 -13 2 -23 8 -23 13 0 14 73 -1 102 -21 14 -11
31 -19 38 -19 6 0 27 -12 46 -26 42 -32 98 -53 145 -54 19 0 40 -5 46 -11 7
-7 14 -1 22 22 16 47 14 70 -14 124 -24 48 -25 65 -2 65 15 0 90 50 84 56 -2
2 -30 -8 -62 -22 -52 -24 -62 -26 -89 -15 -55 23 -110 29 -165 20 -30 -5 -59
-5 -65 0 -20 15 -61 20 -79 10z m-167 -59 c-30 -4 -70 -10 -87 -14 -31 -7 -43
1 -26 17 3 4 43 6 87 6 80 -2 80 -2 26 -9z m-260 -38 c0 -4 -5 -13 -12 -20 -8
-8 -8 -12 -1 -12 13 0 34 -55 26 -64 -13 -12 -32 -5 -38 13 -13 42 -14 65 -4
78 13 14 29 17 29 5z m-37 -74 c20 -48 9 -73 -17 -37 -12 18 -13 26 -3 38 9
12 9 13 0 7 -9 -5 -13 0 -13 13 0 33 14 24 33 -21z m743 13 c39 -27 82 -81 67
-81 -12 0 -72 38 -115 72 -41 32 -48 27 -21 -12 l17 -24 -32 23 c-36 25 -40
37 -14 44 39 10 61 6 98 -22z m-685 -69 c-5 -10 -17 -24 -25 -31 -8 -7 -13
-18 -10 -25 2 -6 -2 -20 -10 -31 -13 -18 -14 -17 -21 15 -6 29 -4 36 25 62 37
32 55 37 41 10z m362 -26 c3 -12 -52 -30 -61 -21 -9 9 29 36 46 33 7 -2 14 -7
15 -12z m175 -44 c8 -52 105 -78 179 -47 47 20 39 26 -23 17 -55 -9 -134 -4
-134 8 0 13 143 22 174 11 15 -6 32 -9 37 -5 23 14 6 -15 -28 -48 -51 -50 -99
-68 -180 -68 -81 0 -147 27 -208 84 l-40 38 24 19 c20 17 37 19 110 17 81 -3
86 -4 89 -26z m92 18 c0 -5 -19 -10 -42 -9 -33 0 -38 2 -23 9 28 12 65 12 65
0z m-687 -87 c-10 -26 -23 -12 -23 25 1 36 1 37 14 13 8 -14 12 -31 9 -38z"/>
<path d="M1516 880 c7 -7 29 -14 50 -17 52 -6 33 12 -21 22 -31 5 -37 4 -29
-5z"/>
<path d="M1128 703 c-45 -4 -70 -23 -29 -23 16 0 19 -12 25 -130 4 -71 4 -134
1 -140 -3 -5 -15 -10 -26 -10 -10 0 -19 -5 -19 -12 0 -8 30 -9 112 -4 62 4
113 8 114 9 1 1 4 19 8 40 8 44 -7 50 -26 10 -12 -24 -19 -28 -58 -28 l-45 0
-3 133 c-2 127 -2 134 18 139 23 6 17 24 -8 21 -9 -1 -38 -3 -64 -5z"/>
<path d="M1403 640 c-112 -68 -65 -249 65 -250 75 0 126 54 126 135 0 109
-101 170 -191 115z m92 -6 c53 -21 62 -182 11 -216 -43 -29 -101 16 -111 85
-14 95 33 156 100 131z"/>
<path d="M1650 649 c0 -4 7 -9 15 -13 12 -4 15 -26 15 -112 0 -97 -2 -106 -20
-111 -42 -11 -17 -23 48 -23 94 0 136 22 140 73 3 32 -1 39 -26 54 -29 17 -30
17 -8 28 28 14 33 65 9 87 -18 16 -173 31 -173 17z m138 -58 c4 -35 -9 -51
-40 -51 -15 0 -18 9 -18 46 0 44 1 45 28 42 23 -3 28 -8 30 -37z m-4 -84 c12
-9 17 -23 14 -47 -2 -27 -9 -37 -30 -44 -36 -13 -43 -4 -43 55 0 43 3 49 21
49 11 0 28 -6 38 -13z"/>
<path d="M1956 629 c-38 -30 -36 -80 5 -111 68 -52 79 -66 70 -90 -16 -44 -72
-32 -92 20 -12 31 -28 20 -22 -15 7 -37 29 -53 75 -53 28 0 46 7 63 25 45 44
27 89 -59 148 -29 20 -34 48 -11 67 21 18 48 8 63 -23 17 -34 30 -28 24 12 -6
45 -70 56 -116 20z"/>
<path d="M2125 616 c-10 -49 -1 -68 15 -33 10 20 20 27 42 27 l29 0 -6 -97
c-8 -119 -9 -123 -35 -123 -11 0 -20 -4 -20 -10 0 -5 15 -10 34 -10 18 0 48
-3 65 -6 34 -7 44 10 11 19 -19 5 -20 11 -14 94 8 130 9 133 41 124 18 -5 29
-15 31 -29 6 -37 22 -25 22 16 l0 37 -92 3 c-50 1 -97 7 -104 13 -10 8 -14 2
-19 -25z"/>
<path d="M743 623 c-39 -4 -62 -23 -28 -23 18 0 22 -21 29 -129 4 -76 3 -84
-15 -88 -10 -3 -19 -9 -19 -14 0 -14 140 1 179 19 74 34 97 143 42 204 -25 28
-35 32 -87 34 -32 1 -78 0 -101 -3z m138 -42 c23 -24 29 -38 29 -75 0 -58 -16
-92 -51 -106 -56 -23 -63 -14 -72 90 -4 51 -5 100 -3 107 10 24 66 15 97 -16z"/>
<path d="M168 608 c-55 -10 -80 -28 -39 -28 27 0 29 -4 51 -126 25 -135 25
-140 -2 -148 -14 -3 -19 -9 -13 -14 12 -11 135 7 135 20 0 4 -7 8 -15 8 -18 0
-31 24 -40 78 -5 29 -3 42 5 42 12 0 70 -60 70 -72 0 -5 15 -17 33 -28 39 -24
87 -27 87 -5 0 8 -6 15 -13 15 -7 0 -29 17 -48 38 -63 67 -63 67 -34 96 33 33
33 79 0 111 -27 28 -71 31 -177 13z m122 -28 c20 -20 27 -74 12 -97 -10 -15
-60 -34 -66 -25 -8 14 -18 121 -11 131 10 17 43 13 65 -9z"/>
<path d="M2374 609 c-2 -4 3 -10 12 -13 15 -6 16 -19 10 -104 -7 -92 -18 -128
-36 -117 -5 3 -11 1 -14 -4 -7 -11 20 -18 115 -26 l76 -7 12 33 c15 43 5 50
-23 15 -20 -26 -27 -28 -59 -22 -39 7 -43 15 -31 75 5 24 12 31 30 31 14 0 28
-9 36 -22 l12 -23 7 25 c4 14 7 36 8 50 0 23 -1 24 -13 8 -8 -11 -26 -18 -45
-18 l-32 0 7 48 c3 26 8 48 9 50 1 1 16 -1 34 -4 22 -5 36 -15 44 -33 l11 -26
4 33 c2 19 2 35 0 37 -8 7 -170 20 -174 14z"/>
<path d="M510 603 c-63 -5 -81 -13 -54 -23 23 -9 23 -11 40 -162 6 -54 5 -58
-17 -66 -41 -15 -6 -19 88 -9 l91 10 5 31 c7 46 -3 52 -24 16 -17 -27 -24 -31
-57 -28 -37 3 -37 4 -40 51 -3 46 -3 47 26 47 18 0 32 -6 36 -16 11 -28 22 -6
18 35 -4 44 -16 54 -25 21 -4 -14 -14 -20 -35 -20 -28 0 -30 3 -34 44 -3 42
-2 45 27 51 23 4 34 1 47 -15 22 -27 28 -25 28 10 0 33 2 33 -120 23z"/>
<path d="M2620 579 c0 -4 7 -12 15 -17 14 -7 14 -20 4 -103 -11 -93 -23 -124
-40 -113 -5 3 -9 -1 -9 -9 0 -11 15 -16 53 -19 58 -5 70 -1 44 13 -17 10 -21
37 -11 77 10 35 22 26 52 -35 18 -39 37 -63 55 -71 37 -18 44 -10 19 25 -11
16 -26 44 -34 63 -14 34 -14 36 14 62 59 55 27 103 -84 122 -43 7 -78 9 -78 5z
m134 -61 c13 -36 -14 -78 -50 -78 -22 0 -25 3 -20 23 3 12 6 37 6 55 0 30 2
33 27 30 19 -2 30 -11 37 -30z"/>
<path d="M2840 296 c0 -18 35 -22 45 -6 3 6 2 10 -4 10 -5 0 -16 3 -25 6 -11
4 -16 1 -16 -10z"/>
<path d="M570 240 c0 -38 4 -50 15 -50 8 0 15 9 15 20 0 11 7 20 15 20 8 0 15
5 15 10 0 6 -7 10 -16 8 -10 -2 -19 3 -21 10 -3 7 5 12 21 12 14 0 26 5 26 10
0 6 -16 10 -35 10 l-35 0 0 -50z"/>
<path d="M660 250 c0 -22 0 -43 -1 -47 0 -4 4 -9 10 -11 6 -2 11 5 11 15 1 17
1 17 11 1 16 -28 25 -21 26 20 1 42 -11 62 -38 62 -15 0 -19 -8 -19 -40z"/>
<path d="M750 240 c0 -49 1 -50 30 -50 17 0 30 5 30 10 0 6 -9 10 -20 10 -11
0 -20 5 -20 10 0 6 9 10 21 10 12 0 17 4 14 11 -4 6 -13 8 -21 5 -8 -3 -14 1
-14 9 0 8 9 15 20 15 11 0 20 5 20 10 0 6 -13 10 -30 10 -29 0 -30 -1 -30 -50z"/>
<path d="M836 273 c-5 -12 -1 -22 13 -32 27 -17 27 -34 1 -26 -11 3 -20 2 -20
-4 0 -12 37 -24 50 -16 17 11 11 42 -12 59 l-23 17 24 -7 c17 -4 22 -2 19 7
-7 22 -44 23 -52 2z"/>
<path d="M918 240 c4 -47 22 -73 22 -30 0 11 7 20 15 20 8 0 15 -9 15 -20 0
-11 5 -20 10 -20 6 0 10 23 10 50 0 28 -4 50 -10 50 -5 0 -10 -11 -10 -25 0
-16 -6 -25 -15 -25 -9 0 -15 9 -15 25 0 14 -6 25 -12 25 -9 0 -12 -15 -10 -50z"/>
<path d="M1060 240 c0 -27 5 -50 10 -50 6 0 10 9 10 20 0 13 7 20 20 20 11 0
20 5 20 11 0 6 -9 9 -20 6 -13 -3 -20 0 -20 9 0 8 9 14 20 14 11 0 20 5 20 10
0 6 -13 10 -30 10 -29 0 -30 -1 -30 -50z"/>
<path d="M1140 240 c0 -27 5 -50 10 -50 6 0 10 23 10 50 0 28 -4 50 -10 50 -5
0 -10 -22 -10 -50z"/>
<path d="M1191 276 c-10 -12 -9 -18 8 -33 27 -22 27 -36 1 -28 -11 3 -20 2
-20 -4 0 -19 42 -24 59 -6 15 15 14 18 -14 42 -27 22 -28 24 -6 18 17 -5 22
-4 19 6 -7 20 -33 22 -47 5z"/>
<path d="M1270 240 c0 -27 5 -50 10 -50 6 0 10 9 10 20 0 11 7 20 15 20 8 0
15 -9 15 -20 0 -11 5 -20 10 -20 6 0 10 23 10 50 0 28 -4 50 -10 50 -5 0 -10
-11 -10 -25 0 -16 -6 -25 -15 -25 -9 0 -15 9 -15 25 0 14 -4 25 -10 25 -5 0
-10 -22 -10 -50z"/>
<path d="M1460 240 c0 -49 1 -50 30 -50 17 0 30 5 30 10 0 6 -9 10 -20 10 -17
0 -20 7 -20 40 0 22 -4 40 -10 40 -5 0 -10 -22 -10 -50z"/>
<path d="M1534 268 c3 -13 6 -35 6 -50 0 -16 5 -28 10 -28 6 0 10 23 10 50 0
39 -3 50 -16 50 -12 0 -15 -6 -10 -22z"/>
<path d="M1570 286 c0 -10 41 -98 44 -95 2 2 13 25 24 52 15 33 17 47 8 47 -7
0 -17 -12 -23 -27 l-10 -28 -11 28 c-6 15 -16 27 -22 27 -5 0 -10 -2 -10 -4z"/>
<path d="M1670 240 c0 -49 1 -50 30 -50 17 0 30 5 30 10 0 6 -9 10 -20 10 -11
0 -20 5 -20 10 0 6 9 10 21 10 12 0 17 4 14 11 -4 6 -13 8 -21 5 -8 -3 -14 1
-14 9 0 8 9 15 20 15 11 0 20 5 20 10 0 6 -13 10 -30 10 -29 0 -30 -1 -30 -50z"/>
<path d="M1800 240 c0 -49 1 -50 30 -50 17 0 30 5 30 10 0 6 -9 10 -20 10 -17
0 -20 7 -20 40 0 22 -4 40 -10 40 -5 0 -10 -22 -10 -50z"/>
<path d="M1874 265 c-15 -23 -15 -27 0 -50 27 -42 86 -26 86 23 0 55 -56 72
-86 27z m61 -25 c0 -16 -6 -26 -18 -28 -19 -4 -32 20 -23 44 9 25 41 13 41
-16z"/>
<path d="M1980 240 c0 -45 2 -50 23 -50 35 0 48 14 44 46 -5 42 -14 54 -43 54
-22 0 -24 -4 -24 -50z"/>
<path d="M2087 284 c-14 -14 -6 -43 13 -49 29 -9 25 -28 -5 -21 -30 8 -34 -10
-4 -19 14 -5 27 -1 38 10 15 15 14 18 -6 35 -27 21 -30 32 -7 23 12 -4 15 -2
12 8 -5 16 -30 23 -41 13z"/>
<path d="M2140 280 c0 -5 7 -10 15 -10 11 0 15 -11 15 -40 0 -22 5 -40 10 -40
6 0 10 18 10 40 0 29 4 40 15 40 8 0 15 5 15 10 0 6 -18 10 -40 10 -22 0 -40
-4 -40 -10z"/>
<path d="M2230 240 c0 -49 1 -50 30 -50 17 0 30 5 30 10 0 6 -9 10 -20 10 -11
0 -20 5 -20 10 0 6 9 10 21 10 12 0 17 4 14 11 -4 6 -13 8 -21 5 -8 -3 -14 1
-14 9 0 8 9 15 20 15 11 0 20 5 20 10 0 6 -13 10 -30 10 -29 0 -30 -1 -30 -50z"/>
<path d="M2320 240 c0 -27 5 -50 10 -50 6 0 10 8 10 18 1 16 1 16 14 0 7 -10
19 -18 27 -18 10 0 10 3 2 11 -7 7 -9 25 -6 41 6 32 -7 48 -39 48 -15 0 -18
-9 -18 -50z"/>
</g>
</svg>
