<?xml version="1.0" standalone="no"?>
<!DOCTYPE svg PUBLIC "-//W3C//DTD SVG 20010904//EN"
 "http://www.w3.org/TR/2001/REC-SVG-20010904/DTD/svg10.dtd">
<svg version="1.0" xmlns="http://www.w3.org/2000/svg"
 width="182.000000pt" height="182.000000pt" viewBox="0 0 182.000000 182.000000"
 preserveAspectRatio="xMidYMid meet">
<metadata>
Created by potrace 1.10, written by Peter Selinger 2001-2011
</metadata>
<g transform="translate(0.000000,182.000000) scale(0.100000,-0.100000)"
fill="#000000" stroke="none">
<path d="M703 1794 c-149 -32 -319 -128 -434 -243 -107 -108 -174 -218 -225
-371 -27 -80 -28 -95 -29 -265 0 -206 9 -250 80 -400 98 -205 268 -365 476
-448 86 -35 182 -57 239 -56 44 1 44 1 -35 25 -204 61 -271 91 -379 169 -188
135 -301 323 -357 595 -21 102 -21 107 -4 195 46 245 121 394 270 540 127 123
273 199 460 240 44 9 87 21 95 26 24 13 -86 9 -157 -7z"/>
<path d="M952 1804 c6 -5 95 -31 138 -39 41 -7 148 -44 204 -70 170 -78 319
-231 407 -420 44 -93 98 -293 99 -362 0 -50 -43 -236 -72 -313 -103 -271 -326
-466 -623 -545 -52 -14 -104 -29 -117 -34 -45 -19 65 -12 144 8 310 80 548
306 648 616 35 107 40 356 11 479 -79 331 -353 602 -680 672 -65 13 -170 19
-159 8z"/>
<path d="M955 1646 c-6 -18 -27 -178 -23 -181 2 -1 17 -5 35 -8 31 -6 32 -5
35 30 4 51 23 52 34 1 8 -39 12 -43 47 -49 42 -7 43 -5 21 47 -16 37 -15 39 5
52 25 17 28 64 6 82 -23 19 -156 40 -160 26z m65 -36 c0 -5 6 -10 14 -10 24 0
30 -22 11 -36 -23 -17 -35 -10 -28 16 3 11 0 20 -6 20 -7 0 -11 -14 -9 -36 2
-25 -3 -39 -15 -46 -10 -5 -15 -13 -12 -19 4 -5 1 -9 -6 -9 -8 0 -10 16 -5 56
4 31 9 61 12 65 7 12 44 11 44 -1z m76 -15 c3 -8 -1 -28 -9 -44 -8 -16 -12
-41 -10 -55 7 -34 -2 -33 -20 3 -13 25 -12 31 4 52 10 13 16 32 13 42 -6 21
14 23 22 2z"/>
<path d="M744 1634 c-91 -45 -59 -183 43 -187 76 -3 123 52 109 127 -12 64
-85 93 -152 60z m77 -75 c11 -34 10 -42 -4 -57 -15 -14 -19 -14 -31 -2 -24 25
-29 75 -11 94 22 21 32 14 46 -35z m44 16 c12 -27 12 -40 3 -60 -6 -14 -16
-25 -21 -25 -6 0 -6 5 1 13 6 8 6 27 -3 60 -14 55 -1 63 20 12z m-112 -72 c5
-7 4 -13 -2 -13 -15 0 -31 35 -31 68 0 47 15 47 20 0 3 -23 9 -49 13 -55z"/>
<path d="M1188 1509 l-45 -86 66 -34 c35 -19 67 -35 70 -37 4 -1 12 7 19 18
11 18 8 22 -28 40 -27 14 -38 25 -34 35 8 19 9 19 40 -2 22 -14 27 -14 35 -2
14 22 11 29 -16 41 -14 6 -25 17 -25 25 0 18 10 16 40 -7 32 -25 35 -25 47 3
10 21 6 25 -56 58 l-67 34 -46 -86z m82 27 c0 -8 -5 -18 -11 -21 -6 -4 -8 -13
-5 -20 4 -12 -42 -65 -58 -65 -12 0 3 50 26 88 20 33 48 43 48 18z"/>
<path d="M510 1551 c-38 -37 -45 -70 -27 -114 36 -85 148 -83 192 3 14 28 14
31 0 36 -9 4 -25 -4 -40 -20 -13 -14 -29 -26 -35 -26 -16 0 -60 47 -60 65 0
23 39 57 57 50 15 -5 32 9 33 28 0 4 -21 7 -46 7 -37 0 -51 -5 -74 -29z m53
-123 c22 -20 26 -28 15 -28 -43 0 -78 43 -78 92 1 21 2 21 16 -7 9 -16 30 -42
47 -57z"/>
<path d="M360 1437 c-13 -7 -35 -28 -47 -46 -50 -74 21 -135 91 -80 17 13 31
18 37 12 12 -12 -11 -43 -36 -47 -21 -3 -35 -46 -15 -46 26 0 77 29 93 53 22
34 22 80 -1 100 -24 22 -51 21 -82 -3 -26 -20 -50 -26 -50 -12 0 12 34 42 48
42 7 0 12 9 12 20 0 23 -14 25 -50 7z m107 -82 c8 -22 -2 -28 -25 -16 -15 8
-27 7 -49 -4 -44 -23 -77 -18 -66 11 4 10 9 11 23 1 15 -9 26 -8 52 5 42 21
57 22 65 3z"/>
<path d="M1398 1429 c-22 -12 -23 -50 -2 -90 8 -17 13 -34 9 -37 -11 -11 -40
15 -44 39 -7 49 -41 47 -41 -3 0 -21 10 -40 34 -64 40 -40 83 -45 111 -13 17
18 17 24 6 52 -23 59 -24 67 -7 67 10 0 19 -11 23 -30 4 -21 11 -30 24 -30 23
0 25 29 4 70 -24 47 -76 64 -117 39z m47 -39 c-16 -18 -17 -25 -6 -60 14 -46
9 -60 -21 -60 -20 0 -20 1 -3 26 14 21 15 31 6 51 -19 42 -14 63 16 63 25 0
26 0 8 -20z"/>
<path d="M860 1394 c25 -21 83 -76 130 -120 l85 -82 50 44 c56 49 54 56 -5 19
-22 -14 -42 -25 -46 -25 -7 0 -144 137 -144 145 0 10 67 5 125 -11 395 -102
526 -624 228 -905 -78 -73 -152 -114 -188 -105 -25 6 -125 96 -125 112 0 5 26
19 58 32 70 27 151 102 190 177 23 44 26 61 26 150 0 91 -4 107 -34 180 -30
70 -34 91 -34 167 -1 100 -18 104 -24 5 -3 -53 2 -77 34 -162 33 -87 38 -112
38 -190 1 -79 -2 -97 -27 -147 -16 -32 -47 -74 -70 -94 -51 -43 -137 -89 -147
-77 -12 14 -30 99 -30 145 0 85 53 223 106 279 13 14 24 28 24 31 0 7 -138
-35 -176 -54 -16 -8 -28 -19 -27 -25 3 -14 -25 -38 -34 -30 -3 4 7 35 22 69
37 82 46 215 20 304 -20 69 -59 146 -88 171 -11 10 -18 13 -14 7 4 -6 -23 -22
-66 -39 -223 -86 -357 -281 -357 -520 0 -158 57 -292 171 -399 115 -109 259
-162 415 -154 l59 3 -49 18 c-73 25 -169 91 -231 158 -69 76 -113 166 -125
260 -16 128 12 211 101 298 29 28 47 51 41 51 -20 0 -109 -98 -133 -147 -29
-58 -37 -162 -19 -242 27 -124 120 -250 250 -338 l55 -38 -33 -3 c-18 -2 -58
4 -89 13 -190 55 -322 187 -380 379 -21 67 -21 214 0 289 45 163 174 301 340
362 45 17 48 17 67 0 16 -14 55 -105 45 -105 -2 0 -13 15 -25 33 -23 34 -21
24 13 -58 41 -99 25 -294 -33 -392 -27 -46 -26 -47 18 -19 20 13 62 32 92 42
32 10 48 20 38 22 -27 5 -21 19 12 31 42 14 52 -11 17 -43 -41 -38 -70 -150
-65 -249 7 -120 53 -198 163 -274 l30 -21 49 25 c151 76 257 209 295 371 16
65 17 191 1 257 -21 91 -77 193 -143 259 -105 104 -211 153 -357 163 -47 3
-96 13 -110 21 -14 7 -5 -3 20 -24z"/>
<path d="M787 1233 c16 -76 12 -148 -11 -190 -8 -15 -15 -24 -16 -20 0 5 5 18
12 30 10 20 10 21 -7 7 -21 -17 -55 -93 -55 -122 0 -21 0 -21 21 -2 67 61 96
171 73 280 -7 37 -18 72 -22 76 -5 5 -2 -22 5 -59z"/>
</g>
</svg>
