<?xml version="1.0" standalone="no"?>
<!DOCTYPE svg PUBLIC "-//W3C//DTD SVG 20010904//EN"
 "http://www.w3.org/TR/2001/REC-SVG-20010904/DTD/svg10.dtd">
<svg version="1.0" xmlns="http://www.w3.org/2000/svg"
 width="300.000000pt" height="345.000000pt" viewBox="0 0 300.000000 345.000000"
 preserveAspectRatio="xMidYMid meet">
<metadata>
Created by potrace 1.10, written by Peter Selinger 2001-2011
</metadata>
<g transform="translate(0.000000,345.000000) scale(0.100000,-0.100000)"
fill="#000000" stroke="none">
<path d="M1704 3426 c-117 -37 -237 -127 -325 -247 -41 -55 -55 -67 -65 -58
-19 15 -17 36 6 87 29 64 20 76 -57 69 -167 -13 -314 -166 -358 -373 -28 -133
-11 -247 59 -389 73 -147 171 -239 294 -276 23 -7 42 -16 42 -20 0 -5 -11 -53
-25 -108 -20 -77 -65 -351 -65 -392 0 -4 -15 -10 -32 -14 -55 -11 -114 -52
-132 -89 -33 -69 -20 -108 68 -212 46 -54 75 -100 101 -162 52 -124 103 -172
182 -172 49 1 65 10 166 102 47 42 128 101 180 132 110 64 151 102 167 152 25
76 -4 151 -73 189 -34 19 -39 28 -73 135 -21 63 -37 120 -36 125 0 6 5 66 10
135 7 84 17 140 30 170 49 112 146 130 194 36 28 -54 36 -186 15 -274 l-14
-62 29 -25 c65 -54 148 -56 254 -6 156 75 224 221 195 418 -7 48 -21 112 -31
142 -21 64 -18 78 16 57 35 -24 81 -20 98 7 57 88 66 243 21 378 -53 160 -122
268 -244 381 -116 106 -259 177 -360 178 -56 0 -43 -13 27 -28 295 -65 582
-411 582 -702 0 -59 -18 -151 -34 -170 -17 -23 -58 -43 -65 -33 -8 11 -58 10
-71 -3 -9 -9 7 -94 20 -104 4 -3 13 -51 20 -106 21 -176 -14 -269 -135 -361
-56 -42 -79 -53 -122 -59 -85 -10 -178 10 -130 29 9 4 9 6 -1 6 -27 2 -43 30
-37 63 17 90 17 174 -1 233 -10 33 -17 65 -16 72 4 21 -47 45 -98 47 -28 0
-50 -3 -50 -7 0 -5 -4 -6 -8 -3 -11 7 -55 -40 -76 -81 -9 -18 -16 -50 -16 -73
0 -27 -4 -39 -11 -34 -7 4 -10 -18 -9 -72 1 -44 1 -92 1 -109 l-2 -30 -12 27
c-8 19 -16 25 -25 20 -9 -7 -5 -25 19 -78 30 -65 79 -199 79 -215 0 -16 -68
-19 -96 -4 -16 8 -40 15 -54 15 -46 0 -52 12 -29 57 11 22 25 68 31 102 l12
62 17 -33 c21 -39 23 -28 7 41 -11 49 -28 60 -28 19 0 -28 -7 -20 -15 17 -18
91 -18 91 9 112 l26 21 -28 83 c-27 84 -73 149 -105 149 -9 0 -32 -14 -52 -31
-33 -29 -37 -30 -54 -15 -22 20 -65 21 -82 0 -16 -19 -64 -12 -124 18 -22 12
-41 19 -42 17 0 -2 -11 8 -22 23 -12 15 -30 30 -41 33 -11 4 -20 10 -20 14 0
5 -20 38 -44 76 -92 139 -129 284 -108 423 23 146 112 287 219 344 56 30 113
45 113 29 0 -6 6 -10 13 -9 12 3 12 -2 1 -73 -5 -30 -2 -39 20 -57 18 -13 22
-22 14 -25 -9 -4 -7 -6 3 -6 17 -1 79 62 79 79 0 22 170 177 226 206 60 32
156 64 192 64 12 0 24 5 27 10 9 14 -81 11 -131 -4z m-137 -1206 c23 -46 47
-149 38 -158 -3 -3 -23 5 -46 17 -51 29 -83 22 -111 -25 l-21 -36 -25 32 c-22
28 -30 31 -59 27 -38 -7 -38 -8 -17 83 19 85 35 102 67 71 31 -28 48 -27 82 9
40 42 65 36 92 -20z m-28 -174 c19 -20 51 -100 51 -128 0 -4 -13 -8 -30 -8
-39 0 -58 -30 -68 -106 l-8 -59 -19 35 c-15 27 -19 55 -19 125 0 144 37 200
93 141z m-164 -6 c19 -21 48 -117 40 -131 -3 -4 -20 -5 -39 -2 -27 4 -36 1
-50 -18 -9 -13 -19 -41 -23 -61 -9 -62 -24 -49 -37 32 -12 71 39 200 79 200 7
0 20 -9 30 -20z m208 -225 c-29 -89 -49 -125 -69 -125 -23 0 -24 16 -4 69 11
28 20 59 20 69 0 23 63 78 77 68 1 -1 -10 -37 -24 -81z m-177 30 c5 -19 -2
-34 -29 -66 -20 -22 -34 -46 -31 -53 2 -6 -4 -12 -15 -13 -30 -2 -35 49 -9 94
37 66 73 82 84 38z m-149 -133 c-16 -2 -31 -2 -32 0 -2 2 1 23 7 47 l11 43 22
-44 22 -43 -30 -3z m183 42 c11 -26 20 -48 20 -50 0 -6 -57 -5 -73 2 -13 5
-12 12 6 50 12 24 23 44 24 44 1 0 11 -21 23 -46z m134 -89 c55 -8 103 -20
106 -25 4 -7 23 -8 46 -4 107 17 185 -85 138 -179 -27 -53 -64 -86 -161 -143
-51 -30 -124 -84 -162 -119 -78 -72 -117 -95 -158 -95 -57 0 -117 62 -153 157
-11 30 -20 56 -20 59 0 9 35 -15 68 -46 17 -18 32 -27 32 -21 0 19 61 42 179
67 125 27 187 56 221 104 12 17 30 30 41 30 25 0 24 15 -1 40 -27 27 -36 25
-43 -8 -15 -74 -78 -112 -233 -142 -60 -11 -124 -27 -143 -36 -28 -13 -35 -13
-45 -1 -6 8 -45 39 -87 69 -85 62 -113 93 -129 144 -23 68 34 134 132 153 71
14 266 12 372 -4z"/>
<path d="M2530 2963 c0 -5 31 -20 70 -33 138 -46 186 -119 200 -308 5 -64 14
-178 20 -252 6 -74 15 -193 20 -265 5 -71 16 -206 24 -300 8 -93 17 -222 21
-285 3 -63 10 -167 15 -230 9 -107 25 -320 51 -670 13 -176 17 -200 30 -179
13 20 15 -5 -96 1479 -64 862 -60 825 -90 886 -28 58 -74 103 -135 134 -45 23
-130 38 -130 23z"/>
<path d="M895 2165 c-205 -418 -867 -1789 -877 -1818 -14 -38 6 -63 21 -26 8
22 51 112 238 499 42 85 97 200 123 255 26 55 83 174 127 265 45 91 103 212
131 270 27 58 99 206 159 330 61 124 127 261 147 305 21 44 42 90 48 101 5 12
8 30 5 40 -2 12 -47 -68 -122 -221z"/>
<path d="M2255 1798 c-46 -36 -55 -73 -55 -233 0 -171 -2 -179 -92 -296 -89
-117 -111 -173 -106 -267 3 -69 6 -76 36 -103 57 -51 108 -34 127 43 8 29 43
58 73 58 29 0 32 -9 16 -45 -19 -47 -18 -71 7 -96 20 -20 41 -21 80 -5 12 5
14 0 11 -28 -5 -41 12 -76 37 -76 38 0 121 113 162 221 15 38 21 80 22 142 2
85 1 89 -26 113 -15 13 -36 24 -46 24 -10 0 -25 17 -39 45 -26 53 -63 76 -93
57 -10 -7 -21 -12 -24 -12 -8 0 -5 112 5 155 5 22 19 77 31 121 25 94 21 143
-16 180 -30 30 -73 31 -110 2z m88 -26 c29 -32 30 -72 2 -167 -33 -113 -41
-202 -25 -280 23 -109 23 -160 1 -235 l-21 -69 -50 6 c-47 5 -51 4 -85 -30
-19 -19 -35 -44 -35 -55 0 -27 -25 -45 -50 -37 -30 10 -50 57 -50 118 0 66 31
131 118 245 33 42 64 92 71 111 6 19 11 94 11 166 0 157 5 186 36 220 27 30
55 32 77 7z m76 -471 c11 -11 22 -35 25 -53 3 -18 7 -44 10 -58 3 -25 3 -25
11 -2 8 24 43 30 63 10 21 -21 14 -132 -14 -216 -27 -82 -92 -187 -115 -187
-17 0 -15 69 6 147 7 29 12 54 10 56 -2 2 -16 -20 -31 -48 -33 -61 -72 -86
-99 -66 -17 12 -16 18 22 107 47 107 63 174 63 258 0 76 12 89 49 52z"/>
<path d="M1505 1045 c-60 -29 -115 -54 -120 -54 -6 -1 -48 22 -95 49 -47 28
-88 50 -91 50 -3 0 -10 -54 -15 -120 -5 -66 -5 -120 -1 -120 4 0 34 14 65 31
31 17 73 41 94 52 l36 20 44 -25 c23 -14 76 -44 116 -68 40 -23 75 -41 77 -38
10 9 20 278 10 277 -5 0 -59 -25 -120 -54z m90 15 c-3 -5 -1 -10 4 -10 7 0 11
-38 10 -107 -1 -60 -4 -98 -6 -85 -5 24 -18 29 -27 10 -3 -10 -8 -9 -18 3 -7
9 -20 14 -28 11 -8 -3 -12 -1 -8 3 10 10 -22 34 -44 35 -10 0 -18 5 -18 10 0
6 -9 10 -20 10 -25 0 -25 9 -2 26 39 29 -100 -15 -181 -57 -10 -5 -23 -7 -29
-3 -5 4 -14 0 -19 -7 -5 -9 -8 8 -8 46 1 72 11 116 23 97 4 -7 11 -10 15 -7 5
2 39 -11 76 -30 67 -33 69 -34 104 -18 20 8 58 24 85 34 27 10 52 22 55 27 3
5 13 12 21 15 22 8 22 8 15 -3z"/>
<path d="M1700 923 c-36 -46 -8 -103 50 -103 55 0 80 70 40 110 -28 28 -64 25
-90 -7z m80 -3 c11 -11 20 -29 20 -39 0 -41 -59 -68 -88 -39 -17 17 -15 64 4
82 21 21 40 20 64 -4z"/>
<path d="M1720 886 c0 -20 4 -36 9 -36 4 0 7 14 5 30 -3 22 1 30 12 30 10 0
13 -6 9 -19 -3 -10 0 -23 7 -29 10 -8 13 -3 13 21 0 27 -4 32 -27 35 -26 3
-28 1 -28 -32z"/>
<path d="M1748 733 c-34 -3 -48 -8 -48 -19 0 -7 7 -14 16 -14 10 0 14 -6 10
-17 -3 -10 -23 -88 -46 -173 -23 -85 -43 -163 -46 -172 -5 -16 3 -18 67 -18
124 0 197 37 238 123 35 73 24 167 -20 167 -34 0 -91 -28 -83 -41 4 -7 3 -9
-3 -6 -6 4 -16 0 -23 -8 -27 -33 -27 -11 1 82 16 53 29 98 29 100 0 1 -10 2
-22 1 -13 -1 -44 -3 -70 -5z m62 -35 c0 -4 -9 -43 -21 -85 -13 -51 -17 -79
-10 -81 6 -2 11 -8 11 -14 0 -6 -7 -7 -16 -4 -12 5 -14 1 -9 -15 5 -15 4 -19
-4 -15 -6 4 -11 4 -12 -1 0 -4 -8 -39 -18 -78 -17 -68 -18 -70 -49 -70 -18 0
-32 2 -32 5 0 3 12 46 26 95 13 50 34 128 45 175 12 47 23 88 25 92 6 10 64 7
64 -4z m131 -125 c12 -31 5 -96 -11 -101 -5 -2 -8 -8 -5 -13 4 -5 1 -14 -4
-21 -6 -7 -20 -24 -32 -38 -13 -16 -19 -19 -15 -8 4 12 1 15 -11 11 -13 -5
-14 -3 -4 16 15 27 12 151 -3 152 -11 0 51 27 67 28 4 1 12 -11 18 -26z m-81
-72 c0 -53 -15 -89 -53 -128 -30 -32 -60 -42 -71 -24 -9 15 29 118 58 156 15
19 36 35 47 35 16 0 19 -7 19 -39z"/>
<path d="M468 691 c-25 -22 -32 -37 -32 -64 0 -44 14 -61 81 -99 65 -36 78
-57 57 -86 -12 -17 -25 -22 -59 -22 -49 0 -75 19 -75 56 0 37 -18 29 -29 -13
-17 -59 -15 -61 43 -68 110 -14 189 21 202 90 8 47 -7 68 -80 111 -36 21 -67
43 -70 50 -2 6 2 21 10 33 28 39 114 20 114 -25 0 -21 18 -17 24 6 3 11 9 29
12 40 5 19 1 20 -80 20 -80 0 -88 -2 -118 -29z m22 -36 c0 -19 49 -64 77 -71
13 -4 20 -10 17 -15 -3 -5 2 -9 10 -9 9 0 16 -4 16 -10 0 -5 6 -10 13 -10 16
0 16 -42 1 -61 -7 -8 -14 -23 -17 -34 -4 -16 -5 -15 -6 5 -1 36 -24 65 -67 85
-28 13 -34 19 -23 27 10 7 8 8 -9 5 -13 -3 -21 -3 -18 0 3 4 -3 12 -14 20 -22
16 -27 62 -8 81 13 13 28 7 28 -13z"/>
<path d="M916 705 c-5 -13 0 -15 29 -9 93 17 95 15 78 -63 -12 -51 -13 -71 -4
-85 9 -14 8 -18 -3 -18 -14 0 -46 -87 -46 -123 0 -8 -7 -20 -15 -27 -9 -7 -14
-19 -11 -26 5 -13 -35 -24 -64 -17 -15 4 -16 8 -5 31 7 15 28 88 46 162 19 74
38 138 43 141 4 4 3 10 -4 14 -6 4 -12 5 -13 4 -1 -2 -20 -74 -41 -159 -21
-85 -43 -161 -48 -167 -8 -10 -69 -13 -243 -13 -198 0 -234 -2 -239 -15 -5
-13 32 -15 290 -15 227 0 295 3 298 13 2 6 14 51 26 100 l23 87 58 0 c33 0 59
-2 59 -6 0 -3 -11 -45 -25 -94 -14 -49 -25 -91 -25 -94 0 -4 31 -6 69 -6 71 0
94 13 63 36 -13 9 -10 31 25 165 33 127 43 156 61 164 45 20 25 35 -48 35
l-69 0 -10 -37 c-6 -21 -15 -59 -22 -85 l-11 -48 -59 0 -59 0 6 28 c4 15 15
53 24 85 l18 57 -73 0 c-56 0 -74 -3 -79 -15z m357 -6 c7 0 1 -5 -13 -11 -15
-6 -20 -12 -12 -15 16 -6 15 -22 -3 -57 -9 -16 -14 -31 -11 -33 2 -2 -7 -43
-20 -91 -13 -48 -24 -102 -24 -119 0 -18 -3 -34 -7 -34 -33 -6 -63 -3 -63 6 0
5 -5 3 -11 -5 -9 -12 -10 -12 -5 3 3 10 6 30 6 43 0 14 4 22 10 19 6 -3 10 3
10 15 0 12 4 29 10 39 5 11 6 31 1 48 -6 20 -4 35 4 47 7 9 21 46 30 81 18 64
34 79 73 69 8 -2 19 -4 25 -5z"/>
<path d="M764 662 c-37 -33 -44 -47 -63 -124 -34 -142 -27 -159 59 -139 53 12
59 18 26 30 -31 12 -31 14 -9 97 16 58 19 64 44 64 18 0 28 6 32 20 4 17 0 20
-23 20 l-29 0 15 35 c19 47 2 46 -52 -3z m26 -27 c0 -8 -9 -48 -20 -87 -11
-40 -20 -85 -20 -100 0 -18 -8 -31 -22 -39 -13 -6 -20 -8 -16 -4 4 4 0 14 -9
20 -18 13 -18 13 29 172 12 43 58 72 58 38z"/>
<path d="M2635 660 c-16 -16 -36 -32 -46 -35 -9 -3 -19 -18 -22 -33 -2 -15
-17 -75 -33 -134 -27 -105 -27 -108 -9 -128 22 -24 27 -24 93 -5 52 16 70 35
32 35 -32 0 -35 26 -14 114 l19 81 38 3 c29 3 37 7 37 23 0 14 -7 19 -30 19
-35 0 -34 -4 -15 49 13 38 13 41 -4 41 -9 0 -30 -13 -46 -30z m22 -51 c-4 -14
0 -19 16 -20 22 0 22 0 -1 -9 -25 -11 -28 -17 -52 -108 -11 -42 -14 -77 -10
-98 6 -25 4 -34 -7 -38 -27 -11 -43 -6 -44 12 -1 16 -2 16 -6 -1 -6 -24 -23
-11 -23 18 0 29 22 118 31 125 3 3 10 28 14 55 7 51 19 75 37 75 6 0 5 -7 -2
-15 -9 -10 -9 -15 -1 -15 6 0 12 5 12 10 1 9 4 19 8 35 0 2 8 2 17 -2 9 -3 14
-13 11 -24z"/>
<path d="M1352 592 c-35 -9 -61 -20 -59 -26 2 -6 11 -10 21 -8 20 4 20 4 -9
-103 -29 -104 -31 -133 -10 -142 25 -9 102 26 140 64 l36 36 -7 -40 c-9 -61
10 -70 80 -36 31 15 56 33 56 41 0 7 -6 12 -14 10 -8 -2 -16 -1 -17 2 -3 7 20
106 37 158 8 23 14 46 14 50 0 4 -22 5 -48 4 l-49 -4 -17 -56 c-10 -32 -29
-74 -42 -94 -24 -38 -70 -75 -80 -66 -3 3 9 52 26 108 16 56 30 107 30 111 0
11 -11 10 -88 -9z m39 -110 c-26 -85 -26 -109 -3 -115 12 -3 7 -8 -20 -20 -21
-10 -43 -17 -51 -17 -19 0 -15 60 12 162 22 79 26 87 50 90 35 4 37 -14 12
-100z m173 93 c4 12 10 15 17 8 6 -6 2 -43 -12 -108 -17 -78 -19 -100 -9 -103
7 -3 -6 -13 -30 -24 -23 -11 -44 -17 -47 -15 -14 14 -9 104 7 127 9 14 20 37
24 52 3 15 11 40 17 55 10 25 12 26 18 9 7 -19 8 -19 15 -1z"/>
<path d="M2105 591 c-75 -35 -125 -111 -125 -191 0 -48 34 -90 73 -90 27 0
147 57 147 70 0 18 -17 18 -46 -1 -16 -10 -35 -19 -41 -19 -21 0 -42 43 -36
73 5 23 10 27 40 27 19 0 48 8 64 17 50 30 70 101 35 125 -19 13 -70 8 -111
-11z m105 -37 c0 -21 -4 -33 -10 -29 -12 7 -10 65 2 65 4 0 8 -16 8 -36z m-37
20 c10 -10 -14 -64 -36 -79 -32 -23 -50 -19 -41 8 16 52 57 90 77 71z m-91
-33 c6 9 7 -2 3 -31 -4 -25 -11 -49 -16 -54 -16 -17 -6 -112 10 -102 4 3 13 1
21 -4 17 -10 -52 -25 -75 -16 -26 10 -36 52 -24 104 11 50 60 125 67 103 4
-11 6 -11 14 0z"/>
<path d="M2328 592 c-36 -10 -58 -21 -58 -30 0 -8 6 -12 14 -9 8 3 16 4 19 1
2 -2 -10 -56 -28 -119 l-33 -115 49 0 c45 0 49 2 55 28 14 55 63 151 84 162
12 6 32 9 44 6 20 -5 24 1 38 44 16 49 16 50 -5 50 -12 0 -42 -22 -71 -52 -27
-28 -46 -43 -42 -32 4 10 10 34 13 52 6 37 5 37 -79 14z m56 -64 c-1 -26 -8
-60 -16 -76 -8 -16 -21 -50 -29 -75 -7 -26 -18 -46 -24 -44 -5 2 -9 11 -7 21
2 9 -2 16 -8 16 -5 0 -10 -9 -10 -20 0 -11 -5 -20 -11 -20 -13 0 -11 10 23
153 l23 98 30 -3 c29 -3 30 -5 29 -50z"/>
<path d="M2960 265 c0 -25 -40 -93 -79 -133 -39 -40 -90 -71 -154 -91 -44 -15
-39 -36 7 -27 40 8 99 39 147 78 71 57 137 188 95 188 -9 0 -16 -7 -16 -15z"/>
<path d="M14 185 c-18 -45 94 -156 172 -171 63 -12 60 11 -4 35 -76 27 -105
51 -132 106 -24 49 -28 52 -36 30z"/>
</g>
</svg>
