<?xml version="1.0" standalone="no"?>
<!DOCTYPE svg PUBLIC "-//W3C//DTD SVG 20010904//EN"
 "http://www.w3.org/TR/2001/REC-SVG-20010904/DTD/svg10.dtd">
<svg version="1.0" xmlns="http://www.w3.org/2000/svg"
 width="300.000000pt" height="300.000000pt" viewBox="0 0 300.000000 300.000000"
 preserveAspectRatio="xMidYMid meet">
<metadata>
Created by potrace 1.10, written by Peter Selinger 2001-2011
</metadata>
<g transform="translate(0.000000,300.000000) scale(0.100000,-0.100000)"
fill="#000000" stroke="none">
<path d="M1362 2550 c-34 -4 -65 -9 -68 -12 -3 -4 10 -11 29 -17 19 -7 45 -23
57 -36 21 -22 32 -25 95 -25 88 0 164 -22 230 -65 45 -30 153 -136 289 -284
50 -54 101 -84 168 -95 l37 -7 -24 62 c-111 281 -331 447 -636 479 -56 5 -104
9 -108 9 -3 -1 -34 -5 -69 -9z m303 -54 c155 -44 318 -158 396 -279 41 -63 76
-144 66 -153 -13 -13 -95 47 -147 108 -29 34 -81 90 -114 123 -154 153 -215
186 -348 186 -67 0 -83 4 -100 21 l-21 21 104 -5 c57 -3 131 -13 164 -22z"/>
<path d="M1201 2512 c-19 -9 -48 -34 -65 -55 -26 -33 -31 -47 -32 -102 -1 -54
-6 -69 -28 -96 -101 -119 -127 -280 -85 -523 30 -176 25 -240 -29 -348 -71
-142 -68 -193 16 -231 131 -58 379 -1 721 165 321 157 596 389 618 522 12 76
-26 118 -122 131 -62 9 -163 58 -207 99 -18 17 -62 66 -98 109 -83 100 -177
179 -264 222 -61 31 -77 35 -149 35 -75 0 -81 2 -115 31 -35 31 -89 59 -114
59 -7 0 -28 -8 -47 -18z m147 -48 c22 -17 32 -33 32 -52 0 -29 23 -44 88 -57
20 -4 51 -25 80 -54 56 -57 54 -55 117 -156 27 -44 53 -81 57 -83 4 -2 8 -9 8
-15 1 -19 36 -56 61 -66 13 -4 40 -6 59 -4 19 2 -19 -14 -85 -37 -160 -55
-401 -174 -500 -247 -90 -67 -86 -63 -184 -158 l-72 -70 17 40 c20 48 50 94
77 116 19 16 19 18 2 110 -38 210 -46 277 -42 349 7 133 69 223 199 290 58 30
83 50 63 50 -11 0 -131 -59 -160 -79 l-31 -20 6 57 c7 71 12 79 64 103 50 23
97 18 144 -17z m243 -79 c73 -38 130 -94 203 -204 65 -96 116 -153 149 -164 9
-4 17 -4 17 -2 0 2 -27 37 -61 77 -34 40 -68 86 -76 103 l-16 30 23 -20 c42
-35 60 -55 60 -63 0 -4 20 -29 45 -55 42 -45 134 -97 172 -97 33 0 3 -12 -88
-34 -148 -37 -463 -172 -485 -207 -5 -8 -2 -10 7 -6 8 3 56 24 107 47 240 105
448 122 492 41 29 -55 -4 -132 -93 -220 -241 -236 -722 -436 -894 -370 -70 26
-88 72 -57 145 86 205 448 466 784 564 41 12 79 25 83 30 14 13 -51 23 -108
15 l-53 -6 -30 43 c-16 24 -55 86 -88 138 -98 159 -168 219 -256 220 -21 0
-38 4 -38 9 0 30 132 20 201 -14z m-548 -302 c3 -16 6 -51 7 -80 0 -28 12
-109 25 -179 31 -160 31 -175 0 -204 -14 -13 -26 -22 -28 -19 -2 2 -14 69 -27
147 -22 140 -24 270 -4 340 9 30 21 28 27 -5z m1147 -143 c68 -13 90 -33 90
-80 0 -48 -38 -106 -130 -198 -74 -74 -103 -89 -58 -30 66 86 85 171 50 214
-31 39 -62 47 -161 46 -102 -1 -106 5 -21 30 30 10 62 19 70 22 27 8 106 6
160 -4z m-757 -178 c-11 -9 -50 -39 -85 -67 -216 -169 -326 -353 -255 -428 28
-30 119 -61 158 -53 34 6 39 -8 8 -24 -31 -17 -227 -18 -266 -1 -61 25 -55 87
18 218 68 120 170 216 348 330 67 42 117 59 74 25z"/>
<path d="M1884 1820 c-73 -15 -221 -68 -329 -119 -249 -118 -443 -296 -407
-375 37 -81 287 -38 553 95 159 79 337 217 375 291 22 42 15 90 -16 105 -28
14 -113 15 -176 3z m145 -11 c69 -24 61 -72 -27 -163 -104 -107 -380 -268
-499 -291 -44 -9 -42 8 2 24 25 9 43 26 62 59 15 26 30 49 34 52 3 3 9 26 13
52 5 36 3 57 -10 84 -17 35 -19 36 -58 31 -39 -5 -37 -4 39 38 116 64 285 117
391 124 12 0 35 -4 53 -10z m-445 -175 c11 -30 6 -116 -9 -148 -49 -102 -189
-154 -290 -107 -56 25 -82 56 -65 76 16 20 25 19 58 -4 31 -23 129 -41 118
-22 -4 6 -12 11 -18 11 -21 0 -58 43 -58 66 0 19 16 32 77 66 81 45 150 76
169 77 7 1 15 -6 18 -15z m-368 -232 c-3 -5 16 -18 41 -31 35 -17 64 -22 127
-23 l81 0 -52 -15 c-29 -9 -53 -19 -53 -24 0 -5 -34 -9 -75 -9 -78 0 -125 17
-125 46 0 28 24 64 42 64 11 0 17 -4 14 -8z"/>
<path d="M1070 2458 c-138 -78 -236 -176 -299 -298 -72 -139 -74 -150 -78
-577 l-4 -383 75 0 76 0 0 29 c0 15 13 52 29 82 16 30 43 81 61 114 32 60 32
60 26 170 -18 326 -18 389 -2 458 18 78 54 152 96 200 25 29 30 43 30 88 0 39
7 66 25 98 14 24 24 45 22 47 -1 2 -27 -11 -57 -28z m-13 -107 c-5 -42 -7 -48
-53 -108 -32 -42 -69 -127 -79 -180 -3 -16 -7 -39 -10 -53 -10 -47 -7 -265 4
-319 6 -29 11 -83 11 -120 0 -62 -4 -75 -66 -198 -66 -129 -84 -150 -120 -136
-12 4 -14 62 -14 343 0 383 6 434 67 556 55 111 193 254 245 254 17 0 19 -6
15 -39z"/>
<path d="M2166 1603 c-76 -90 -381 -307 -522 -370 -35 -15 -64 -31 -64 -35 0
-5 142 -8 315 -8 l315 0 0 225 c0 124 -3 225 -7 224 -5 0 -21 -16 -37 -36z m8
-75 c11 -49 1 -277 -12 -290 -9 -9 -63 -13 -201 -13 -103 -1 -197 2 -207 5
-14 5 -1 18 62 58 43 29 84 55 89 60 6 4 39 29 75 54 36 26 90 69 120 97 30
28 58 51 62 51 4 0 10 -10 12 -22z"/>
<path d="M629 1013 c18 -36 22 -38 66 -38 l48 0 -2 -97 -2 -98 80 0 81 0 0
101 0 102 48 -7 c48 -6 48 -6 65 29 9 20 17 38 17 40 0 3 -95 5 -210 5 l-210
0 19 -37z m240 1 c31 -6 31 -7 16 -30 -9 -14 -15 -46 -15 -78 0 -75 -6 -86
-45 -86 -19 0 -36 4 -39 8 -3 5 -6 37 -7 71 -1 34 -8 69 -15 79 -7 9 -14 20
-14 24 0 15 68 22 119 12z"/>
<path d="M1056 1003 c-13 -27 -47 -87 -74 -135 l-51 -88 84 0 c82 0 84 1 92
27 9 26 13 27 72 28 61 1 64 0 73 -27 10 -28 11 -28 94 -28 l84 0 -56 103
c-30 56 -62 117 -71 135 l-17 32 -103 0 -103 0 -24 -47z m216 -10 c18 -22 88
-151 88 -164 0 -16 -67 -10 -81 7 -7 9 -24 20 -37 25 -20 8 -23 14 -17 39 8
37 -16 80 -45 80 -28 0 -53 -43 -45 -78 5 -25 1 -32 -33 -55 -53 -34 -92 -40
-92 -12 0 19 69 147 88 163 10 7 45 12 87 12 56 0 75 -4 87 -17z m-79 -40 c2
-10 8 -26 12 -35 6 -15 2 -18 -24 -18 -35 0 -36 4 -18 43 14 31 23 34 30 10z"/>
<path d="M1525 1036 c-94 -23 -125 -54 -125 -122 0 -58 35 -99 103 -119 51
-15 189 -20 245 -9 27 6 30 10 29 41 l-2 35 -60 -6 c-77 -8 -128 6 -143 40 -9
17 -9 31 -2 44 13 24 78 42 138 39 42 -3 48 0 64 26 l18 30 -28 6 c-46 11
-184 8 -237 -5z m50 -32 c14 -6 13 -8 -5 -21 -33 -23 -42 -57 -25 -96 8 -19
21 -37 30 -41 22 -8 9 -26 -19 -26 -58 0 -126 49 -126 92 0 26 43 70 81 84 42
15 43 15 64 8z"/>
<path d="M1900 1030 c-70 -24 -110 -66 -110 -118 0 -47 20 -76 73 -105 36 -19
57 -22 152 -22 94 0 116 3 151 22 51 27 74 61 74 109 0 103 -188 167 -340 114z
m265 -54 c12 -8 27 -28 33 -45 9 -25 7 -34 -10 -56 -23 -30 -68 -55 -99 -55
-21 0 -21 1 -5 26 22 33 23 94 2 126 -9 13 -13 27 -10 30 7 8 61 -8 89 -26z
m-225 -6 c-25 -35 -23 -89 6 -121 24 -26 11 -34 -34 -21 -42 13 -82 49 -86 78
-6 39 57 94 107 94 l28 0 -21 -30z m122 -14 c14 -20 8 -79 -9 -98 -20 -22 -42
-23 -71 -2 -19 13 -23 23 -20 62 2 38 8 49 27 59 25 12 57 3 73 -21z"/>
<path d="M740 600 l0 -89 59 -41 60 -40 116 0 c110 0 117 1 140 25 30 29 32
55 6 86 -16 21 -17 25 -3 49 20 35 9 78 -24 90 -14 6 -99 10 -190 10 l-164 0
0 -90z m138 23 c5 -69 1 -153 -8 -153 -4 0 -26 14 -48 30 -41 29 -42 32 -42
88 0 32 3 62 7 66 4 4 25 6 48 4 37 -3 40 -5 43 -35z m193 27 c15 -8 19 -21
18 -58 0 -26 1 -60 3 -76 2 -23 -3 -33 -23 -44 -30 -18 -90 -9 -70 11 14 14
14 42 -1 67 -10 16 -10 24 0 40 6 11 12 31 12 45 0 27 25 34 61 15z m-84 -36
c3 -8 -13 -13 -42 -16 -40 -3 -45 -1 -45 18 0 18 4 20 42 15 23 -3 43 -11 45
-17z m-8 -83 c27 -17 4 -41 -39 -41 -36 0 -40 2 -40 25 0 22 4 25 33 25 17 0
38 -4 46 -9z"/>
<path d="M1160 560 l0 -130 180 0 180 0 0 35 0 35 -100 0 c-82 0 -100 3 -100
15 0 12 16 15 85 15 l85 0 0 36 0 36 -85 -3 c-70 -3 -85 -1 -85 11 0 12 15 14
89 12 l89 -4 16 31 c9 16 16 32 16 36 0 3 -83 5 -185 5 l-185 0 0 -130z m145
69 c-5 -22 -2 -36 10 -49 16 -18 16 -20 0 -36 -9 -9 -15 -24 -12 -33 13 -47
14 -46 -43 -46 l-55 0 -3 84 c-2 46 -1 90 2 98 4 8 23 13 56 13 l52 0 -7 -31z"/>
<path d="M1550 572 c0 -78 4 -122 12 -130 8 -8 59 -12 163 -12 l151 0 17 35
17 35 -99 0 -99 0 5 95 6 95 -87 0 -86 0 0 -118z m118 76 c7 -7 12 -37 12 -67
0 -31 7 -68 14 -83 9 -17 11 -30 5 -34 -14 -8 -92 -2 -106 9 -14 10 -18 141
-7 171 7 19 64 22 82 4z"/>
<path d="M1920 576 c0 -147 0 -146 126 -146 89 0 97 2 144 33 27 17 50 34 50
37 0 3 -34 4 -75 2 l-75 -4 0 96 0 96 -85 0 -85 0 0 -114z m127 72 c6 -7 11
-41 11 -76 0 -35 6 -70 12 -77 7 -8 9 -19 5 -25 -8 -13 -66 -13 -99 0 -25 9
-26 13 -26 88 0 47 5 83 12 90 16 16 73 15 85 0z"/>
</g>
</svg>
