<?xml version="1.0" standalone="no"?>
<!DOCTYPE svg PUBLIC "-//W3C//DTD SVG 20010904//EN"
 "http://www.w3.org/TR/2001/REC-SVG-20010904/DTD/svg10.dtd">
<svg version="1.0" xmlns="http://www.w3.org/2000/svg"
 width="300.000000pt" height="253.000000pt" viewBox="0 0 300.000000 253.000000"
 preserveAspectRatio="xMidYMid meet">
<metadata>
Created by potrace 1.10, written by Peter Selinger 2001-2011
</metadata>
<g transform="translate(0.000000,253.000000) scale(0.100000,-0.100000)"
fill="#000000" stroke="none">
<path d="M1589 2499 c21 -13 45 -19 65 -16 l31 4 -35 2 c-19 1 -44 8 -54 16
-11 8 -25 15 -30 15 -6 0 4 -9 23 -21z"/>
<path d="M1349 2476 c-67 -26 -114 -54 -149 -91 -19 -20 -63 -56 -97 -81 -175
-125 -273 -333 -260 -548 3 -50 9 -102 12 -116 l7 -25 -27 29 c-34 37 -42 27
-18 -24 23 -46 12 -53 -31 -19 -34 27 -42 19 -30 -28 6 -25 20 -45 44 -61 34
-24 34 -24 8 -20 -16 3 -28 2 -28 -2 0 -15 86 -50 121 -50 31 0 41 -7 78 -52
86 -107 215 -190 346 -223 76 -19 222 -19 305 1 101 23 202 78 283 154 40 37
79 79 86 94 12 21 21 26 55 26 39 0 126 34 126 50 0 4 -12 5 -27 2 -27 -4 -27
-4 7 20 24 16 38 36 44 61 12 47 4 55 -30 28 -43 -34 -54 -27 -31 19 24 51 16
62 -17 24 -31 -36 -32 -48 -3 -71 28 -22 28 -30 -2 -72 -21 -30 -28 -33 -59
-27 -21 3 -42 1 -50 -6 -11 -10 -17 -8 -28 6 -7 11 -11 22 -9 27 3 4 1 10 -5
14 -22 13 -10 35 20 35 20 0 42 12 69 36 35 33 41 45 52 108 23 135 -8 292
-82 418 -44 75 -140 176 -202 213 -23 13 -50 37 -60 54 -21 37 -98 75 -135 68
-19 -4 -34 1 -50 16 -20 19 -37 22 -110 24 -55 2 -100 -3 -123 -11z m214 -48
c23 -12 59 -23 80 -24 49 -2 63 -12 198 -146 130 -130 176 -203 209 -334 24
-92 25 -164 5 -258 -16 -75 -24 -86 -68 -86 -37 0 -58 20 -45 44 14 26 1 32
-22 11 l-20 -18 25 -27 c31 -32 31 -44 1 -67 l-24 -19 34 -23 34 -23 -20 -29
c-37 -51 -140 -136 -203 -167 -88 -44 -168 -62 -267 -62 -183 0 -344 75 -459
215 l-33 39 26 19 c24 17 25 20 11 40 -21 29 -19 53 6 76 20 18 20 21 4 48
l-16 28 4 -33 c4 -39 -12 -38 -31 1 -15 31 -8 67 13 67 8 0 26 -12 41 -27 l26
-28 -6 34 c-9 48 -24 64 -55 56 -43 -11 -71 -34 -71 -59 0 -22 43 -76 61 -76
5 0 9 -4 9 -10 0 -12 -60 -13 -79 -1 -20 13 -41 116 -41 201 0 150 59 297 166
407 35 37 65 71 66 75 5 14 123 109 166 135 33 19 64 28 125 33 45 4 88 8 95
9 7 0 32 -9 55 -21z m-656 -848 c21 -19 45 -30 63 -30 30 0 42 -22 20 -35 -6
-4 -8 -10 -5 -14 2 -5 -2 -16 -9 -27 -11 -14 -17 -16 -28 -6 -8 6 -29 9 -49 6
-30 -5 -37 -1 -62 30 -27 35 -27 36 -9 54 10 10 21 26 25 35 9 23 14 22 54
-13z"/>
<path d="M1820 2228 c4 -18 11 -42 16 -52 5 -14 4 -17 -5 -12 -7 4 -3 -9 8
-30 12 -21 21 -50 21 -64 1 -14 7 -36 15 -50 17 -30 19 -100 4 -172 -12 -57
-29 -88 -23 -41 3 17 -1 12 -10 -15 -8 -23 -18 -48 -24 -55 -12 -15 -27 -65
-17 -55 9 9 45 -35 45 -55 0 -8 -6 -20 -14 -26 -8 -7 -17 -23 -20 -36 -7 -29
-27 -32 -61 -9 -25 16 -32 42 -17 60 5 5 17 32 26 59 10 28 29 67 42 87 13 20
26 48 30 62 3 14 10 23 15 20 28 -17 -2 44 -43 91 -16 16 -28 35 -28 42 0 7
-13 27 -29 45 -15 18 -35 47 -44 65 -9 17 -24 38 -33 47 -15 15 -19 15 -52
-11 -20 -15 -48 -41 -64 -57 l-27 -31 9 34 c15 54 0 57 -25 4 -12 -27 -37 -66
-55 -86 -36 -41 -26 -46 36 -18 55 25 111 76 135 123 l20 38 34 -62 c19 -35
45 -84 57 -110 14 -29 30 -48 40 -48 36 0 35 -97 -2 -123 -10 -7 -24 -35 -30
-61 -6 -26 -17 -63 -24 -81 -31 -72 -151 -175 -223 -190 -44 -9 -122 28 -191
90 -62 56 -95 110 -112 183 -7 28 -18 52 -24 52 -17 0 -36 43 -36 79 0 34 27
62 39 42 6 -9 10 -5 15 13 8 33 54 65 66 46 7 -11 14 -11 38 -1 16 7 47 10 68
7 l39 -6 -36 18 -36 17 58 29 c58 28 139 96 139 116 0 19 -23 10 -74 -29 -28
-21 -62 -44 -76 -51 -32 -16 -80 -67 -71 -76 3 -3 -5 -3 -19 1 -14 4 -26 11
-28 15 -7 17 -46 -5 -99 -56 l-56 -54 6 -52 c4 -30 14 -60 26 -72 11 -12 28
-44 39 -71 11 -28 30 -67 42 -88 l22 -37 -36 -15 c-47 -20 -63 -19 -71 5 -3
11 -10 20 -14 20 -11 0 -1 -51 12 -68 13 -17 63 -7 100 19 34 25 47 18 47 -27
0 -29 -3 -34 -18 -30 -14 5 -18 -1 -18 -35 -1 -25 -10 -52 -24 -71 -12 -16
-19 -32 -16 -35 8 -8 56 44 56 62 0 8 5 15 10 15 21 0 22 -31 1 -65 -26 -45
-26 -55 -2 -55 13 0 26 15 41 45 12 25 26 45 31 45 18 0 20 -48 4 -79 -17 -33
-13 -51 10 -51 15 0 45 49 45 74 0 22 13 26 35 10 15 -11 16 -17 7 -26 -15
-15 -15 -61 0 -76 18 -18 73 -14 91 6 21 23 22 46 2 65 -12 13 -12 17 5 32 24
21 22 23 44 -37 13 -35 23 -48 37 -48 23 0 24 21 5 58 -12 23 -12 32 -1 51 12
24 13 24 33 -22 15 -34 27 -47 41 -47 26 0 26 14 0 57 -12 20 -18 40 -14 51 5
14 10 10 25 -19 11 -20 26 -39 35 -42 19 -8 19 -2 -2 30 -9 14 -19 44 -23 66
-6 51 -24 58 -36 15 -8 -27 -15 -33 -38 -33 -20 0 -31 -6 -37 -21 -11 -31 -26
-37 -37 -17 -9 15 -14 14 -46 -15 -40 -35 -60 -33 -90 10 -12 17 -18 19 -30 9
-17 -14 -36 -7 -36 13 0 8 -6 19 -14 25 -11 10 -16 9 -24 -5 -16 -29 -32 -5
-32 47 0 27 2 49 5 49 3 0 25 -16 50 -35 88 -67 162 -67 250 0 25 19 47 35 50
35 3 0 5 -15 5 -32 0 -25 3 -29 10 -18 5 8 10 32 10 52 0 45 17 58 39 30 9
-12 31 -27 49 -33 28 -9 36 -9 51 5 11 10 17 25 14 36 -7 26 14 60 38 60 14 0
19 5 16 14 -8 19 58 80 77 73 21 -8 20 -41 0 -72 -9 -14 -12 -25 -6 -25 14 0
72 71 72 87 0 17 -84 58 -103 50 -9 -3 -21 -25 -27 -47 -11 -39 -12 -41 -29
-26 -10 9 -23 16 -29 16 -18 0 -15 15 7 34 34 31 64 116 69 197 5 93 -7 156
-54 265 -37 85 -58 110 -44 52z m-306 -940 c14 -22 -12 -52 -37 -42 -17 6 -23
44 -10 58 11 11 35 3 47 -16z"/>
<path d="M1101 2213 c-13 -29 -45 -155 -64 -255 -15 -79 3 -150 54 -222 22
-31 36 -56 30 -56 -33 0 -56 -72 -27 -83 10 -4 13 -1 10 8 -7 17 25 67 37 59
21 -13 6 47 -25 98 -48 80 -55 117 -39 216 7 46 20 96 28 112 17 34 19 44 5
35 -5 -3 -8 0 -5 7 11 29 22 108 15 108 -4 0 -12 -12 -19 -27z"/>
<path d="M1576 1975 c-27 -20 -16 -27 22 -14 23 8 41 8 64 0 37 -13 51 -5 24
15 -25 18 -86 18 -110 -1z"/>
<path d="M1302 1910 c-31 -13 -51 -58 -31 -71 21 -13 33 -11 20 5 -9 11 -8 18
4 30 19 18 35 21 35 6 0 -5 -7 -10 -15 -10 -8 0 -15 -4 -15 -10 0 -5 11 -10
25 -10 16 0 25 6 25 15 0 22 18 18 25 -5 6 -20 35 -28 35 -10 0 6 -4 10 -10
10 -5 0 -10 6 -10 13 -1 34 -47 54 -88 37z"/>
<path d="M1590 1890 c-15 -16 -34 -30 -41 -30 -10 0 -11 -2 0 -12 10 -11 16
-8 33 15 19 26 48 37 48 17 0 -5 -7 -10 -15 -10 -32 0 -13 -18 26 -24 64 -10
81 16 33 53 -36 28 -51 26 -84 -9z"/>
<path d="M1425 1732 c-11 -11 -4 -24 10 -19 8 4 17 2 20 -3 9 -15 47 -11 69 5
11 8 18 16 15 16 -16 4 -110 5 -114 1z"/>
<path d="M1603 1659 c-7 -7 -54 -10 -137 -8 -81 3 -125 0 -123 -6 5 -16 65
-22 152 -17 l80 5 -20 -22 c-17 -19 -27 -22 -75 -19 -30 2 -63 8 -74 13 -37
16 -11 -19 27 -39 51 -25 97 -15 135 28 16 19 39 39 51 45 11 7 21 16 21 21 0
13 -23 13 -37 -1z"/>
<path d="M1072 1511 c-17 -10 -18 -38 -3 -83 18 -53 32 -62 73 -45 63 27 71
60 21 92 l-26 17 7 -35 c5 -26 3 -36 -8 -40 -18 -7 -66 46 -66 71 1 15 2 15
11 0 5 -10 16 -18 24 -18 10 0 11 5 2 25 -13 27 -16 29 -35 16z"/>
<path d="M1844 1490 c-1 -36 8 -38 30 -5 21 32 20 35 -6 35 -19 0 -23 -6 -24
-30z"/>
<path d="M1774 1465 c-19 -29 -10 -46 37 -71 59 -30 78 -17 93 66 6 31 5 33
-6 16 -7 -11 -23 -31 -36 -44 -23 -23 -24 -24 -41 -6 -10 11 -15 28 -13 41 6
31 -14 29 -34 -2z"/>
<path d="M1950 2265 c30 -30 57 -55 59 -55 3 0 -19 25 -49 55 -30 30 -57 55
-59 55 -3 0 19 -25 49 -55z"/>
<path d="M803 1790 c0 -36 2 -50 4 -32 2 17 2 47 0 65 -2 17 -4 3 -4 -33z"/>
<path d="M2038 1221 c-34 -27 -51 -73 -78 -213 -14 -72 -28 -118 -35 -118 -7
0 -44 -16 -83 -35 -127 -64 -227 -194 -256 -335 -12 -62 -13 -64 -26 -40 -16
29 -17 89 -5 212 7 74 5 91 -9 113 -32 49 -123 22 -190 -56 -41 -49 -39 -63 4
-30 105 77 140 88 161 50 8 -16 8 -47 -1 -122 -13 -115 -3 -168 37 -194 21
-14 23 -13 43 19 11 18 20 42 20 53 0 33 48 125 93 181 47 58 124 115 178 133
59 19 79 49 99 148 27 133 39 172 61 194 48 48 56 -6 20 -136 -28 -100 -30
-159 -8 -207 l17 -37 -31 -29 c-38 -36 -48 -80 -49 -225 0 -74 5 -119 15 -144
17 -41 12 -69 -14 -78 -40 -12 -57 9 -81 102 -15 59 -38 63 -99 19 -27 -20
-65 -43 -85 -51 -40 -17 -102 -20 -111 -5 -9 15 -37 12 -79 -9 -45 -23 -56
-20 -81 22 -15 25 -20 53 -21 130 -1 60 -6 103 -14 112 -22 27 -56 17 -92 -24
-35 -42 -51 -79 -90 -200 -25 -80 -46 -104 -72 -82 -21 17 -21 97 0 216 26
151 51 220 93 252 35 27 44 16 37 -42 -3 -30 -4 -55 -1 -55 12 0 46 84 43 107
-10 87 -127 33 -162 -75 -47 -142 -72 -383 -46 -433 14 -26 69 -25 98 1 12 11
29 46 38 78 37 136 57 184 89 217 18 19 36 35 41 35 5 0 7 -40 6 -88 -6 -147
27 -222 97 -222 27 0 44 7 61 25 23 25 24 25 42 5 40 -43 155 -10 236 67 l42
40 0 -41 c0 -56 37 -127 72 -139 36 -11 79 9 97 47 12 25 11 33 -8 71 -23 46
-26 103 -14 253 4 59 10 82 19 82 8 0 23 9 34 20 27 27 26 77 -2 107 l-21 23
39 155 c42 171 41 188 -13 193 -18 2 -39 -5 -55 -17z"/>
<path d="M742 1087 c-11 -12 -30 -42 -41 -67 -26 -60 -86 -288 -125 -478 -17
-85 -35 -153 -41 -153 -13 1 -22 147 -24 358 l-1 162 -26 20 c-15 12 -37 21
-49 21 -32 0 -73 -36 -91 -78 -33 -78 -97 -273 -133 -407 -51 -186 -66 -190
-58 -14 3 74 13 202 22 286 21 197 18 243 -15 261 -29 17 -93 4 -130 -26 -21
-17 -22 -21 -10 -54 11 -30 11 -86 0 -315 -18 -388 -1 -560 60 -593 32 -17 33
-8 6 41 -51 92 -58 350 -22 767 2 24 0 59 -6 78 -11 42 0 60 44 69 21 5 35 2
46 -9 14 -14 14 -30 -2 -178 -10 -90 -20 -222 -23 -295 -5 -113 -3 -136 11
-158 33 -51 63 -24 96 89 12 39 33 109 46 156 87 292 136 377 188 324 13 -13
16 -46 17 -192 0 -97 3 -201 5 -230 10 -139 82 -143 108 -6 55 286 132 558
166 589 24 22 50 13 50 -18 0 -13 -9 -50 -21 -83 -20 -56 -41 -123 -59 -189
-4 -16 -17 -65 -29 -107 -26 -95 -26 -130 -3 -151 40 -37 84 -10 115 71 45
114 118 188 204 207 27 5 37 2 59 -20 23 -23 26 -32 20 -71 -11 -85 -87 -189
-168 -230 -60 -31 -78 -62 -54 -98 22 -35 60 -43 102 -22 19 9 41 16 48 16 26
0 4 -41 -35 -67 -52 -34 -99 -43 -137 -27 -33 13 -72 66 -72 97 0 27 -49 67
-81 67 -41 0 -62 -34 -89 -149 -26 -110 -51 -151 -93 -151 -46 0 -66 43 -86
190 -6 41 -13 108 -16 148 -5 76 -17 112 -39 112 -17 0 -42 -28 -55 -63 -9
-24 -79 -290 -105 -400 -4 -16 -25 -48 -47 -72 l-41 -44 33 9 c62 18 72 39
134 285 32 127 62 241 68 255 8 20 13 -3 23 -118 15 -172 39 -287 65 -313 13
-13 33 -19 65 -19 73 0 94 29 128 178 l29 122 33 -2 c27 -2 34 -6 34 -23 1
-31 34 -97 63 -124 61 -56 198 -24 253 59 53 80 11 127 -67 76 -47 -32 -73
-33 -94 -4 -15 22 -14 23 35 45 62 27 138 102 170 168 35 71 39 161 10 198
-44 55 -160 28 -237 -56 -45 -48 -83 -117 -103 -183 -11 -37 -15 -40 -41 -36
-22 3 -28 9 -25 21 3 9 23 85 46 169 22 83 54 190 70 236 34 97 36 113 14 144
-20 29 -64 29 -92 -1z"/>
<path d="M2625 1023 c-11 -11 -15 -26 -12 -47 3 -17 1 -50 -5 -74 -24 -98 74
-97 111 1 18 47 13 86 -14 112 -28 29 -57 32 -80 8z m63 -74 c2 -24 -3 -42
-13 -53 -24 -24 -34 -20 -30 12 2 15 4 40 4 55 1 22 5 28 19 25 12 -2 18 -14
20 -39z"/>
<path d="M2230 883 c-52 -19 -92 -87 -114 -196 -41 -196 3 -357 97 -357 36 0
103 41 131 81 8 13 17 21 20 18 8 -8 -22 -157 -37 -186 -19 -36 -55 -69 -87
-78 -14 -4 -56 -7 -94 -7 -77 2 -96 -8 -96 -48 0 -120 229 -130 344 -14 59 59
84 129 102 284 17 152 29 221 55 322 26 106 25 153 -4 173 -19 12 -30 13 -55
4 -41 -14 -62 -50 -107 -187 -39 -120 -86 -197 -121 -197 -16 0 -20 8 -22 46
-4 56 20 165 48 219 44 85 12 149 -60 123z m37 -49 c3 -9 -6 -53 -22 -98 -36
-105 -45 -218 -20 -246 40 -45 104 -11 149 78 13 26 36 87 51 136 32 105 75
161 102 133 14 -13 12 -29 -15 -153 -17 -77 -36 -191 -42 -254 -10 -105 -43
-248 -59 -260 -3 -3 -11 -14 -17 -25 -32 -59 -175 -114 -246 -95 -37 11 -65
41 -53 60 3 6 34 10 68 10 133 1 201 68 222 220 7 50 -7 100 -29 100 -7 0 -37
-16 -66 -36 -64 -44 -95 -43 -128 6 -23 33 -24 41 -20 165 5 143 26 216 76
255 30 24 41 25 49 4z"/>
<path d="M2755 846 c-92 -43 -165 -136 -165 -209 0 -46 31 -77 120 -122 40
-20 70 -41 67 -48 -5 -16 -83 -14 -124 3 -89 38 -141 -67 -67 -135 72 -67 278
-25 335 68 25 42 25 107 -1 140 -11 14 -54 44 -95 67 -86 47 -94 68 -42 100
38 24 60 22 65 -5 6 -31 22 -45 51 -45 49 0 71 33 71 105 0 38 -5 52 -29 76
-25 25 -37 29 -83 29 -35 0 -70 -8 -103 -24z m171 -48 c18 -34 11 -83 -13 -92
-11 -4 -28 5 -49 25 -38 37 -63 35 -113 -7 -56 -47 -40 -86 60 -144 49 -29 75
-51 86 -75 15 -31 15 -36 -4 -72 -55 -107 -287 -132 -301 -33 -6 38 23 52 66
35 69 -29 142 -11 142 36 0 20 -47 62 -100 89 -52 27 -83 67 -75 100 17 70 98
144 181 165 66 16 102 9 120 -27z"/>
<path d="M1863 755 c-65 -28 -155 -144 -167 -216 -4 -25 9 -59 28 -71 23 -16
46 -6 100 43 62 56 120 161 114 206 -5 39 -35 55 -75 38z m51 -37 c-29 -95
-131 -228 -175 -228 -25 0 -24 24 5 85 28 61 68 109 115 140 47 31 64 32 55 3z"/>
<path d="M938 690 c-70 -74 -94 -145 -62 -181 23 -26 65 -7 119 54 52 60 68
117 39 148 -26 29 -53 23 -96 -21z m82 -12 c0 -34 -47 -104 -92 -137 -24 -18
-44 -27 -46 -21 -7 19 46 115 84 154 37 38 54 39 54 4z"/>
<path d="M2941 336 c-19 -23 -4 -56 25 -56 28 0 42 25 27 49 -14 22 -37 25
-52 7z"/>
</g>
</svg>
